SplineFontDB: 1.0
FontName: Purisa
FullName: Purisa
FamilyName: Purisa
Weight: Medium
Copyright: Purisa, Thai handwriting outline font. Copyright (C) 2003, 2004 Poonlap Veerathanabutr <poonlap@linux.thai.net>\n\nThis program is free software; you can redistribute it and/or modify it under the terms of the GNU General Public License as published by the Free Software Foundation; either version 1, or (at your option) any later version.\n\nThis program is distributed in the hope that it will be useful, but WITHOUT ANY WARRANTY; without even the implied warranty of MERCHANTABILITY or FITNESS FOR A PARTICULAR PURPOSE. See the GNU General Public License for more details.\n\nYou should have received a copy of the GNU General Public License along with this program; if not, write to the Free Software Foundation, Inc., 675 Mass Ave, Cambridge, MA 02139, USA.
Comments: 2003-11-27: Created.\n\nAcknowlegement:\nHanwriting by Ms.Purisa Cholasueksa. \nCo-operated by Mr.Teeratep Sosakul.\n\n2004-02-14:\nModified most characters. Make numbers bigger.
Version: 002.000
ItalicAngle: 0
UnderlinePosition: -100
UnderlineWidth: 50
Ascent: 800
Descent: 200
NeedsXUIDChange: 1
XUID: [1021 215 427847090 15454191]
FSType: 12
PfmFamily: 65
TTFWeight: 300
TTFWidth: 5
Panose: 2 0 6 3 0 0 0 0 0 0
LineGap: 90
VLineGap: 0
ScriptLang: 3
 1 thai 1 dflt 
 1 latn 1 dflt 
 1 DFLT 1 dflt 
LangName: 1033 "" "" "" "" "" "" "" "" "" "" "" "" "" "" "" "" "" "" "" "+AAoOIA45DiMONA4pDjIA +DhgONQ4jDkAOFw4e" 
Encoding: compacted
OldEncoding: unicode
UnicodeInterp: none
DisplaySize: -72
AntiAlias: 1
FitToEm: 1
WinInfo: 78 13 7
BeginChars: 226 226
StartChar: exclam
Encoding: 1 33 32767
OldEncoding: 33
Width: 412
Flags: W
Fore
193.524 94.4902 m 0
 208.5 100.656 240.064 96.3203 247.046 87.1377 c 0
 255.381 76.1758 254.625 55.8027 244.92 29.8389 c 0
 234.713 2.53223 220.752 -4.94531 200.544 6.07031 c 0
 192.588 10.4072 184.273 13.7236 181.356 13.7236 c 0
 171.875 13.7236 159.36 28.4961 159.36 39.6875 c 0
 159.36 54.9072 180.76 89.2344 193.524 94.4902 c 0
172.081 436.303 m 0
 174.114 438.292 185.1 438.591 196.8 436.974 c 0
 208.223 435.396 230.496 432.835 245.472 431.378 c 2
 273.084 428.692 l 1
 270.276 399.147 l 2
 268.731 382.898 262.036 353.487 255.396 333.791 c 0
 244.677 301.992 228.771 238.89 221.547 199.497 c 0
 218.098 180.696 211.625 174.185 201.48 179.311 c 0
 193.369 183.409 190.379 202.183 184.361 286.788 c 0
 183.215 302.903 180.518 326.87 178.314 340.506 c 0
 176.145 353.936 175.399 374.486 176.676 385.719 c 0
 178.101 398.252 177.002 407.505 173.868 409.363 c 0
 167.784 412.971 166.593 430.931 172.081 436.303 c 0
EndSplineSet
EndChar
StartChar: quotedbl
Encoding: 2 34 32767
OldEncoding: 34
Width: 454
Flags: W
Fore
153.851 551.536 m 0
 170.327 572.755 192.56 563.204 201.381 531.117 c 0
 205.778 515.121 213.173 488.334 217.754 471.805 c 0
 237.965 398.879 221.677 356.689 182.074 379.389 c 0
 159.304 392.441 136.816 529.6 153.851 551.536 c 0
246.752 569.038 m 0
 254.545 590.81 266.954 588.485 283.093 562.232 c 0
 291.604 548.388 298.056 508.753 300.028 458.191 c 0
 302.799 387.211 301.189 376.069 287.732 373.112 c 0
 278.884 371.167 267.866 378.46 262.024 390.128 c 0
 249.854 414.437 238.601 546.266 246.752 569.038 c 0
EndSplineSet
EndChar
StartChar: numbersign
Encoding: 3 35 32767
OldEncoding: 35
Width: 520
Flags: W
Fore
339.385 425.95 m 0
 348.061 457.49 352.833 463.697 366.827 461.64 c 0
 381.048 459.55 383.443 453.755 381.75 425.535 c 0
 379.858 393.995 381.078 391.945 401.514 392.335 c 0
 416.033 392.611 424.256 388.047 426.181 378.64 c 0
 429.917 360.38 400.045 329.522 384.573 335.66 c 0
 375.773 339.151 371.153 331.745 367.634 308.505 c 0
 364.983 291.006 359.874 260.78 356.34 241.69 c 2
 349.887 206.83 l 1
 401.917 211.81 l 2
 453.544 216.751 453.925 216.636 451.124 196.87 c 0
 448.771 180.27 440.233 174.832 399.9 164.242 c 0
 334.561 147.087 331.293 144.248 330.465 103.91 c 0
 329.271 45.8096 321.281 27.583 295.84 24.9277 c 2
 273.254 22.5703 l 1
 278.9 76.9346 l 1
 284.547 131.3 l 1
 257.12 131.3 l 2
 217.028 131.3 210.718 123.83 201.021 64.9004 c 0
 190.777 2.65039 177.327 -17.958 157.9 -1.16797 c 0
 148.182 7.23145 146.832 19.665 151.043 61.9951 c 2
 156.287 114.7 l 1
 111.113 114.7 l 2
 86.1064 114.7 63.6895 118.405 60.8984 123 c 0
 51.3193 138.77 82.0732 158.664 122.407 162.788 c 0
 166.762 167.324 172.58 173.63 181.417 226.75 c 0
 184.455 245.01 189.118 268.914 191.78 279.87 c 2
 196.62 299.79 l 1
 138.943 293.98 l 2
 82.4766 288.292 81.2666 288.579 81.2666 307.675 c 0
 81.2666 323.713 87.7197 328.951 117.566 337.14 c 0
 137.733 342.674 162.472 347.1 173.227 347.1 c 0
 198.343 347.1 203.234 355.4 209.43 408.52 c 0
 213.593 444.21 217.15 451.24 232.113 453.34 c 0
 248.186 455.595 250.089 451.68 252.28 411.84 c 0
 254.654 368.68 255.157 367.903 278.9 370.68 c 0
 317.109 375.147 328.198 385.28 339.385 425.95 c 0
307.119 247.5 m 0
 320.286 325.52 319.102 328.455 278.094 319.414 c 0
 241.478 311.341 241.899 312.24 229.646 215.96 c 2
 224.047 171.97 l 1
 247.44 177.365 l 2
 260.347 180.342 276.8 184.435 284.144 186.495 c 0
 293.596 189.147 300.255 206.83 307.119 247.5 c 0
EndSplineSet
EndChar
StartChar: dollar
Encoding: 4 36 32767
OldEncoding: 36
Width: 499
Flags: W
Fore
266.306 586.602 m 0
 268.783 595.059 278.384 600.345 291.269 600.345 c 0
 311.104 600.345 311.928 598.774 306.936 570.502 c 0
 293.621 495.108 291.416 458.982 300.126 458.982 c 0
 310.595 458.982 374.211 397.615 374.211 387.517 c 0
 374.211 369.891 354.884 373.388 325.09 396.404 c 0
 307.374 410.089 291.61 420.049 290.061 418.537 c 0
 288.504 417.02 284.898 392.229 282.008 363.171 c 2
 276.773 310.553 l 1
 302.542 297.478 l 2
 359.669 268.491 383.111 213.17 362.894 155.054 c 0
 344.588 102.437 314.488 68.2969 276.773 57.377 c 0
 236.426 45.6953 230.589 34.8965 221.322 -45.209 c 0
 217.233 -80.5488 212.711 -110.043 211.145 -111.57 c 0
 209.649 -113.029 199.065 -115.24 188.598 -116.282 c 0
 170.184 -118.115 168.976 -115.89 170.479 -82.9053 c 0
 171.357 -63.6289 176.481 -22.041 181.753 8.58691 c 2
 191.416 64.7393 l 1
 162.427 89.5703 l 2
 110.89 133.713 79.5918 223.379 115.721 223.379 c 0
 125.801 223.379 136.79 211.992 147.932 190.002 c 0
 157.083 171.939 171.862 147.797 180.142 137.384 c 2
 195.442 118.143 l 1
 201.079 149.164 l 2
 204.219 166.441 209.895 192.363 213.89 207.672 c 0
 225.573 252.437 222.692 268.207 201.884 273.38 c 0
 172.09 280.786 142.418 308.115 136.798 333.327 c 0
 129.383 366.592 174.505 438.954 213.963 457.078 c 0
 241.925 469.921 244.328 473.904 253.019 521.811 c 0
 258.147 550.083 264.075 578.989 266.306 586.602 c 0
233.692 343.537 m 0
 236.556 366.312 237.65 395.651 236.107 408.328 c 2
 233.289 431.496 l 1
 207.118 396.94 l 2
 192.844 378.092 180.947 355.96 180.947 348.249 c 0
 180.947 334.898 210.756 301.914 222.821 301.914 c 0
 225.905 301.914 230.828 320.762 233.692 343.537 c 0
306.568 243.013 m 0
 295.295 254.008 282.894 262.646 278.384 262.646 c 0
 268.908 262.646 253.947 196.678 247.75 127.567 c 0
 242.469 68.666 247.867 63.0049 278.452 95.3682 c 0
 327.438 147.201 339.557 210.841 306.568 243.013 c 0
EndSplineSet
EndChar
StartChar: percent
Encoding: 5 37 32767
OldEncoding: 37
Width: 583
Flags: W
Fore
389.581 136.475 m 0
 414.362 161.801 430.339 161.325 449.131 134.7 c 0
 463.554 114.264 463.395 109.85 447.103 78.7871 c 0
 425.691 37.9629 384.116 21.0195 359.993 43.2871 c 0
 346.475 55.7666 346.125 61.0371 357.108 86.7754 c 0
 363.926 102.75 378.687 125.341 389.581 136.475 c 0
139.829 375.213 m 0
 153.524 389.856 164.819 389.13 185.01 372.308 c 0
 219.513 343.562 197.509 271.375 154.243 271.375 c 0
 119.927 271.375 109.947 343.263 139.829 375.213 c 0
433.062 410.773 m 0
 484.02 453.79 501.325 457.825 501.325 426.688 c 0
 501.325 405.047 472.592 368.112 366.688 253.625 c 0
 342.059 227 308.206 186.659 292.211 164.875 c 0
 276.075 142.898 224.403 87.2188 177.318 41.0684 c 0
 113.934 -21.0566 87.5117 -41.249 75.4053 -36.8174 c 0
 45.7432 -25.959 58.4648 -0.200195 126.802 67.25 c 0
 199.049 138.56 302.104 256.287 355.982 329.062 c 0
 374.381 353.912 408.296 389.865 433.062 410.773 c 0
EndSplineSet
EndChar
StartChar: ampersand
Encoding: 6 38 32767
OldEncoding: 38
Width: 583
Flags: W
DStem: 160.596 239.318 194.661 196.777 125.706 167.259 167.447 144.687
Fore
182.11 464.819 m 0
 205.419 479.05 230.688 489.102 237.244 486.75 c 0
 243.519 484.499 255.173 482.409 261.448 482.409 c 0
 268.104 482.409 278.486 466.782 284.52 447.682 c 0
 296.21 410.67 293.973 402.536 242.025 293.146 c 0
 223.886 254.945 221.907 243.53 231.345 231.505 c 0
 252.466 204.591 288.389 172.204 308.513 161.933 c 0
 332.317 149.783 345.873 161.182 388.153 228.9 c 0
 415.798 273.177 440.363 288.575 459.12 273.383 c 0
 478.021 258.073 475.638 251.473 430.522 194.173 c 0
 384.041 135.137 374.852 117.772 390.092 117.772 c 0
 395.829 117.772 407.125 111.695 414.297 104.75 c 0
 421.692 97.5879 435.812 91.7275 445.673 91.7275 c 0
 475.257 91.7275 516.494 66.4512 516.494 48.3184 c 0
 516.494 11.9189 449.259 23.4482 383.816 71.0684 c 2
 354.233 92.5957 l 1
 308.513 52.8594 l 2
 261.896 12.3438 191.306 -32.1758 168.664 -35.3408 c 0
 147.624 -38.2812 115.913 -20.2686 103.921 1.43652 c 0
 82.3926 40.4014 89.1348 91.7275 125.706 167.259 c 2
 160.596 239.318 l 1
 145.73 283.596 l 2
 110.172 389.514 117.353 425.281 182.11 464.819 c 0
238.589 395.591 m 0
 238.589 442.473 235.777 444.953 205.419 424.863 c 0
 188.462 413.641 184.8 402.971 184.8 364.771 c 0
 184.8 339.593 188.29 316.335 192.42 313.981 c 0
 196.464 311.679 209.087 319.625 219.314 330.911 c 0
 233.577 346.651 238.589 363.468 238.589 395.591 c 0
269.068 130.84 m 0
 246.656 144.499 220.26 165.287 211.246 176.375 c 2
 194.661 196.777 l 1
 167.447 144.687 l 2
 138.418 89.123 132.34 39.5898 152.527 23.1064 c 0
 161.581 15.7139 176.283 21.1465 218.418 47.4502 c 0
 248.001 65.9189 279.989 82.708 288.791 84.3867 c 0
 317.683 89.8984 311.202 105.161 269.068 130.84 c 0
EndSplineSet
EndChar
StartChar: quotesingle
Encoding: 7 39 32767
OldEncoding: 39
Width: 487
Flags: W
Fore
198.199 542.884 m 0
 206.35 557.809 212.781 558.955 259.053 553.731 c 0
 287.657 550.502 314.179 545.875 318.365 543.385 c 0
 327.956 537.677 317.789 491.15 303.487 475.297 c 0
 296.863 467.954 288.226 439.417 284.292 411.882 c 0
 278.452 370.995 274.057 361.385 260.315 359.461 c 0
 231.9 355.482 203.947 392.69 202.128 436.914 c 0
 201.27 457.774 197.965 476.975 194.693 480.115 c 0
 185.763 488.687 187.718 523.692 198.199 542.884 c 0
EndSplineSet
EndChar
StartChar: parenleft
Encoding: 8 40 32767
OldEncoding: 40
Width: 517
Flags: W
Fore
274.057 631.521 m 0
 308.893 668.478 347.827 682.246 347.827 657.608 c 0
 347.827 650.52 333.334 621.738 316.081 594.564 c 0
 271.172 523.833 215.656 333.694 214.207 245.65 c 0
 213.203 184.677 218.628 164.128 253.805 95.6504 c 0
 276.14 52.1719 314.221 -2.82617 338.045 -26.0117 c 0
 385.871 -72.5576 391.366 -105.682 352.175 -111.189 c 0
 299.957 -118.528 175.688 70.6494 151.329 194.563 c 0
 140.001 252.188 139.116 246.737 196.667 473.912 c 0
 216.218 551.086 235.77 590.903 274.057 631.521 c 0
EndSplineSet
EndChar
StartChar: parenright
Encoding: 9 41 32767
OldEncoding: 41
Width: 505
Flags: W
Fore
163.665 658.427 m 0
 195.763 690.524 301.242 586.516 328.891 495.505 c 0
 357.223 402.246 364.006 213.165 342.071 128.087 c 0
 325.271 62.918 293.725 -13.5312 266.963 -53.9355 c 0
 260.874 -63.1289 250.692 -84.835 244.564 -101.689 c 0
 236.393 -124.161 225.82 -132.588 205.8 -132.588 c 0
 191.193 -132.588 175.107 -127.578 171.53 -121.914 c 0
 167.818 -116.037 188.271 -66.2959 217.036 -11.2393 c 0
 258.717 68.5361 271.794 107.622 281.695 182.02 c 0
 299.491 315.729 280.62 454.109 233.277 537.077 c 0
 213.401 571.909 190.852 602.391 182.766 605.355 c 0
 167.035 611.123 153.624 648.386 163.665 658.427 c 0
EndSplineSet
EndChar
StartChar: asterisk
Encoding: 10 42 32767
OldEncoding: 42
Width: 613
Flags: W
Fore
255.688 481.629 m 0
 272.444 513.046 297.274 505.086 301.901 466.814 c 0
 303.841 450.765 308.312 423.604 311.655 407.555 c 0
 317.828 377.926 317.828 377.926 346.829 419.9 c 0
 385.213 475.456 426.259 508.196 447.458 500.166 c 0
 470.883 491.293 469.681 463.19 444.989 442.481 c 0
 427.705 427.985 378.322 341.757 378.322 326.073 c 0
 378.322 321.981 407.335 320.324 443.137 322.369 c 0
 502.396 325.756 508.299 323.745 511.997 298.913 c 0
 516.266 270.253 511.655 266.957 447.458 252.774 c 2
 410.421 244.592 l 1
 445.606 216.813 l 2
 476.471 192.447 478.995 185.7 466.167 161.876 c 0
 447.353 126.935 442.52 127.567 380.791 173.052 c 0
 335.112 206.71 328.939 208.466 328.939 187.802 c 0
 328.939 175.456 335.957 157.327 343.754 149.53 c 0
 366.176 127.108 331.408 94.043 293.137 101.392 c 0
 272.149 105.421 252.063 99.2979 235.112 83.7021 c 0
 205.604 56.5547 168.445 64.3447 168.445 97.6777 c 0
 168.445 109.338 182.245 133.48 199.495 151.999 c 0
 242.005 197.634 238.815 208.789 183.26 208.789 c 0
 127.704 208.789 87.1914 240.263 126.47 252.908 c 0
 175.853 268.808 242.52 299.49 242.52 306.32 c 0
 242.52 310.414 223.348 334.715 199.666 360.642 c 0
 151.173 413.728 135.131 452.019 153.63 470.518 c 0
 172.561 489.448 205.482 472.987 205.482 444.592 c 0
 205.482 432.246 214.254 414.118 224.001 406.32 c 0
 239.375 394.021 242.52 397.062 242.52 424.222 c 0
 242.52 442.74 248.234 467.653 255.688 481.629 c 0
EndSplineSet
EndChar
StartChar: plus
Encoding: 11 43 32767
OldEncoding: 43
Width: 568
Flags: W
DStem: 241.431 253.861 305.984 250.721 244.555 135.055 302.86 133.484 244.555 135.055 302.86 133.484 247.678 16.249 299.737 16.249
Fore
238.308 444.369 m 0
 241.763 453.635 255.486 461.117 269.022 461.117 c 0
 291.581 461.117 294.059 455.36 300.778 387.321 c 2
 308.066 313.525 l 1
 366.372 319.807 l 2
 398.649 323.283 436.996 328.423 452.27 331.32 c 0
 473.094 335.271 481.618 331.162 487.023 314.572 c 0
 497.624 282.039 487.149 274.511 421.555 267.517 c 0
 389.278 264.075 349.385 258.801 334.096 255.954 c 2
 305.984 250.721 l 1
 302.86 133.484 l 1
 299.737 16.249 l 1
 273.707 16.249 l 1
 247.678 16.249 l 1
 244.555 135.055 l 1
 241.431 253.861 l 1
 187.289 245.563 l 2
 87.3359 230.245 70.6777 232.627 70.6777 262.235 c 0
 70.6777 286.547 76.4043 289.518 151.369 304.105 c 2
 232.061 319.807 l 1
 232.061 373.714 l 2
 232.061 403.022 234.911 435.264 238.308 444.369 c 0
EndSplineSet
EndChar
StartChar: comma
Encoding: 12 44 32767
OldEncoding: 44
Width: 394
Flags: W
Fore
170.464 35.5361 m 0
 215.919 126.445 235.242 155.738 249.757 155.738 c 0
 290.666 155.738 284.414 118.364 224.75 6.24316 c 0
 159.71 -115.979 152.198 -127.09 134.605 -127.09 c 0
 102.138 -127.09 112.383 -80.625 170.464 35.5361 c 0
EndSplineSet
EndChar
StartChar: hyphen
Encoding: 13 45 32767
OldEncoding: 45
Width: 739
Flags: W
Fore
181.77 354.665 m 0
 225.642 359.451 345.538 362.709 448.438 361.912 c 0
 607.858 360.676 637.662 356.834 650.793 335.824 c 0
 681.504 286.687 644.09 278.275 364.379 271.437 c 2
 93.3633 264.81 l 1
 97.7109 305.39 l 2
 101.743 343.019 107.856 346.602 181.77 354.665 c 0
EndSplineSet
EndChar
StartChar: period
Encoding: 14 46 32767
OldEncoding: 46
Width: 433
Flags: W
Fore
219.384 137.154 m 0
 219.384 143.992 228.358 149.975 238.615 149.975 c 0
 248.871 149.975 257.846 143.992 257.846 137.154 c 0
 257.846 130.032 268.102 124.334 280.923 124.334 c 0
 318.315 124.334 341.422 69.2061 322.836 24.334 c 0
 274.512 -92.332 136.668 -109.832 110.768 -2.58887 c 0
 104.592 22.9814 112.421 41.6416 144.384 77.5391 c 0
 167.215 103.18 193.585 124.334 202.718 124.334 c 0
 211.691 124.334 219.384 130.251 219.384 137.154 c 0
245.284 28.1807 m 0
 257.827 43.0645 255.923 45.8008 234.128 44.2061 c 0
 220.025 43.1738 204.792 34.5596 201.257 25.6162 c 0
 192.376 3.1543 225.838 5.10352 245.284 28.1807 c 0
EndSplineSet
EndChar
StartChar: slash
Encoding: 15 47 32767
OldEncoding: 47
Width: 613
Flags: W
Fore
452.433 674.804 m 0
 466.487 692.629 496.468 690.49 507.396 670.883 c 0
 514.132 658.799 511.294 643.432 497.078 615 c 0
 486.247 593.338 469.352 552.745 459.333 524.313 c 0
 449.366 496.029 405.644 403.726 362.274 319.412 c 0
 318.905 235.099 283.353 161.785 283.353 156.667 c 0
 283.353 151.556 264.773 111.078 242.177 66.9609 c 0
 219.58 22.8438 188.613 -38.8672 173.549 -69.8037 c 0
 153.498 -110.98 140.812 -126.177 126.49 -126.177 c 0
 91.6318 -126.177 94.1211 -98.7256 136.093 -20.2939 c 0
 158.128 20.8828 189.859 84.1621 205.902 118.922 c 0
 222.191 154.216 247.998 208.892 263.745 241.471 c 0
 279.512 274.091 314.668 348.333 342.667 408.138 c 0
 370.666 467.941 401.454 533.449 411.784 555.196 c 0
 422.029 576.765 433.279 609.854 436.784 628.726 c 0
 440.243 647.353 447.397 668.417 452.433 674.804 c 0
EndSplineSet
EndChar
StartChar: zero
Encoding: 16 48 32767
OldEncoding: 48
Width: 448
Flags: W
Fore
264.026 481.531 m 0
 278.991 490.108 296.374 497.489 302.27 497.77 c 0
 327.21 498.953 359.536 471.618 378.678 433.159 c 0
 415.601 358.973 397.623 243.432 329.61 117.801 c 0
 292.134 48.5762 256.61 15.5869 204.168 1.30859 c 0
 148.58 -13.8271 110.479 6.69922 81.5293 67.3779 c 0
 61.1416 110.109 60.2803 116.535 69.9033 154.123 c 0
 75.6182 176.45 90.7002 217.793 103.417 245.995 c 0
 145.423 339.15 154.286 361.636 154.286 375.045 c 0
 154.286 390.563 224.952 459.135 264.026 481.531 c 0
343.619 412.648 m 0
 329.845 439.312 293.124 443.921 260.701 423.055 c 0
 203.738 386.395 121.032 204.118 121.032 115.237 c 0
 121.032 76.7793 149.542 45.1572 184.216 45.1572 c 0
 207.141 45.1572 222.043 53.5869 254.466 84.8975 c 0
 276.912 106.574 295.618 129.494 295.618 135.321 c 0
 295.618 141.134 307.753 172.497 322.236 204.118 c 0
 352.77 270.779 363.393 374.372 343.619 412.648 c 0
EndSplineSet
EndChar
StartChar: one
Encoding: 17 49 32767
OldEncoding: 49
Width: 280
Flags: W
Fore
172.061 489.322 m 0
 193.914 512.299 206.962 499.663 212.943 449.73 c 0
 222.195 372.492 231.086 29.8535 224.219 15.165 c 0
 213.934 -6.83594 200.059 -1.21875 189.532 29.209 c 0
 183.076 47.8691 179.738 110.738 178.99 227.767 c 0
 178.198 351.817 175.584 399.019 169.507 399.019 c 0
 164.866 399.019 149.813 382.635 135.817 362.35 c 0
 99.2119 309.297 76.8096 288.435 62.6367 294.198 c 0
 46.9521 300.577 47.3174 322.432 63.3662 337.908 c 0
 70.3418 344.635 83.7461 360.789 94.0049 374.832 c 0
 104.263 388.876 115.593 403.895 119.901 409.161 c 0
 124.135 414.335 135.067 431.786 144.34 448.17 c 0
 153.612 464.555 166.014 482.964 172.061 489.322 c 0
EndSplineSet
EndChar
StartChar: two
Encoding: 18 50 32767
OldEncoding: 50
Width: 613
Flags: W
Fore
226.333 469.976 m 0
 298.833 492.521 370.586 480.15 391.258 441.541 c 0
 407.684 410.862 400.259 325.442 375.87 264.512 c 0
 354.117 210.168 273.446 79.6895 243 49.6055 c 0
 229.778 36.541 230.5 35.9434 253.833 40.6426 c 0
 391.333 68.3311 539.138 75.0264 542.607 53.7227 c 0
 546.966 26.9619 544.667 25.6719 490.5 24.4736 c 0
 460.563 23.8115 405.5 17.4414 369.667 10.4941 c 0
 333.833 3.54785 282.947 -4.51953 258 -7.20898 c 0
 233 -9.90332 207.242 -16.2363 201.333 -21.1406 c 0
 185.274 -34.4688 149.667 -22.0293 149.667 -3.0918 c 0
 149.667 9.9375 195.5 69.8867 225.5 96.0967 c 0
 257.632 124.169 331.116 263.688 345.862 324.619 c 0
 367.384 413.546 357.47 433.308 291.333 433.308 c 0
 232.222 433.308 178.485 406.136 118.726 346.027 c 0
 90.0732 317.209 64.4453 293.33 62.167 293.33 c 0
 59.9277 293.33 58 306.093 58 320.914 c 0
 58 341.499 63.2861 351.214 78.833 359.202 c 0
 90.5 365.196 99.667 374.616 99.667 380.61 c 0
 99.667 386.487 109.25 397.998 120.917 406.136 c 0
 132.641 414.312 153 429.446 166.333 439.895 c 0
 179.821 450.465 206.333 463.756 226.333 469.976 c 0
EndSplineSet
EndChar
StartChar: three
Encoding: 19 51 32767
OldEncoding: 51
Width: 451
Flags: W
Fore
329.614 491.996 m 0
 346.767 495.562 363.274 498.908 365.725 499.315 c 0
 375.172 500.887 392.808 479.297 392.808 466.16 c 0
 392.808 459.438 368.333 427.186 338.643 394.781 c 0
 308.952 362.376 284.478 333.289 284.478 330.408 c 0
 284.478 327.51 296.213 325.153 310.657 325.153 c 0
 340.175 325.153 388.586 278.735 398.345 241.075 c 0
 408.504 201.87 394.458 132.475 367.854 90.4355 c 0
 310.214 -0.649414 155.808 -42.2812 124.235 24.749 c 0
 107.735 59.7822 110.052 106.2 128.301 106.2 c 0
 146.926 106.2 166.544 80.8018 166.859 56.2783 c 0
 167.087 38.6533 171.633 36.1348 203.229 36.1348 c 0
 245.659 36.1348 299.933 65.7646 328.36 104.448 c 0
 343.145 124.564 347.67 143.86 347.67 186.775 c 0
 347.67 260.344 329.663 281.736 273.645 274.724 c 0
 252.881 272.124 227.561 262.679 217.674 253.844 c 0
 193.64 232.368 163.291 236.696 159.821 262.095 c 0
 158.266 273.48 161.99 281.542 168.925 281.801 c 0
 175.444 282.044 189.832 292.748 201.297 305.886 c 0
 276.962 392.592 302.539 425.842 295.311 428.104 c 0
 287.328 430.603 181.563 414.519 105.732 399.274 c 0
 82.2607 394.556 76.8438 396.095 76.8438 407.48 c 0
 76.8438 415.362 72.8945 421.493 67.8164 421.493 c 0
 62.4004 421.493 58.7891 424.646 58.7891 429.375 c 0
 58.7891 438.221 139.134 459.252 230.312 474.273 c 0
 267.325 480.371 312.342 488.405 329.614 491.996 c 0
EndSplineSet
EndChar
StartChar: four
Encoding: 20 52 32767
OldEncoding: 52
Width: 448
Flags: W
Fore
280.275 476.175 m 0
 286.588 493.136 310.7 486.963 313.386 467.699 c 0
 314.579 459.138 307.013 443.041 296.362 431.482 c 0
 278.494 412.092 277.19 405.283 277.19 331.31 c 0
 277.19 287.388 279.877 247.641 283.205 242.31 c 0
 287.773 234.994 296.362 234.717 318.917 241.154 c 0
 335.457 245.875 352.444 252.703 357.26 256.565 c 0
 362.703 260.932 373.424 260.598 386.204 255.663 c 0
 415.333 244.416 410.263 214.374 378.687 211.117 c 0
 366.47 209.856 339.592 203.316 320.045 196.847 c 2
 283.957 184.903 l 1
 287.341 118.25 l 2
 289.218 81.2627 295.074 41.9932 300.497 30.0205 c 0
 308.875 11.5273 308.553 6.68359 298.242 -3.88379 c 0
 269.801 -33.0342 252.486 3.05078 242.782 111.7 c 0
 237.688 168.722 236.346 172.33 221.557 168.722 c 0
 212.928 166.616 176.447 158.74 141.112 151.355 c 0
 38.8643 129.985 26.8389 144.059 79.5283 223.432 c 0
 155.231 337.475 251.062 462.837 262.906 463.322 c 0
 269.673 463.6 277.847 469.648 280.275 476.175 c 0
238.097 232.678 m 0
 239.329 243.211 237.626 276.215 234.337 305.496 c 2
 228.322 359.05 l 1
 195.117 318.21 l 2
 163.792 279.683 109.062 193.97 113.295 190.066 c 0
 114.535 188.922 142.615 193.707 175.695 200.7 c 0
 230.578 212.302 236.038 215.1 238.097 232.678 c 0
EndSplineSet
EndChar
StartChar: five
Encoding: 21 53 32767
OldEncoding: 53
Width: 395
Flags: W
Fore
310.892 472.122 m 0
 349.335 481.024 364.361 479.974 368.346 468.104 c 0
 374.277 450.432 247.62 414.816 189.154 417.715 c 0
 141.9 420.059 119.775 398.037 130.77 359.604 c 0
 134.678 345.94 135.726 323.437 133.091 309.773 c 2
 128.285 284.858 l 1
 155.516 301.775 l 2
 197.964 328.145 248.891 339.38 275.651 328.28 c 0
 312.277 313.089 336.172 228.6 323.163 160.285 c 0
 300.664 42.1406 246.656 -9.29688 145.104 -9.29688 c 0
 111.466 -9.29688 104.803 -6.04785 82.4736 21.2441 c 0
 56.1699 53.3926 47.165 77.123 52.2793 100.811 c 0
 54.8174 112.564 57.9785 110.455 69.1416 89.5586 c 0
 89.3506 51.7295 116.271 36.9854 166.729 36.1123 c 0
 220.695 35.1787 243.299 53.3926 266.971 116.885 c 0
 292.439 185.199 285.045 279.11 253.227 291.426 c 0
 236.128 298.045 173.07 266.374 148.939 239.048 c 0
 125.518 212.525 120.601 211.396 103.457 228.6 c 0
 86.6377 245.478 84.5254 443.726 101.055 454.059 c 0
 106.338 457.361 148.708 461.152 195.16 462.478 c 0
 241.613 463.803 293.72 468.146 310.892 472.122 c 0
EndSplineSet
EndChar
StartChar: six
Encoding: 22 54 32767
OldEncoding: 54
Width: 352
Flags: W
Fore
143.303 482.069 m 0
 154.41 495.544 172.65 494.712 177.96 480.488 c 0
 180.373 474.023 173.005 437.028 161.749 399.1 c 0
 114.853 241.062 110.044 215.776 126.89 215.776 c 0
 131.609 215.776 144.476 222.903 155.418 231.58 c 0
 166.491 240.359 184.729 247.384 196.453 247.384 c 0
 224.591 247.384 267.584 228.961 284.969 209.455 c 0
 303.947 188.16 308.801 144.659 294.844 120.954 c 0
 288.33 109.891 280.065 94.2451 276.062 85.3955 c 0
 266.297 63.8154 208.177 11.1689 183.947 1.9541 c 0
 173.148 -2.15234 151.119 -5.47656 134.705 -5.47656 c 0
 86.6875 -5.47656 47.9463 50.627 47.9463 120.163 c 0
 47.9463 150.134 83.0215 297.955 109.07 377.765 c 0
 117.581 403.841 127.007 435.843 130.016 448.881 c 0
 133.116 462.314 138.874 476.695 143.303 482.069 c 0
235.925 195.626 m 0
 223.419 202.27 206.429 207.778 198.798 207.665 c 0
 177.164 207.344 140.177 188.026 115.946 164.396 c 0
 95.7988 144.745 93.6709 137.942 96.7969 103.175 c 0
 99.0713 77.8887 106.117 58.3271 116.729 47.8438 c 0
 134.907 29.8828 133.924 29.6445 204.27 69.0049 c 0
 227.306 81.8945 258.982 134.387 258.982 159.673 c 0
 258.982 177.847 253.602 186.236 235.925 195.626 c 0
EndSplineSet
EndChar
StartChar: seven
Encoding: 23 55 32767
OldEncoding: 55
Width: 349
Flags: W
DStem: 82.7627 462.819 119.817 434.043 82.7627 375.732 122.843 393.906
Fore
211.32 487.487 m 0
 308.604 506.142 314.266 498.411 294.837 373.46 c 0
 287.536 326.509 275.665 261.6 268.245 228.063 c 0
 256.537 175.146 247.896 134.16 224.342 19.8115 c 0
 219.818 -2.14941 215.642 -6.69336 199.977 -6.69336 c 0
 183.592 -6.69336 181.178 -3.66406 181.872 16.0254 c 0
 182.771 41.5361 194.093 104.627 211.089 178.84 c 0
 227.045 248.51 256.451 435.043 252.156 439.344 c 0
 250.065 441.438 219.639 441.099 184.097 438.586 c 2
 119.817 434.043 l 1
 122.843 393.906 l 2
 124.497 371.945 123.642 337.997 120.952 318.937 c 0
 116.678 288.646 113.866 284.397 99.3994 286.373 c 0
 83.3418 288.566 82.7627 291.674 82.7627 375.732 c 2
 82.7627 462.819 l 1
 128.136 471.527 l 2
 153.091 476.317 190.524 483.499 211.32 487.487 c 0
EndSplineSet
EndChar
StartChar: eight
Encoding: 24 56 32767
OldEncoding: 56
Width: 397
Flags: W
Fore
180.287 476.8 m 0
 183.005 481.493 204.209 485.349 227.306 485.349 c 0
 276.799 485.349 318.677 462.522 337.093 425.507 c 0
 359.9 379.665 355.163 369.651 274.324 292.815 c 0
 210.809 232.444 211.382 235.381 252.795 182.72 c 0
 311.283 108.345 313.812 38.5605 259.477 -1.61523 c 0
 220.119 -30.7158 185.92 -19.8877 130.887 39.0986 c 0
 106.162 65.6006 85.4258 95.626 85.4258 104.925 c 0
 85.4258 114.198 96.8379 145.104 110.363 172.461 c 0
 136.568 225.464 136.568 225.464 99.8955 273.337 c 0
 67.9707 315.013 62.5547 361.391 84.4229 405.845 c 0
 102.506 442.604 133.088 468.251 158.84 468.251 c 0
 167.914 468.251 177.565 472.098 180.287 476.8 c 0
281.748 424.506 m 0
 247.104 450.777 223.811 456.075 200.909 442.89 c 0
 194.083 438.959 177.812 430.647 164.614 424.348 c 0
 138.088 411.688 122.224 390.456 114.377 357.116 c 0
 110.59 341.024 115.971 326.768 136.156 299.411 c 0
 150.664 279.749 165.425 263.079 168.326 263.079 c 0
 171.242 263.079 195.136 282.576 220.707 305.823 c 0
 246.278 329.069 278.637 354.431 291.647 361.422 c 0
 324.488 379.07 322.168 393.855 281.748 424.506 c 0
210.435 162.202 m 0
 183.744 192.278 173.136 192.123 152.089 161.348 c 0
 127.534 125.442 130.347 97.1152 161.849 63.0361 c 0
 197.409 24.5664 220.354 18.2158 242.154 40.8086 c 0
 270.797 70.4932 262.023 104.07 210.435 162.202 c 0
EndSplineSet
EndChar
StartChar: nine
Encoding: 25 57 32767
OldEncoding: 57
Width: 367
Flags: W
Fore
200.351 476.114 m 0
 242.194 491.367 249.535 491.913 277.431 481.848 c 0
 311.855 469.427 322.751 439.316 311.439 387.864 c 0
 306.463 365.226 299.417 326.857 295.783 302.602 c 0
 287.524 247.475 284.561 49.9766 291.734 32.8486 c 0
 301.585 9.32715 290.515 -17.1328 270.824 -17.1328 c 0
 245.025 -17.1328 241.743 7.85742 247.849 157.802 c 0
 253.564 298.191 256.257 291.662 207.691 255.192 c 0
 187.386 239.944 174.656 236.519 139.42 236.817 c 0
 101.246 237.141 94.0537 239.539 78.7959 257.03 c 0
 55.5098 283.725 49.6396 309.217 59.3291 341.558 c 0
 78.9443 407.022 121.067 447.215 200.351 476.114 c 0
266.419 412.12 m 0
 266.419 442.991 266.419 442.991 239.258 443.677 c 0
 197.414 444.732 168.11 433.991 143.142 408.445 c 0
 95.7275 359.934 81.624 291.083 115.929 275.593 c 0
 140.494 264.501 181.264 277.054 217.234 306.785 c 0
 249.651 333.579 266.419 369.488 266.419 412.12 c 0
EndSplineSet
EndChar
StartChar: colon
Encoding: 26 58 32767
OldEncoding: 58
Width: 319
Flags: W
Fore
132.8 95.6953 m 0
 150.515 114.541 170.141 110.503 178.596 86.2715 c 0
 184.267 70.0166 184.512 64.2744 179.964 54.1152 c 0
 176.944 47.3691 172.506 34.6797 170.198 26.1982 c 0
 159.185 -14.2783 130.331 -9.13867 118.622 35.3857 c 0
 111.082 64.0557 113.757 75.4346 132.8 95.6953 c 0
127.485 402.584 m 0
 140.754 417.271 151.843 415.114 168.671 394.577 c 0
 180.108 380.62 183.285 371.442 183.285 352.36 c 0
 183.285 332.571 181.617 327.978 174.429 327.978 c 0
 169.114 327.978 163.8 320.91 161.143 310.309 c 0
 157.747 296.763 153.614 292.641 143.429 292.641 c 0
 132.8 292.641 127.796 298.294 118.407 320.91 c 0
 107.845 346.353 107.247 351.335 112.429 370.735 c 0
 115.638 382.75 122.302 396.847 127.485 402.584 c 0
EndSplineSet
EndChar
StartChar: semicolon
Encoding: 27 59 32767
OldEncoding: 59
Width: 292
Flags: W
Fore
160.329 100.143 m 0
 172.586 112.031 186.434 108.831 188.683 93.5889 c 0
 190.827 79.0576 129.336 -70.25 119.1 -75.3643 c 0
 108.515 -80.6533 95.1426 -72.3281 95.1426 -60.4492 c 0
 95.1426 -44.4639 149.627 89.7617 160.329 100.143 c 0
145.843 342 m 0
 173.143 350.296 175.425 350.169 185.4 339.8 c 0
 198.614 326.063 201.731 281.051 191.329 254.167 c 0
 183.252 233.291 180.943 231.922 159.771 235.462 c 0
 132.472 240.026 117.429 260.61 117.429 293.403 c 0
 117.429 324.646 123.628 335.25 145.843 342 c 0
EndSplineSet
EndChar
StartChar: less
Encoding: 28 60 32767
OldEncoding: 60
Width: 433
Flags: W
DStem: 258.701 462.889 256.071 393.795 134.659 350.41 170.601 313.292
Fore
258.701 462.889 m 0
 316.559 515.914 338.997 524.672 348.458 497.918 c 0
 352.497 486.495 345.486 474.078 325.324 456.943 c 0
 309.603 443.582 277.987 414.754 256.071 393.795 c 0
 234.147 372.828 195.146 336.094 170.601 313.292 c 0
 146.055 290.49 125.454 263.875 125.454 254.964 c 0
 125.454 233.892 234.155 108.703 278.863 78.2861 c 0
 298.149 65.166 321.029 45.5371 329.708 34.666 c 0
 344.332 16.3486 344.461 13.7734 331.461 -0.523438 c 0
 314.805 -18.8418 304.329 -20.2695 296.104 -5.34375 c 0
 292.868 0.526367 268.344 20.6064 241.169 39.6357 c 0
 153.507 101.018 49.6963 230.534 59.3057 266.533 c 0
 62.4395 278.272 96.0879 315.727 134.659 350.41 c 0
 173.23 385.094 228.62 435.32 258.701 462.889 c 0
EndSplineSet
EndChar
StartChar: equal
Encoding: 29 61 32767
OldEncoding: 61
Width: 409
Flags: W
Fore
137.696 203.16 m 0
 168.288 209.944 298.263 208.774 309.175 201.617 c 0
 342.151 179.985 269.727 158.842 162.653 158.842 c 0
 91.0029 158.842 85.3672 160.055 85.3672 175.474 c 0
 85.3672 185.822 92.21 193.519 103.48 195.848 c 0
 113.142 197.843 129.108 201.256 137.696 203.16 c 0
154.2 315.595 m 0
 189.623 319.967 234.38 322.938 254.431 322.247 c 0
 285.022 321.194 290.658 318.413 290.658 304.368 c 0
 290.658 285.114 268.921 279.328 165.068 270.941 c 0
 97.4434 265.479 94.833 265.915 89.3926 283.579 c 0
 86.3184 293.558 85.2207 303.196 86.9775 304.784 c 0
 88.7598 306.396 118.777 311.223 154.2 315.595 c 0
EndSplineSet
EndChar
StartChar: greater
Encoding: 30 62 32767
OldEncoding: 62
Width: 472
Flags: W
Fore
113.282 462.425 m 0
 120.408 464.288 127.86 466.387 129.118 466.885 c 0
 133.419 468.589 172.664 441.329 193.25 422.339 c 0
 227.559 390.687 286.677 343.5 326.265 316.169 c 0
 346.85 301.957 370.881 281.55 378.696 271.645 c 0
 397.034 248.4 398.426 251.071 296.128 113.157 c 0
 252.608 54.4863 214.893 0.311523 212.314 -7.23145 c 0
 206.584 -23.9951 173.128 -32.2979 158.412 -20.6084 c 0
 148.817 -12.9863 149.455 -8.375 163.163 13.7217 c 0
 171.672 27.4375 183.761 41.1143 189.291 43.2832 c 0
 198.933 47.0635 213.253 66.6777 299.277 193.925 c 0
 315.246 217.546 328.64 242.222 328.64 248.023 c 0
 328.64 253.916 291.427 285.337 245.506 318.219 c 0
 110.907 414.598 75.9912 452.678 113.282 462.425 c 0
EndSplineSet
EndChar
StartChar: question
Encoding: 31 63 32767
OldEncoding: 63
Width: 502
Flags: W
Fore
215.055 65.2012 m 4
 218.406 72.5703 225.488 79.2021 230.006 79.2021 c 4
 239.203 79.2021 282.126 50.0732 282.126 43.832 c 4
 282.126 41.7725 276.445 29.0938 269.249 15.0938 c 4
 255.236 -12.1709 231.757 -23.2852 217.743 -9.28516 c 4
 207.236 1.21094 205.673 44.5684 215.055 65.2012 c 4
193.218 650.942 m 4
 237.978 675.79 270.403 674.282 307.266 645.637 c 4
 328.474 629.156 341.884 611.236 352.859 584.709 c 4
 382.925 512.034 368.119 459.437 288.341 355.536 c 6
 260.052 318.691 l 5
 261.474 259.74 l 6
 263.144 190.473 255.924 172.126 233.686 189.132 c 4
 221.347 198.569 219.021 308.375 230.458 341.535 c 4
 234.939 354.528 252.08 376.978 268.636 391.536 c 4
 320.143 436.827 345.415 520.542 323.396 572.917 c 4
 314.77 593.433 281.513 622.787 259.438 629.366 c 4
 226.327 639.237 147.229 578.668 147.229 543.442 c 4
 147.229 525.757 180.672 465.46 193.829 459.423 c 4
 205.743 453.956 223.706 465.332 235.744 485.964 c 4
 249.071 508.809 247.901 513.967 229.394 513.967 c 4
 208.158 513.967 211.611 537.005 234.3 546.69 c 4
 247.175 552.188 253.579 550.787 263.116 540.39 c 4
 289.186 511.97 267.41 444.582 229.394 436.029 c 4
 201.093 429.661 183.406 436.202 152.748 464.378 c 4
 120.249 494.244 106.288 535.654 117.642 568.496 c 4
 128.219 599.089 157.653 631.199 193.218 650.942 c 4
EndSplineSet
EndChar
StartChar: at
Encoding: 32 64 32767
OldEncoding: 64
Width: 559
Flags: W
Fore
243.794 489.095 m 0
 286.636 501.519 360.384 503.798 380.445 493.317 c 0
 407.716 479.07 446.497 433.857 458.909 401.839 c 0
 473.72 363.636 469.402 270.856 450.783 227.196 c 0
 437.129 195.179 436.871 197.664 454.311 193.221 c 0
 474.784 188.005 472.941 167.526 446.302 104.219 c 0
 423.031 48.915 385.354 6.44727 344.989 -9.9707 c 0
 325.895 -17.7383 239.362 -19.5322 205.384 -12.8652 c 0
 175.099 -6.92285 107.627 37.5811 102.896 54.7363 c 0
 100.286 64.1963 96.0303 71.4727 93.1084 71.4727 c 0
 79.5781 71.4727 62.1572 165.344 63.2617 232.29 c 0
 64.6426 315.973 78.3965 356.698 124.942 414.938 c 0
 159.156 457.746 179.531 470.458 243.794 489.095 c 0
370.843 449.711 m 0
 318.506 479.66 296.238 478.147 218.68 439.374 c 0
 168.948 414.513 156.628 401.111 128.644 341.441 c 0
 109.714 301.079 107.143 287.594 107.143 228.651 c 0
 107.143 166.071 111.052 143.492 130.828 91.8477 c 0
 143.307 59.2627 200.952 27.8828 257.828 22.7148 c 0
 302.147 18.6875 308.455 19.9756 339.819 39.4551 c 0
 367.662 56.7471 378.398 70.0176 399.281 112.95 c 0
 413.438 142.058 424.765 167.284 424.765 169.71 c 0
 424.765 172.181 416.27 167.602 405.19 159.158 c 0
 393.343 150.129 374.536 144.241 357.547 144.241 c 0
 334.648 144.241 326.688 148.128 314.335 165.344 c 0
 305.981 176.986 299.193 190.034 299.193 194.45 c 0
 299.193 208.654 288.067 202.455 273.072 179.897 c 0
 256.142 154.429 226.805 136.964 200.952 136.964 c 0
 155.18 136.964 131.001 211.188 157.573 270.129 c 0
 174.304 307.241 245.981 384.375 263.737 384.375 c 0
 284.657 384.375 325.143 351.629 339.311 323.25 c 0
 351.491 298.852 352.049 291.231 344.055 258.486 c 0
 334.461 219.191 341.511 180.625 358.285 180.625 c 0
 368.627 180.625 402.604 214.098 402.604 224.285 c 0
 402.604 228.204 407.037 231.562 412.207 231.562 c 0
 425.421 231.562 438.14 315.973 429.86 348.719 c 0
 409.808 428.035 410.354 427.101 370.843 449.711 c 0
296.977 331.618 m 0
 283.682 340.549 267.229 347.991 260.783 347.991 c 0
 244.219 347.991 203.168 306.513 203.168 289.776 c 0
 203.168 282.5 200.019 274.03 196.52 271.896 c 0
 186.907 266.034 180.165 225.741 185.388 205.366 c 0
 191.356 182.08 238.44 158.674 248.331 174.075 c 0
 252.07 179.897 254.874 189.721 254.874 196.997 c 0
 254.874 204.274 258.039 209.731 262.26 209.731 c 0
 266.446 209.731 269.646 219.191 269.646 231.562 c 0
 269.646 243.933 272.688 258.911 276.664 266.127 c 0
 280.674 273.403 285.264 284.319 287.375 291.596 c 0
 289.406 298.6 297.716 304.33 305.841 304.33 c 0
 327.786 304.33 325.046 312.765 296.977 331.618 c 0
EndSplineSet
EndChar
StartChar: A
Encoding: 33 65 32767
OldEncoding: 65
Width: 586
Flags: W
Fore
346.921 606.045 m 0
 358.269 613.824 361.39 613.712 375.008 605.029 c 0
 387.434 597.106 435.775 440.836 436.089 407.578 c 0
 436.198 395.95 442.479 364.94 449.907 339.358 c 0
 457.336 313.775 466.621 272.107 470.335 247.688 c 0
 474.056 223.22 487.488 169.66 499.954 129.581 c 0
 525.947 46.0117 521.283 26.8916 480.548 50.0195 c 0
 463.677 59.5986 455.983 72.0205 451.609 96.75 c 0
 448.367 115.081 438.863 159.001 430.757 193.111 c 2
 415.862 255.788 l 1
 377.136 250.672 l 2
 355.851 247.859 313.301 243.251 282.66 240.438 c 2
 226.911 235.322 l 1
 203.715 191.832 l 2
 162.779 115.084 132.729 54.5762 117.317 17.8701 c 0
 101.565 -19.6504 87.8936 -30.251 66.0469 -21.8828 c 0
 48.4932 -15.1582 49.9678 4.22656 69.9814 29.8096 c 0
 79.3203 41.748 87.3252 58.8682 87.3252 66.9043 c 0
 87.3252 75.4316 92.0674 83.6543 98.3906 86.0908 c 0
 104.495 88.4434 114.797 106.983 121.371 127.449 c 0
 127.945 147.915 139.853 172.189 147.934 181.599 c 0
 162.465 198.519 172.984 222.531 224.518 356.413 c 0
 257.014 440.836 333.516 596.855 346.921 606.045 c 0
377.136 445.1 m 0
 369.312 478.356 359.322 506.051 354.581 507.635 c 0
 347.209 510.097 286.738 387.112 257.584 310.364 c 2
 248.189 285.635 l 1
 311.173 290.807 l 2
 402.244 298.286 403.817 299.302 396.937 346.18 c 0
 393.729 368.035 384.96 411.842 377.136 445.1 c 0
EndSplineSet
EndChar
StartChar: B
Encoding: 34 66 32767
OldEncoding: 66
Width: 520
Flags: W
Fore
178.609 611.929 m 0
 203.369 618.218 258.237 623.792 300.104 624.271 c 0
 370.702 625.081 377.962 623.533 396.561 603.715 c 0
 407.232 592.343 416.673 574.892 416.673 566.537 c 0
 416.673 530.023 396.971 478.185 366.803 435.321 c 0
 331.093 384.585 329.513 380.211 346.896 380.211 c 0
 368.239 380.211 423.63 346.172 436.575 325.1 c 0
 458.382 289.605 462.006 210.505 444.351 155.395 c 0
 415.204 64.418 333.406 -8.3584 284.506 13.1797 c 0
 267.268 20.7734 254.953 20.9062 235.252 13.7139 c 0
 178.317 -7.07129 171.889 4.93359 161.717 151.021 c 0
 157.453 212.255 150.481 291.562 146.184 327.725 c 0
 141.93 363.511 135.772 426.136 132.638 465.501 c 2
 126.892 537.67 l 1
 95.6973 537.67 l 2
 62.8613 537.67 47.6455 550.323 62.04 565.662 c 0
 73.9678 578.372 122.787 597.749 178.609 611.929 c 0
362.492 567.412 m 0
 350.042 580.679 304.208 584.191 252.491 575.841 c 0
 172.862 562.984 178.609 567.519 178.609 517.55 c 0
 178.609 492.312 182.812 441.882 188.05 404.267 c 0
 196.211 345.657 199.714 336.472 213.908 336.472 c 0
 236.982 336.472 327.83 441.444 353.965 498.305 c 0
 378.895 552.541 378.609 550.237 362.492 567.412 c 0
385.479 310.68 m 0
 358.226 333.732 313.238 332.053 256.596 305.868 c 0
 242.64 299.416 225.209 292.02 216.371 288.797 c 0
 201.858 283.507 201.129 276.113 205.877 182.513 c 0
 211.911 63.5439 216.143 56.3994 282.044 53.9082 c 0
 328.015 52.1719 328.015 52.1719 367.008 97.2227 c 0
 398.051 133.088 407.06 150.655 411.194 183.387 c 0
 418.819 243.746 409.383 290.459 385.479 310.68 c 0
EndSplineSet
EndChar
StartChar: C
Encoding: 35 67 32767
OldEncoding: 67
Width: 577
Flags: W
Fore
303.176 633.808 m 0
 352.364 646.636 372.919 646.045 405.945 630.856 c 0
 434.054 617.931 455.135 590.819 455.135 567.597 c 0
 455.135 549.439 420.564 556.953 410.62 577.273 c 0
 401.973 594.942 395.405 596.789 360.27 591.434 c 0
 307.567 583.401 230.763 542.722 196.517 504.703 c 0
 162.122 466.519 147.308 403.106 144.074 280.222 c 0
 142.012 201.847 144.666 177.041 158.672 143.791 c 0
 178.643 96.3789 220.565 63.4814 261.014 63.4814 c 0
 288.243 63.4814 351.267 92.7832 371.688 114.939 c 0
 377.579 121.33 395.405 139.181 412.094 155.402 c 0
 428.307 171.16 451.832 199.911 463.556 218.296 c 0
 498.11 272.481 516.621 281.257 516.621 243.453 c 0
 516.621 218.712 463.04 135.941 416.486 88.7676 c 0
 296.432 -32.8848 175.542 -16.8291 104.188 130.245 c 0
 90.751 157.939 96.2861 405.041 111.557 459.227 c 0
 132.782 534.544 217.095 611.359 303.176 633.808 c 0
EndSplineSet
EndChar
StartChar: D
Encoding: 36 68 32767
OldEncoding: 68
Width: 679
Flags: W
Fore
176.77 620.454 m 0
 279.27 630.74 308.283 630.684 368.577 620.076 c 0
 587.787 581.512 643.329 513.455 611.571 322.326 c 0
 587.163 175.425 461.056 31.6201 328.998 0.0976562 c 0
 306.671 -5.23145 294.62 -15.876 290.434 -33.9648 c 0
 286.12 -52.6016 277.24 -60.2754 259.987 -60.2754 c 0
 246.794 -60.2754 235.631 -55.7529 235.631 -50.4092 c 0
 235.631 -44.9824 226.497 -38.0293 215.334 -34.958 c 0
 190.978 -28.2559 187.319 13.6357 210.26 23.1494 c 0
 228.41 30.6768 230.3 108.552 214.726 207.217 c 0
 208.899 244.131 198.487 335.481 191.484 411.125 c 2
 178.799 548.16 l 1
 149.875 545.968 l 2
 133.638 544.736 110.491 532.956 97.1025 519.108 c 0
 75.79 497.066 71.5264 496.309 57.0156 511.982 c 0
 43.8711 526.182 43.001 533.908 52.4492 552.545 c 0
 59.1182 565.7 68.9043 575.566 75.2832 575.566 c 0
 81.6621 575.566 91.8838 583.789 99.1328 594.752 c 0
 107.854 607.941 132.115 615.974 176.77 620.454 c 0
417.799 548.16 m 0
 371.115 557.111 309.848 564.604 283.329 564.604 c 0
 226.7 564.604 227.791 570.086 250.615 400.162 c 0
 259.156 336.578 270.393 252.911 275.718 213.246 c 0
 281.017 173.78 282.617 123.172 279.27 100.878 c 2
 273.181 60.3154 l 1
 315.805 60.3154 l 2
 364.986 60.3154 414.298 91.0107 476.066 160.077 c 0
 535.021 225.996 561.16 294.919 562.96 389.199 c 0
 564.341 461.554 562.302 469.312 534 499.375 c 0
 509.139 525.783 487.823 534.732 417.799 548.16 c 0
EndSplineSet
EndChar
StartChar: E
Encoding: 37 69 32767
OldEncoding: 69
Width: 460
Flags: W
Fore
226.567 620.413 m 0
 310.125 636.524 384.886 630.056 384.886 606.715 c 0
 384.886 599.666 354.102 589.734 308.365 582.028 c 0
 225.688 568.098 143.938 538.822 118.384 513.992 c 0
 106.789 502.727 103.729 489.273 106.949 463.721 c 0
 109.376 444.473 113.91 396.893 117.064 357.581 c 0
 122.032 295.667 124.626 287.445 136.854 294.84 c 0
 153.095 304.66 289.016 337.046 322.438 339.059 c 0
 336.511 339.906 345.593 334.015 347.665 322.693 c 0
 351.573 301.346 329.475 291.396 213.375 262.233 c 0
 128.938 241.023 125.438 239.098 125.86 214.097 c 0
 126.104 199.586 127.079 157.587 128.059 119.259 c 2
 129.817 50.4639 l 1
 170.277 50.4639 l 2
 218.594 50.4639 303.968 73.7119 353.223 100.28 c 0
 384.886 117.36 389.724 117.784 401.598 104.517 c 0
 423.106 80.4824 405.115 60.8232 332.113 28.5918 c 0
 247.677 -8.6875 115.375 -21.1514 94.8447 6.23926 c 0
 86.1719 17.8105 80.1592 65.6973 75.2861 162.009 c 0
 71.4072 238.666 63.7109 348.703 58.1348 407.212 c 0
 49.9873 492.713 50.2432 518.033 59.4541 537.43 c 0
 65.5215 550.205 76.668 561.507 83.2021 561.507 c 0
 89.8965 561.507 116.185 573.167 140.812 587.06 c 0
 165.439 600.952 204.57 616.172 226.567 620.413 c 0
EndSplineSet
EndChar
StartChar: F
Encoding: 38 70 32767
OldEncoding: 70
Width: 478
Flags: W
Fore
299.178 616.461 m 0
 306.717 621.722 336.527 625.995 365.678 625.995 c 0
 405.761 625.995 419.843 622.313 424.02 610.74 c 0
 431.825 589.116 418.514 580.287 362.945 570.229 c 0
 335.46 565.255 276.859 553.844 233.134 544.952 c 2
 153.425 528.743 l 1
 153.425 465.338 l 2
 153.425 430.061 155.85 386.495 158.891 367.132 c 2
 164.356 332.331 l 1
 215.37 338.482 l 2
 294.623 348.039 365.309 346.088 369.158 334.238 c 0
 373.913 319.6 317.397 297.357 238.144 282.676 c 2
 171.644 270.356 l 1
 177.53 144.5 l 2
 183.729 11.9697 180.493 -1.05469 144.315 10.7783 c 0
 128.74 15.8721 126.096 25.3184 126.096 75.8516 c 0
 126.096 108.538 119.987 171.197 112.432 216.01 c 0
 104.582 262.566 98.7676 354.261 98.7676 431.49 c 2
 98.7676 565.928 l 1
 156.157 586.427 l 2
 188.041 597.815 229.54 606.927 249.531 606.927 c 0
 269.572 606.927 291.567 611.15 299.178 616.461 c 0
EndSplineSet
EndChar
StartChar: G
Encoding: 39 71 32767
OldEncoding: 71
Width: 556
Flags: W
Fore
352.484 590.285 m 0
 363.965 611.207 430.376 607.737 456.252 584.863 c 0
 475.752 567.627 476.979 562.265 466.887 538.396 c 0
 453.285 506.225 435.878 503.857 428.726 533.207 c 0
 424.483 550.615 418.876 552.907 393.958 547.419 c 0
 305.208 527.872 219.535 450.184 159.696 334.989 c 0
 127.884 273.746 124.656 260.269 124.656 188.66 c 0
 124.656 84.8818 139.091 54.7861 188.867 54.7861 c 0
 241.577 54.7861 284.59 77.3389 319.496 123.28 c 0
 357.346 173.094 386.855 240.099 381.197 263.382 c 0
 375.648 286.213 349.836 297.589 336.456 283.1 c 0
 324.292 269.928 281.829 269.796 250.202 282.832 c 0
 216.451 296.743 217.618 332.547 252.119 341.651 c 0
 266.495 345.445 280.502 352.632 283.635 357.82 c 0
 293.528 374.205 414.084 355.777 439.96 333.925 c 0
 466.352 311.638 481.513 232.248 486.133 92.1465 c 0
 488.357 24.6895 486.035 8.22949 473.023 -0.736328 c 0
 461.523 -8.66113 453.028 -7.95312 441.877 1.8584 c 0
 430 12.3086 426.543 35.5869 426.543 105.118 c 2
 426.543 194.888 l 1
 401.139 153.376 l 2
 321.75 23.6523 210.647 -35.2021 130.406 9.96094 c 0
 102.454 25.6943 93.9883 39.2188 79.6123 91.1084 c 0
 65.1973 143.14 63.918 165.829 71.8271 229.135 c 0
 82.46 314.233 94.8916 345.207 152.222 429.428 c 0
 194.607 491.695 256.383 544.033 311.538 564.405 c 0
 329.747 571.131 348.466 582.962 352.484 590.285 c 0
287.579 1258.62 m 0
 284.293 1264.55 286.142 1269 291.892 1269 c 0
 297.642 1269 301.955 1264.55 301.955 1258.62 c 0
 301.955 1252.4 300.229 1248.24 297.642 1248.24 c 0
 295.055 1248.24 291.029 1252.4 287.579 1258.62 c 0
EndSplineSet
EndChar
StartChar: H
Encoding: 40 72 32767
OldEncoding: 72
Width: 529
Flags: W
Fore
75.9258 635.56 m 0
 82.3154 651.226 93.4697 664.094 100.659 664.094 c 0
 110.578 664.094 116.93 623.251 126.848 495.688 c 0
 138.072 351.339 142.021 328.301 154.492 334.423 c 0
 172.133 343.083 243.728 368.002 320.354 392.152 c 0
 349.453 401.324 378.552 413.544 384.371 419.037 c 0
 390.299 424.632 397.867 455.964 401.4 489.533 c 0
 409.41 565.623 416.199 585.765 433.839 585.765 c 0
 457.18 585.765 462.424 541.006 464.649 322.805 c 0
 465.848 205.312 469.204 94.6797 472.152 75.5098 c 0
 476.282 48.6543 473.545 39.0986 460.027 33.1924 c 0
 422.624 16.8477 412.6 52.0117 409.043 212.025 c 0
 407.202 294.83 401.584 361.969 396.495 361.969 c 0
 391.484 361.969 362.062 349.719 331.993 335.113 c 0
 301.545 320.323 246.638 296.695 209.779 282.521 c 2
 142.853 256.785 l 1
 147.578 113.556 l 2
 152.304 -29.6738 146.364 -61.5684 118.604 -42.0527 c 0
 96.2061 -26.3076 88.8398 37.4648 76.5869 321.686 c 0
 67.2285 538.768 67.0703 613.852 75.9258 635.56 c 0
EndSplineSet
EndChar
StartChar: I
Encoding: 41 73 32767
OldEncoding: 73
Width: 466
Flags: W
Fore
238.85 614.851 m 0
 255.765 621.1 344.421 620.18 360.074 613.594 c 0
 367.987 610.264 375.109 598.014 375.109 587.732 c 0
 375.109 569.153 361.014 562.301 309.329 555.753 c 2
 285.836 552.777 l 1
 287.245 413.982 l 2
 288.018 337.902 291.627 231.983 295.232 179.573 c 0
 300.608 101.437 304.044 86 314.027 95.127 c 0
 333.979 113.366 370.411 103.493 370.411 79.8467 c 0
 370.411 57.3359 343.159 40.7734 245.428 3.88477 c 0
 190.923 -16.6885 177.101 -18.292 142.527 -8.05664 c 0
 112.456 0.844727 102.589 8.71875 102.589 23.8145 c 0
 102.589 39.8525 108.697 43.8623 133.13 43.8623 c 0
 149.658 43.8623 181.996 52.1172 203.609 61.8545 c 2
 243.548 79.8467 l 1
 236.5 228.922 l 2
 232.611 311.171 229.452 416.251 229.452 463.331 c 2
 229.452 548.664 l 1
 205.959 541.996 l 2
 135.479 521.989 72.5 529.355 87.4092 555.861 c 0
 90.5996 561.533 123.732 576.281 161.322 588.761 c 0
 198.911 601.24 233.665 612.936 238.85 614.851 c 0
EndSplineSet
EndChar
StartChar: J
Encoding: 42 74 32767
OldEncoding: 74
Width: 547
Flags: W
Fore
432.865 620.037 m 0
 450.045 624.647 465.592 628.644 468.741 629.258 c 0
 471.667 629.829 483.395 623.242 493.501 615.353 c 0
 520.787 594.052 505.628 580.189 432.865 559.902 c 0
 400.525 550.886 370.399 540.885 365.66 537.593 c 0
 360.921 534.302 357.872 489.32 358.858 437.25 c 0
 360.749 337.449 342.801 130.547 326.674 66.252 c 0
 312.798 10.9277 279.163 -42.2266 258.031 -42.2266 c 0
 230.745 -42.2266 185.268 -17.1416 185.268 -2.08984 c 0
 185.268 4.91992 179.204 14.8652 172.13 19.459 c 0
 151.747 32.6943 86.54 154.12 79.4258 192.088 c 0
 71.9053 232.225 90.4873 254.575 126.653 248.894 c 0
 147.215 245.664 150.13 238.733 151.918 188.833 c 0
 153.473 145.441 160.924 121.409 184.206 84.6934 c 0
 227.543 16.3516 239.571 7.84668 259.379 31.5391 c 0
 281.948 58.5342 306.54 246.327 306.54 391.689 c 0
 306.54 531.509 315.636 525.221 167.077 488.104 c 0
 87.2402 468.157 70.6445 466.793 63.0771 479.557 c 0
 38.6709 520.725 54.9004 528.402 281.275 582.773 c 0
 347.975 598.794 416.19 615.562 432.865 620.037 c 0
EndSplineSet
EndChar
StartChar: K
Encoding: 43 75 32767
OldEncoding: 75
Width: 619
Flags: W
Fore
76.7607 647.094 m 0
 83.5635 666.479 109.841 661.623 121.688 638.791 c 0
 127.357 627.863 132.14 580.675 132.415 532.937 c 0
 132.69 485.198 136.015 426.907 139.871 402.175 c 2
 146.83 357.55 l 1
 224.866 441.092 l 2
 267.52 486.755 308.536 524.635 315.328 524.635 c 0
 322.162 524.635 335.807 533.975 345.647 545.39 c 0
 355.489 556.806 369.357 566.146 376.465 566.146 c 0
 383.734 566.146 396.347 573.41 405.293 582.751 c 0
 426.926 605.334 464.336 597.279 467.954 569.26 c 0
 470.346 550.747 463.944 544.424 434.122 535.835 c 0
 381.436 520.662 152.44 289.364 172.676 271.76 c 0
 174.878 269.844 234.31 236.815 305.884 197.73 c 0
 377.459 158.646 446.869 118.595 461.46 107.962 c 0
 476.371 97.0938 493.411 88.7627 500.726 88.7627 c 0
 519.614 88.7627 579.26 36.7412 579.259 20.2686 c 0
 579.259 11.9658 575.851 5.73926 571.307 5.73926 c 0
 550.625 5.73926 454.998 40.2891 422.193 59.6133 c 0
 352.606 100.604 171.782 192.541 160.747 192.541 c 0
 153.302 192.541 151.577 176.975 155.343 143.766 c 0
 175.816 -36.8105 173.339 -60.2568 134.9 -49.667 c 0
 109.807 -42.7539 105.481 -22.2812 90.9727 158.295 c 0
 79.0488 306.698 69.7334 627.068 76.7607 647.094 c 0
EndSplineSet
EndChar
StartChar: L
Encoding: 44 76 32767
OldEncoding: 76
Width: 562
Flags: W
Fore
77.8877 618.506 m 0
 86.6895 634.009 104.375 623.633 116.334 595.948 c 0
 122.229 582.302 131.689 470.855 137.571 345.763 c 0
 151.554 48.4111 150.656 53.5381 188.772 53.5381 c 0
 213.954 53.5381 374.196 90.3408 475.337 119.354 c 0
 492.194 124.188 503.72 121.132 512.797 109.42 c 0
 524.197 94.708 523.098 90.1826 504.368 74.7236 c 0
 469.76 46.1582 251.517 -7.9834 170.979 -7.9834 c 0
 98.2197 -7.9834 100.122 -15.1602 85.6406 313.977 c 0
 78.5127 475.982 75.0127 613.443 77.8877 618.506 c 0
EndSplineSet
EndChar
StartChar: M
Encoding: 45 77 32767
OldEncoding: 77
Width: 577
Flags: W
Fore
65.7891 626.399 m 0
 71.998 634.704 85.0918 641.349 95.251 641.349 c 0
 109.123 641.349 120.158 618.094 140.967 545.01 c 0
 174.071 428.739 222.625 320.22 241.542 320.22 c 0
 259.803 320.22 322.707 427.632 398.479 588.196 c 0
 417.291 628.061 455.111 649.076 475.201 630.828 c 0
 498.587 609.586 503.046 564.941 505.445 327.971 c 0
 506.981 176.266 512.123 88.9668 521.425 56.6729 c 0
 530.993 23.4521 531.762 5.375 523.965 -3.12402 c 0
 509.742 -18.626 474.904 -5.33789 465.902 19.0234 c 0
 462.064 29.4092 455.531 145.813 451.327 278.694 c 0
 447.123 411.575 440.976 522.52 437.612 526.185 c 0
 434.277 529.82 419.875 506.253 405.808 474.14 c 0
 379.627 414.374 374.503 404.378 332.022 330.186 c 0
 309.197 290.321 256.692 253.779 222.239 253.779 c 0
 213.137 253.779 188.328 284.231 165.856 322.988 c 2
 125.728 392.196 l 1
 125.264 187.339 l 2
 124.808 -14.1973 118.57 -56.2764 89.1553 -56.2764 c 0
 63.168 -56.2764 58.3613 -4.23047 56.5283 296.966 c 0
 55.1875 517.326 57.959 615.924 65.7891 626.399 c 0
EndSplineSet
EndChar
StartChar: N
Encoding: 46 78 32767
OldEncoding: 78
Width: 658
Flags: W
Fore
81.3096 604.002 m 0
 89.6631 624.294 118.294 629.866 140.161 615.456 c 0
 153.972 606.354 248.347 472.266 248.347 461.744 c 0
 248.347 458.002 265.604 428.438 286.901 395.696 c 0
 308.199 362.954 352.504 283.357 385.88 217.874 c 0
 419.257 152.39 457.121 87.9541 470.472 73.9219 c 0
 491.956 51.3418 495.792 50.5264 504.999 66.584 c 0
 510.71 76.542 520.321 163.681 526.419 260.776 c 0
 543.579 534.002 548.396 561.542 579.809 566.008 c 0
 616.918 571.283 621.572 547.551 606.674 429.002 c 0
 599.454 371.559 588.815 258.519 582.872 176.1 c 0
 569.928 -3.41602 561.098 -24.8193 503.849 -15.459 c 0
 445.31 -5.88867 401.899 40.6162 345.059 154.648 c 0
 318.045 208.842 290.825 259.904 285.176 266.986 c 0
 279.421 274.2 271.492 293.519 267.336 310.454 c 0
 263.209 327.272 239.992 370.293 215.545 406.422 c 0
 191.099 442.551 165.878 481.521 159.284 493.357 c 0
 144.378 520.114 127.061 247.229 138.793 170.454 c 0
 147.419 114.003 127.914 26.3105 106.784 26.5488 c 0
 62.3662 27.0488 60.9785 37.2285 67.3086 316.1 c 0
 70.666 464.002 76.96 593.438 81.3096 604.002 c 0
EndSplineSet
EndChar
StartChar: O
Encoding: 47 79 32767
OldEncoding: 79
Width: 520
Flags: W
Fore
320.268 582.466 m 0
 331.42 601.053 384.777 594.114 414.005 570.276 c 0
 504.208 496.707 505.121 284.745 416.021 102.444 c 0
 390.715 50.667 357.576 10.7549 339.893 10.7549 c 0
 332.585 10.7549 325.626 5.58594 323.19 -1.65039 c 0
 320.863 -8.56445 290.832 -16.2041 255.341 -18.9092 c 0
 197.93 -23.2861 187.971 -20.8535 154.089 5.82422 c 0
 110.511 40.1348 70.8545 113.231 53.6826 190.898 c 0
 30.7881 294.453 82.9883 439.078 163.483 495.108 c 0
 189.579 513.272 218.409 528.531 226.636 528.531 c 0
 234.96 528.531 249.757 538.239 259.517 550.105 c 0
 269.276 561.971 285.482 571.679 295.529 571.679 c 0
 305.968 571.679 316.57 576.302 320.268 582.466 c 0
383.733 509.739 m 0
 365.742 521.481 325.278 517.507 263.691 497.948 c 0
 185.106 472.991 133.094 402.323 115.504 296.61 c 0
 103.838 226.495 104.667 216.247 127.117 153.144 c 0
 163.575 50.667 215.964 14.624 287.7 42.6631 c 0
 325.382 57.3916 394.522 158.537 402.302 210.314 c 0
 405.909 234.321 416.426 285.284 426.009 325.196 c 0
 442.844 395.312 442.702 398.109 419.746 449.246 c 0
 406.671 478.371 390.707 505.188 383.733 509.739 c 0
EndSplineSet
EndChar
StartChar: P
Encoding: 48 80 32767
OldEncoding: 80
Width: 517
Flags: W
Fore
241.941 636.99 m 0
 267.53 642.799 301.647 645.719 318.706 643.561 c 0
 442.554 627.896 463.604 614.981 473.814 548.403 c 0
 480.229 506.586 461.81 418.549 446.647 418.549 c 0
 440.799 418.549 436.412 411.946 436.412 403.143 c 0
 436.412 378.868 350.436 300.271 314.612 291.798 c 0
 297.212 287.683 280.341 279.82 277.254 274.389 c 0
 274.16 268.947 250.642 264.484 225.054 264.484 c 2
 178.482 264.484 l 1
 186.159 121.425 l 2
 191.946 13.5801 190.653 -25.6982 180.907 -38.1416 c 0
 159.79 -65.1025 140.957 -56.8496 135.708 -18.333 c 0
 124.61 63.1006 103.766 364.002 103.766 442.76 c 2
 103.766 527.495 l 1
 80.2236 510.988 l 2
 66.918 501.658 52.2324 497.503 46.4473 501.432 c 0
 26.8867 514.714 38.2588 542.494 82.2715 588.938 c 0
 122.188 631.061 132.833 636.808 162.106 632.039 c 0
 180.871 628.981 216.354 631.183 241.941 636.99 c 0
354.53 571.689 m 0
 297.212 584.719 297.212 584.719 223.519 569.384 c 0
 179.507 560.225 169.16 553.546 163.737 530.796 c 0
 155.345 495.581 166.595 341.093 178.482 328.312 c 0
 190.492 315.399 289.024 336.803 334.06 362.106 c 0
 354.53 373.608 371.199 391.902 372.953 404.794 c 0
 374.659 417.326 387.38 440.559 401.574 457.065 c 0
 447.433 510.396 429.248 554.704 354.53 571.689 c 0
EndSplineSet
EndChar
StartChar: Q
Encoding: 49 81 32767
OldEncoding: 81
Width: 604
Flags: W
Fore
362.674 596.72 m 0
 381.839 598.873 407.662 601.474 419.162 602.408 c 0
 446.285 604.611 477.59 568.724 499.659 510.124 c 0
 521.771 451.413 513.233 337.523 478.015 221.391 c 2
 453.458 140.417 l 1
 480.694 119.869 l 2
 555.339 63.5527 609.707 -14.0723 574.505 -14.0723 c 0
 562.771 -14.0723 527.095 4.19238 509.946 18.9785 c 0
 503.767 24.3066 481.198 40.8184 459.007 56.2471 c 2
 419.162 83.9482 l 1
 403.414 58.3779 l 2
 339.767 -44.9697 209.088 -75.0498 123.607 -6.02832 c 0
 85.1562 25.0186 39.8828 139.352 39.8828 205.408 c 0
 39.8828 279.989 60.5449 370.827 91.9854 434.479 c 0
 139.557 530.783 223.471 581.078 362.674 596.72 c 0
433.284 492.105 m 0
 407.902 517.908 394.953 522.127 335.438 523.976 c 0
 298.115 525.135 260.407 523.84 252.723 521.134 c 0
 216.409 508.349 130.668 417.537 130.668 391.86 c 0
 130.668 382.271 125.921 368.734 120.581 363.094 c 0
 114.983 357.182 107.575 311.42 103.937 260.279 c 0
 98.1758 179.306 100.103 161.005 119.809 109.52 c 0
 145.906 41.3311 174.488 17.8916 231.54 17.8916 c 0
 293.072 17.8916 371.084 68.7217 372.167 109.52 c 0
 372.505 122.237 331.403 164.044 276.933 206.389 c 0
 248.688 228.346 247.747 231.086 262.811 247.493 c 0
 277.797 263.817 282.984 262.334 335.438 226.718 c 0
 366.709 205.484 396.205 188.361 401.51 188.361 c 0
 406.7 188.361 417.957 211.802 426.069 239.503 c 0
 481.608 429.151 481.992 442.588 433.284 492.105 c 0
EndSplineSet
EndChar
StartChar: R
Encoding: 50 82 32767
OldEncoding: 82
Width: 505
Flags: W
Fore
81.8555 548.683 m 0
 102.276 570.652 120.687 588.205 123.409 588.301 c 0
 154.696 589.402 352.309 565 379.573 556.668 c 0
 449.407 535.326 450.246 450.318 381.401 371.427 c 0
 363.101 350.456 348.286 330.799 348.286 327.487 c 0
 348.286 320.799 269.09 268.568 222.159 244.306 c 0
 204.561 235.207 191.45 226.036 193.316 224.13 c 0
 195.212 222.194 225.093 211.278 260.291 199.663 c 0
 295.489 188.049 340.201 167.554 360.508 153.727 c 0
 381.04 139.746 400.614 128.61 404.994 128.419 c 0
 419.66 127.776 465.613 79.5869 465.613 64.8496 c 0
 465.613 35.1514 446.059 38.2803 375.662 79.2412 c 0
 336.554 101.998 276.443 131.606 242.691 144.739 c 2
 181.095 168.706 l 1
 184.028 76.333 l 2
 186.818 -11.5459 185.962 -16.1875 166.429 -19.0898 c 0
 143.615 -22.4785 133.187 7.92773 133.187 77.8311 c 0
 133.187 146.736 122.747 184.418 100.921 194.3 c 0
 69.6338 208.466 69.1455 236.612 99.9434 250.594 c 2
 126.342 262.577 l 1
 119.878 353.451 l 2
 111.71 468.293 105.509 492.67 88.2109 477.946 c 0
 70.8369 463.159 45.1904 472.288 45.1904 493.259 c 0
 45.1904 502.158 61.4346 526.713 81.8555 548.683 c 0
327.265 513.73 m 0
 298.652 521.651 249.047 528.211 217.76 528.211 c 2
 160.562 528.211 l 1
 165.94 485.77 l 2
 168.924 462.221 174.146 408.875 177.673 365.935 c 0
 181.199 322.993 185.334 288.541 186.961 288.541 c 0
 202.531 288.541 287.667 335.973 313.088 358.811 c 0
 343.397 386.04 394.838 483.66 384.462 494.258 c 0
 381.812 496.964 355.619 505.882 327.265 513.73 c 0
EndSplineSet
EndChar
StartChar: S
Encoding: 51 83 32767
OldEncoding: 83
Width: 460
Flags: W
Fore
187.659 570.192 m 0
 201.924 576.951 242.834 583.031 277.945 583.611 c 0
 332.116 584.506 347.398 580.448 375.754 557.644 c 0
 393.812 543.121 409.36 520.808 409.36 509.418 c 0
 409.36 483.112 404.345 483.795 365.221 515.421 c 0
 307.374 562.184 208.312 542.274 145.483 471.261 c 0
 117.351 439.464 102.044 385.853 115.827 367.39 c 0
 130.625 347.566 204.714 311.077 274.936 289.026 c 0
 379.265 256.266 419.261 201.489 396.491 122.551 c 0
 372.509 39.4082 328.104 15.082 182.644 5.40137 c 2
 111.419 0.661133 l 1
 89.2988 45.1768 l 2
 57.1719 109.831 72.7031 170.553 121.45 170.881 c 0
 142.517 171.022 144.523 136.259 124.46 118.734 c 0
 112.547 108.33 111.711 100.292 120.447 80.1543 c 0
 130.608 56.7295 137 54.7158 201.202 54.7158 c 0
 256.377 54.7158 277.62 59.6152 303.024 78.1973 c 0
 344.154 108.282 349.17 117.021 349.17 158.587 c 0
 349.17 190.729 344.656 195.67 293.494 219.532 c 0
 262.396 234.037 231.176 245.5 222.771 245.5 c 0
 176.625 245.5 48.2188 354.658 48.2188 393.888 c 0
 48.2188 450.192 116.435 536.442 187.659 570.192 c 0
EndSplineSet
EndChar
StartChar: T
Encoding: 52 84 32767
OldEncoding: 84
Width: 661
Flags: W
Fore
447.6 592.029 m 0
 550.473 612.092 571.094 613.138 607.723 600.152 c 0
 664.071 580.177 635.454 546.56 562.102 546.56 c 0
 533.384 546.56 481.592 540.105 448.494 532.403 c 2
 387.665 518.247 l 1
 398.847 451.576 l 2
 405.016 414.792 414.439 313.667 419.868 225.99 c 0
 425.298 138.312 432.114 45.5811 435.076 19.127 c 0
 439.574 -21.0586 437.981 -29.7646 425.236 -34.6436 c 0
 390.771 -47.8389 380.229 -2.33594 366.755 217.771 c 0
 357.139 374.858 340.869 485.653 325.047 501.808 c 0
 316.949 510.075 301.789 510.188 263.323 502.265 c 0
 235.593 496.552 195.604 491.762 175.658 491.762 c 0
 155.083 491.762 126.021 487.964 109.462 483.112 c 0
 75.4688 473.153 36.1084 484.655 36.1084 504.548 c 0
 36.1084 521.645 55.7891 528.936 125.563 537.689 c 0
 195.625 546.479 332.203 569.525 447.6 592.029 c 0
EndSplineSet
EndChar
StartChar: U
Encoding: 53 85 32767
OldEncoding: 85
Width: 538
Flags: W
Fore
408.984 597.292 m 0
 437.091 615.349 453.027 601.887 468.744 546.81 c 0
 475.889 521.775 485.414 497.519 490.177 492.233 c 0
 494.886 487.008 498.527 450.676 498.256 411.621 c 0
 496.67 183.302 409.051 26.5654 263.746 -7.87891 c 0
 235.506 -14.5732 174.562 6.93457 147.757 33.0547 c 0
 116.924 63.1016 88.498 227.363 78.7812 431.649 c 0
 73.0176 552.818 74.3027 573.657 88.25 585.197 c 0
 114.762 607.133 121.98 591.873 128.677 499.744 c 0
 141.051 329.506 175.566 96.2471 192.097 71.1445 c 0
 213.771 38.2334 251.643 39.2383 307.116 74.1973 c 0
 369.905 113.767 402.185 166.278 427.741 270.424 c 0
 452.56 371.565 449.846 433.968 416.459 529.786 c 0
 399.362 578.854 398.096 590.297 408.984 597.292 c 0
EndSplineSet
EndChar
StartChar: V
Encoding: 54 86 32767
OldEncoding: 86
Width: 589
Flags: W
Fore
60.46 600.87 m 0
 78.2803 618.812 94.2559 612.858 107.245 583.434 c 0
 113.019 570.355 121.52 559.458 125.947 559.458 c 0
 130.427 559.458 134.065 552.374 134.065 543.655 c 0
 134.065 535.009 145.829 501.698 160.044 470.094 c 0
 174.332 438.325 202.942 363.292 223.622 303.353 c 0
 266.11 180.204 298.659 101.879 307.254 102.101 c 0
 316.25 102.333 381.99 265.209 403.879 341.496 c 0
 436.088 453.746 497.706 597.505 515.081 600.935 c 0
 523.74 602.645 537.632 596.512 544.848 587.793 c 0
 555.893 574.448 550.923 551.829 517.787 464.645 c 0
 495.42 405.795 466.261 326.038 452.841 287.005 c 0
 439.353 247.772 406.513 168.761 379.236 109.911 c 0
 339.33 23.8164 325.672 3.6543 307.254 3.6543 c 0
 272.134 3.6543 260.866 21.0918 215.708 145.33 c 0
 192.733 208.539 155.462 308.298 132.441 368.196 c 0
 109.406 428.136 90.7686 481.019 90.7686 486.44 c 0
 90.7686 491.934 81.2773 508.236 69.1982 523.494 c 0
 44.1768 555.099 41.1982 581.477 60.46 600.87 c 0
EndSplineSet
EndChar
StartChar: W
Encoding: 55 87 32767
OldEncoding: 87
Width: 697
Flags: W
Fore
582.243 467.492 m 0
 599.961 557.406 618.013 630.463 622.512 630.463 c 0
 667.594 630.463 670.139 609.006 641.658 469.024 c 0
 630.519 414.277 611.91 321.891 600.084 262.629 c 0
 588.258 203.367 574.568 142.081 569.5 125.713 c 0
 564.438 109.365 560.325 83.2568 560.325 67.4727 c 0
 560.325 14.6553 511.176 15.3633 489.332 68.4941 c 0
 482.19 85.8643 473.195 99.1475 468.573 99.1475 c 0
 464.125 99.1475 457.134 114.474 453.192 132.865 c 0
 442.465 182.932 391.288 285.852 364.589 311.056 c 2
 340.122 334.152 l 1
 316.958 274.89 l 2
 274.624 166.583 256.275 114.744 233.778 39.8848 c 0
 214.74 -23.4639 208.413 -33.6816 188.222 -33.6816 c 0
 168.683 -33.6816 162.94 -25.5078 153.771 15.3633 c 0
 140.312 75.3613 113.374 210.52 101.437 277.955 c 0
 96.3721 306.564 87.6826 344.778 81.6885 364.805 c 0
 75.8779 384.219 70.9844 412.944 70.9844 427.643 c 0
 70.9844 442.97 66.7812 456.271 61.2998 458.296 c 0
 56.0166 460.246 50.2246 487.416 48.5557 518.068 c 0
 46.165 562.005 48.834 574.266 60.79 574.266 c 0
 88.1221 574.266 111.522 499.677 160.8 255.477 c 0
 175.852 180.888 192.591 120.965 197.907 122.647 c 0
 203.197 124.322 224.707 178.334 245.312 241.683 c 0
 265.917 305.032 288.751 368.315 295.637 381.153 c 0
 334.321 453.277 436.265 359.696 488.197 204.389 c 0
 497.08 177.823 508.81 154.945 514.449 153.188 c 0
 525.206 149.833 550.131 239.128 550.131 281.021 c 0
 550.131 293.986 564.526 377.577 582.243 467.492 c 0
EndSplineSet
EndChar
StartChar: X
Encoding: 56 88 32767
OldEncoding: 88
Width: 604
Flags: W
Fore
34.2842 593.891 m 0
 48.7637 617.551 74.2842 600.064 192.27 485.644 c 0
 260.463 419.51 316.393 365.974 317.29 365.974 c 0
 318.195 365.974 334.113 390.936 353.278 422.41 c 0
 392.929 487.529 470.783 572.185 491.021 572.185 c 0
 527.188 572.185 515.539 533.113 462.867 477.762 c 0
 450.331 464.588 423.163 418.611 402.261 375.199 c 2
 364.376 296.513 l 1
 399.555 258.527 l 2
 418.497 238.073 454.218 202.848 476.948 182.206 c 0
 576.532 91.7764 592.696 59.709 546.224 44.7744 c 0
 526.185 38.334 507.315 52.8584 427.157 136.429 c 2
 331.903 235.735 l 1
 306.466 195.036 l 2
 292.334 172.425 269.964 132.63 256.133 105.497 c 0
 242.302 78.3643 228.351 54.2461 224.742 51.2305 c 0
 221.062 48.1553 211.086 31.6953 201.722 13.2441 c 0
 182.991 -23.6562 141.44 -36.3623 130.737 -8.46191 c 0
 126.647 2.20117 151.441 56.6572 194.976 132.63 c 0
 234.156 201.005 268.538 267.523 271.828 281.318 c 0
 276.704 301.764 258.131 326.902 169.188 420.239 c 0
 47.1494 548.308 24.3486 577.657 34.2842 593.891 c 0
EndSplineSet
EndChar
StartChar: Y
Encoding: 57 89 32767
OldEncoding: 89
Width: 580
Flags: W
Fore
494.023 616.128 m 0
 502.422 624.772 505.144 624.361 529.407 610.789 c 0
 546.667 601.134 548.664 593.235 543.055 556.816 c 0
 535.327 506.646 457.622 349.747 415.251 298.76 c 0
 398.821 278.989 383.174 254.2 379.784 242.57 c 0
 376.448 231.124 349.835 165.569 320.644 96.8936 c 0
 291.452 28.2168 262.412 -41.084 256.11 -57.1084 c 0
 243.835 -88.3242 218.738 -91.7061 202.058 -64.3916 c 0
 191.236 -46.6719 207.34 -3 287.235 166.61 c 2
 334.291 266.503 l 1
 202.866 399.896 l 2
 57.2881 547.653 44.8848 564.231 62.8838 586.992 c 0
 76.8232 604.619 96.7158 588.603 246.338 439.285 c 0
 299.919 385.814 350.821 341.423 358.555 341.423 c 0
 377.131 341.423 385.75 352.868 427.508 432.991 c 0
 446.488 469.41 467.289 508.72 474.31 521.438 c 0
 481.239 533.991 486.946 558.897 486.946 576.587 c 0
 486.946 594.276 490.143 612.133 494.023 616.128 c 0
EndSplineSet
EndChar
StartChar: Z
Encoding: 58 90 32767
OldEncoding: 90
Width: 740
Flags: W
Fore
310.126 556.403 m 0
 480.151 575.91 531.258 563.591 531.258 503.096 c 0
 531.258 468.022 491.463 386.15 458 352.376 c 0
 378.168 271.802 256.072 107.877 256.072 81.2686 c 0
 256.072 52.1904 369.095 44.1357 440.84 68.1006 c 0
 464.178 75.8965 512.584 83.2783 548.948 84.5869 c 0
 585.312 85.8955 617.216 89.9277 620.201 93.5918 c 0
 623.161 97.2256 644.28 103.229 666.885 106.863 c 0
 700.3 112.234 709.375 110.429 714.527 97.3838 c 0
 723.275 75.2354 701.283 53.7793 669.833 53.7793 c 0
 655.091 53.7793 634.779 47.6699 624.133 40.0342 c 0
 613.076 32.1045 583.346 26.0889 553.862 25.8154 c 0
 525.986 25.5566 473.271 18.7256 437.891 10.7871 c 0
 348.456 -9.28125 198.378 -5.16699 183.562 17.7578 c 0
 175.291 30.5547 175.604 39.5605 184.818 53.7793 c 0
 191.575 64.2061 197.104 77.4297 197.104 83.165 c 0
 197.104 95.4883 268.177 209.372 278.677 213.873 c 0
 282.689 215.594 285.557 221.562 285.557 228.197 c 0
 285.557 238.648 345.885 309.719 401.427 364.699 c 0
 429.197 392.188 472.289 469.432 472.289 491.721 c 0
 472.289 506.759 461.97 508.783 385.311 508.783 c 0
 334.205 508.783 281.511 503.115 257.546 495.039 c 0
 235.358 487.562 188.75 476.323 155.335 470.393 c 0
 121.919 464.463 91.1377 455.169 87.8311 450.012 c 0
 77.709 434.226 28.7471 450.96 32.3643 468.971 c 0
 37.127 492.687 199.069 543.662 310.126 556.403 c 0
EndSplineSet
EndChar
StartChar: bracketleft
Encoding: 59 91 32767
OldEncoding: 91
Width: 385
Flags: W
Fore
200.923 553.835 m 0
 232.101 559.034 233.274 559.038 251.4 553.977 c 0
 263.277 550.66 267.796 544.317 266.246 533.137 c 0
 264.375 519.631 256.968 516.147 219.852 511.324 c 0
 195.355 508.141 172.379 502.176 168.262 497.931 c 0
 164.187 493.729 152.302 490.277 141.91 490.277 c 0
 131.518 490.277 126.663 487.701 131.146 484.564 c 0
 139.44 478.762 150.668 363.995 163.907 149.697 c 0
 174.356 -19.4443 167.523 -5.23828 236.554 -1.33203 c 0
 287.031 1.52344 295.868 0.121094 300.021 -11.4082 c 0
 302.778 -19.0615 301.423 -29.0654 296.857 -34.751 c 0
 286.188 -48.0391 159.354 -57.8535 145.992 -46.4238 c 0
 132.184 -34.6123 128.071 -1.84082 119.362 165.77 c 0
 115.227 245.366 107.946 350.349 103.174 399.201 c 0
 91.8096 515.533 94.2695 524.155 143.023 538.867 c 0
 164.55 545.363 190.769 552.141 200.923 553.835 c 0
EndSplineSet
EndChar
StartChar: backslash
Encoding: 60 92 32767
OldEncoding: 92
Width: 550
Flags: W
Fore
41.8584 525.556 m 0
 50.9668 540.092 89.8857 530.323 92.5068 512.843 c 0
 93.8311 504.014 122.074 465.169 156.054 425.44 c 0
 235.565 332.477 279.215 275.383 306.1 229.183 c 0
 318.121 208.524 332.448 187.223 338.164 181.509 c 0
 355.69 163.988 412.656 85.3662 429.126 55.9678 c 0
 437.583 40.8711 451.337 19.2588 459.213 8.69141 c 0
 471.649 -7.99512 472.109 -12.333 462.438 -21.6777 c 0
 443.683 -39.7959 420.752 -26.667 397.599 15.4443 c 0
 385.806 36.8936 353.568 84.1748 325.816 120.725 c 0
 298.063 157.274 264.88 203.129 251.926 222.826 c 0
 223.425 266.166 163.013 342.011 119.02 389.685 c 0
 100.688 409.549 84.0537 431.62 81.5908 439.345 c 0
 79.0576 447.291 74.7402 453.25 71.5156 453.25 c 0
 61.8438 453.25 36.0127 516.226 41.8584 525.556 c 0
EndSplineSet
EndChar
StartChar: bracketright
Encoding: 61 93 32767
OldEncoding: 93
Width: 427
Flags: W
Fore
162.951 529.34 m 0
 188.612 534.8 260.285 534.078 269.064 528.272 c 0
 288.111 515.675 305.129 314.016 305.129 100.909 c 2
 305.129 -7.47461 l 1
 286.403 -15.4951 l 2
 260.048 -26.7842 144.276 -28.5576 140.703 -17.7266 c 0
 137.319 -7.46777 149.774 -1.99414 211.5 13.3848 c 2
 260.048 25.4805 l 1
 262.208 113.358 l 2
 264.799 218.813 252.094 443.85 241.783 475.126 c 0
 233.247 501.02 216.354 503.994 162.951 489.01 c 0
 137.983 482.004 130.008 482.083 123.072 489.406 c 0
 116.137 496.729 117.871 501.344 131.742 512.475 c 0
 141.451 520.267 155.184 527.688 162.951 529.34 c 0
EndSplineSet
EndChar
StartChar: asciicircum
Encoding: 62 94 32767
OldEncoding: 94
Width: 355
Flags: W
Fore
115.477 574.504 m 0
 137.128 608.763 155.447 630.733 162.36 630.733 c 0
 173.623 630.733 211.335 594.89 263.893 534.231 c 0
 283.005 512.174 291.977 496.18 290.809 486.249 c 0
 287.237 455.881 268.073 465.268 216.71 522.542 c 0
 158.96 586.939 163.98 587.537 118.304 510.826 c 0
 92.583 467.631 84.9434 459.438 70.3848 459.438 c 0
 54.2588 459.438 53.4766 460.773 59.0371 478.802 c 0
 62.2529 489.229 68.4551 502.807 72.4746 508.22 c 0
 76.6279 513.813 95.708 543.224 115.477 574.504 c 0
EndSplineSet
EndChar
StartChar: underscore
Encoding: 63 95 32767
OldEncoding: 95
Width: 475
Flags: W
Fore
318.306 40.8096 m 0
 320.043 42.6543 345.554 43.418 374.653 42.4951 c 0
 427.562 40.8174 427.827 40.7393 427.827 26.7617 c 0
 427.827 12.7139 427.827 12.7139 364.336 9.06152 c 0
 329.37 7.0498 268.042 1.44727 227.831 -3.41016 c 0
 97.1455 -19.1953 51.2051 -21.041 41.8027 -10.8857 c 0
 28.8857 3.06445 32.5967 9.76855 53.7598 10.7148 c 0
 64.3418 11.1885 76.9824 12.1064 81.2725 12.7139 c 0
 85.6611 13.3359 109.314 15.7559 134.182 18.1289 c 0
 242.646 28.4766 315.097 37.4014 318.306 40.8096 c 0
EndSplineSet
EndChar
StartChar: grave
Encoding: 64 96 32767
OldEncoding: 96
Width: 334
Flags: W
Fore
93.9658 543.347 m 0
 99.2227 548.852 105.739 553.133 108.86 553.133 c 0
 111.943 553.133 135.437 531.793 161.721 505.117 c 0
 200.854 465.4 208.325 454.775 204.943 443.645 c 0
 201.784 433.246 197.935 431.144 188.005 434.394 c 0
 174.523 438.806 137.013 473.005 104.73 510.316 c 0
 86.208 531.725 85.3584 534.333 93.9658 543.347 c 0
EndSplineSet
EndChar
StartChar: a
Encoding: 65 97 32767
OldEncoding: 97
Width: 442
Flags: W
Fore
208.5 418.856 m 0
 288.3 450.321 331.934 438.94 362.673 378.645 c 0
 381.924 340.884 382.112 339.224 383.5 195.996 c 0
 384.271 116.498 386.947 45.541 389.45 38.3135 c 0
 392.362 29.9043 389.086 19.2607 380.35 8.74805 c 0
 367.792 -6.36328 365.804 -6.83594 355.5 2.83496 c 0
 348.683 9.2334 342.246 31.0869 339.05 58.6807 c 0
 334.181 100.729 333.123 102.872 324.452 88.2461 c 0
 304.049 53.8271 235.1 7.87109 191.7 -0.236328 c 0
 168.6 -4.55176 113.4 8.63281 95.0996 22.8359 c 0
 80.9531 33.8164 70.5117 81.0195 75.4004 111.898 c 0
 81.0254 147.434 103.5 172.717 156 202.568 c 0
 209.9 233.216 270.294 240.675 293.9 219.6 c 0
 302.3 212.101 311.527 205.851 314.2 205.851 c 0
 316.895 205.851 325.4 200.677 333.1 194.354 c 0
 346.979 182.955 347.072 183.513 343.953 258.411 c 0
 340.314 345.794 325.794 387.586 296.7 394.412 c 0
 281.021 398.092 221.8 387.191 198 376.246 c 0
 192.287 373.618 165.8 361.473 139.9 349.604 c 0
 88.0996 325.867 73.125 328.248 85.3477 358.277 c 0
 90.332 370.524 102.8 379.171 129.4 388.828 c 0
 149.805 396.235 185.4 409.749 208.5 418.856 c 0
306.5 172.836 m 0
 284.577 192.226 221.1 197.028 184 182.104 c 0
 146.255 166.922 114 123.067 114 86.9326 c 0
 114 61.3086 116.847 55.79 135.35 45.541 c 0
 150.93 36.9111 163.7 34.9199 182.6 38.1738 c 0
 214.8 43.7178 275 73.7725 275 84.3037 c 0
 275 88.6846 285.939 102.7 299.614 115.841 c 0
 329.014 144.092 329.979 152.071 306.5 172.836 c 0
EndSplineSet
EndChar
StartChar: b
Encoding: 66 98 32767
OldEncoding: 98
Width: 520
Flags: W
Fore
78.8086 666.726 m 0
 105.993 693.408 113.247 679.207 119.607 586.843 c 0
 122.932 538.581 130.178 469.249 135.609 433.735 c 0
 141.081 397.954 147.473 349.041 149.852 324.729 c 2
 154.167 280.627 l 1
 215.885 342.203 l 2
 262.59 388.801 287.891 407.111 319.898 417.479 c 0
 376.868 435.932 390.725 434.876 425.206 409.457 c 0
 505.147 350.526 480.412 177.445 377.424 75.0957 c 0
 333.046 30.9941 244.539 -18.1006 209.411 -18.1006 c 0
 174.884 -18.1006 118.915 12.7041 114.167 34.3223 c 0
 111.948 44.418 108.21 114.205 105.829 189.927 c 0
 103.449 265.648 95.7061 364.544 88.5654 410.436 c 0
 81.4443 456.202 73.0928 529.406 70.0068 573.113 c 0
 65.1309 642.179 66.2832 654.432 78.8086 666.726 c 0
405.399 366.334 m 0
 391.719 380.802 376.868 382.612 334.572 374.967 c 0
 312.65 371.005 250.875 315.575 209.029 262.32 c 0
 163.261 204.072 150.542 67.875 187.831 35.3242 c 0
 203.286 21.834 206.821 21.8047 249.117 34.8174 c 0
 295.342 49.0391 351.388 97.5625 389.828 156.643 c 0
 430.436 219.051 438.752 331.06 405.399 366.334 c 0
EndSplineSet
EndChar
StartChar: c
Encoding: 67 99 32767
OldEncoding: 99
Width: 452
Flags: W
Fore
197.667 426.813 m 0
 215.184 431.4 245.166 433.512 265.522 431.593 c 0
 338.466 424.716 412.689 355.56 399.402 306.854 c 0
 391.994 279.696 365.613 282.477 362.105 310.786 c 0
 360.797 321.35 348.485 342.634 335.497 356.788 c 0
 314.84 379.3 304.538 383.67 264.674 386.831 c 0
 191.73 392.614 177.602 386.488 140.082 332.805 c 0
 92.2676 264.391 77.3828 217.869 84.7285 159.805 c 0
 90.001 118.127 95.5244 107.298 126.845 77.2363 c 0
 157.977 47.3545 167.519 42.6357 196.819 42.6357 c 0
 241.295 42.6357 293.34 74.877 347.876 136.213 c 0
 390.525 184.182 419.892 197.649 419.892 169.24 c 0
 419.892 149.679 353.733 67.6104 317.261 41.9297 c 0
 243.47 -10.0303 195.971 -16.0479 127.269 17.8594 c 0
 69.0938 46.5713 46.2324 89.8174 40.1797 182.608 c 0
 36.0234 246.305 37.5342 255.312 59.1719 295.845 c 0
 89.8145 353.25 156.095 415.928 197.667 426.813 c 0
EndSplineSet
EndChar
StartChar: d
Encoding: 68 100 32767
OldEncoding: 100
Width: 568
Flags: W
Fore
454.277 755.621 m 0
 460.795 772.031 471.062 780.236 485.075 780.236 c 2
 506.097 780.236 l 1
 499.741 453.972 l 2
 495.83 253.194 497.146 98.3789 503.163 51.4512 c 0
 511.455 -13.2227 510.713 -27.0781 498.274 -39.7676 c 0
 487.38 -50.8818 479.209 -51.999 466.499 -44.1113 c 0
 453.666 -36.1475 448.044 -15.1533 444.011 39.8682 c 0
 441.039 80.4092 436.009 115.82 432.767 119.021 c 0
 429.53 122.216 416.224 112.264 403.083 96.8193 c 0
 326.703 7.04883 237.389 -26.9082 157.048 3.27734 c 0
 77.8711 33.0254 46.5557 92.958 57.2305 194.312 c 0
 66.8877 286.014 141.506 387.426 221.578 417.676 c 0
 266.554 434.667 266.554 434.667 321.306 408.604 c 0
 351.615 394.177 387.407 367.89 401.479 349.723 c 0
 415.686 331.382 430.783 319.245 435.7 322.212 c 0
 440.542 325.133 444.5 418.257 444.5 529.264 c 0
 444.5 640.271 448.897 742.077 454.277 755.621 c 0
323.262 343.513 m 0
 297.841 360.471 267.816 374.819 257.754 374.819 c 0
 236.18 374.819 133.752 275.396 120.521 241.611 c 0
 108.423 210.722 110.002 116.746 123.019 92.958 c 0
 128.707 82.5625 151.182 65.8984 171.714 56.8516 c 0
 232.764 29.9531 277.309 46.0576 358.46 124.365 c 0
 396.591 161.16 424.604 196.343 424.146 206.861 c 0
 422.652 241.147 370.192 312.207 323.262 343.513 c 0
EndSplineSet
EndChar
StartChar: e
Encoding: 69 101 32767
OldEncoding: 101
Width: 490
Flags: W
Fore
154.81 413.135 m 0
 193.289 437.381 195.956 437.941 252.138 433.592 c 0
 301.988 429.731 314.236 425.858 341.553 405.316 c 0
 374.786 380.323 404.063 334.216 404.063 306.871 c 0
 404.063 273.438 383.49 259.785 307.527 242.811 c 0
 267.172 233.793 200.883 224.516 160.744 222.267 c 2
 87.5498 218.167 l 1
 87.5498 186.86 l 2
 87.5498 144.371 102.717 113.233 142.012 75.0479 c 0
 208.625 10.3145 283.789 25.1055 388.238 123.5 c 0
 427.011 160.025 447.738 174.788 453.123 169.716 c 0
 463.66 159.79 425.429 97.6855 389.029 65.6006 c 0
 321.771 6.31152 245.865 -19.0928 184.087 -2.99023 c 0
 126.152 12.1094 69.3506 71.3213 52.7334 133.936 c 0
 37.8975 189.842 36.3799 241.217 48.4414 279.291 c 0
 62.6104 324.016 111.995 386.158 154.81 413.135 c 0
323.353 363.896 m 0
 286.954 395.831 279.429 399.246 246.599 398.731 c 0
 199.121 397.985 181.876 390.761 155.444 360.541 c 0
 110.458 309.107 95.4629 286 95.4629 268.11 c 0
 95.4629 257 102.585 256.037 153.227 260.297 c 0
 207.481 264.859 253.72 272.699 319.396 288.47 c 0
 338.388 293.03 352.089 301.732 356.587 312.089 c 0
 362.591 325.916 357.378 334.043 323.353 363.896 c 0
EndSplineSet
EndChar
StartChar: f
Encoding: 70 102 32767
OldEncoding: 102
Width: 496
Flags: W
Fore
231.993 767.746 m 0
 260.927 796.153 264.327 796.791 343.091 788.574 c 0
 387.033 783.99 398.587 779.194 422.684 755.535 c 0
 453.36 725.417 457.665 701.701 437.607 673.319 c 0
 419.585 647.818 409.418 651.341 409.418 683.088 c 0
 409.418 717.819 395.324 731.629 342.262 748.889 c 0
 291.688 765.339 267.75 757.243 248.79 717.276 c 0
 234.116 686.344 221.87 445.956 234.068 428.3 c 0
 240.553 418.915 250.647 418.556 291.272 426.265 c 0
 318.633 431.457 346.512 433.44 353.869 430.719 c 0
 383.041 419.926 364.647 404.742 299.149 385.546 c 2
 231.164 365.62 l 1
 228.677 239.854 l 2
 226.729 141.358 229.102 104.91 239.623 71.7598 c 0
 255.898 20.4766 253.636 0.615234 231.164 -2.50195 c 0
 200.384 -6.77246 185.563 65.2471 185.563 219.097 c 0
 185.563 292.358 183.521 353.787 181.004 356.259 c 0
 178.45 358.767 158.204 355.447 134.989 348.717 c 0
 85.2441 334.294 52.9092 339.67 52.9092 362.364 c 0
 52.9092 374.737 65.7598 381.656 117.164 396.96 c 2
 181.418 416.09 l 1
 183.076 484.874 l 2
 183.984 522.556 189.233 595.987 194.684 647.271 c 0
 204.113 735.999 206.061 742.285 231.993 767.746 c 0
EndSplineSet
EndChar
StartChar: g
Encoding: 71 103 32767
OldEncoding: 103
Width: 559
Flags: W
Fore
273.623 429.057 m 0
 330.949 447.922 415.611 444.055 454.345 420.801 c 0
 496.319 395.602 503.286 366.959 483.122 302.495 c 0
 465.382 245.78 466.251 179.836 488.717 -121.89 c 2
 500.982 -286.63 l 1
 473.292 -308.565 l 2
 450.108 -326.93 438.799 -329.638 403.82 -325.2 c 0
 313.46 -313.736 177.433 -245.909 177.433 -212.317 c 0
 177.433 -184.562 216.287 -131.738 236.701 -131.738 c 0
 257.319 -131.738 259.734 -142.482 244.952 -168.446 c 0
 239.346 -178.295 237.547 -194.411 240.954 -204.26 c 0
 247.493 -223.158 292.084 -248.131 319.289 -248.131 c 0
 327.866 -248.131 347.467 -256.462 363.013 -266.716 c 0
 394.104 -287.224 435.971 -283.184 444.282 -258.875 c 0
 447.155 -250.473 445.134 -193.516 439.771 -131.738 c 0
 434.407 -69.9609 427.225 21.291 423.739 71.9492 c 0
 417.454 163.272 417.341 163.598 400.42 138.65 c 0
 373.7 99.2559 301.97 40.0664 262.936 25.2031 c 0
 242.769 17.5234 209.496 11.5137 187.149 11.5137 c 0
 154.114 11.5137 140.76 17.2461 108.934 45.0889 c 0
 78.0869 72.0742 68.6475 88.0645 60.8379 126.563 c 0
 55.5713 152.528 54.0645 185.534 57.5469 198.638 c 0
 65.2812 227.741 105.134 302.495 131.053 336.518 c 0
 153.54 366.036 226.985 413.708 273.623 429.057 c 0
424.225 389.916 m 0
 401.305 402.019 342.608 402.951 303.743 391.83 c 0
 243.006 374.45 166.347 309.658 130.252 245.194 c 0
 103.182 196.847 101.363 188.349 108.806 144.918 c 0
 117.55 93.8848 151.199 56.2803 188.12 56.2803 c 0
 253.445 56.2803 337.482 122.535 383.45 210.276 c 0
 417.691 275.636 441.554 380.765 424.225 389.916 c 0
EndSplineSet
EndChar
StartChar: h
Encoding: 72 104 32767
OldEncoding: 104
Width: 427
Flags: W
Fore
49.0254 640.242 m 0
 60.0342 660.738 71.3242 662.877 81.9561 646.479 c 0
 85.7539 640.621 91.9033 589.445 95.5557 533.303 c 0
 99.208 477.159 105.438 388.508 109.333 337.246 c 2
 116.444 243.674 l 1
 130.862 274.865 l 2
 152.694 322.097 263.9 426.362 292.444 426.362 c 0
 319.213 426.362 356.825 390.716 366.73 355.961 c 0
 370.379 343.156 373.334 257.042 373.333 163.47 c 0
 373.333 0.386719 372.679 -5.85156 355.556 -5.85156 c 0
 338.692 -5.85156 337.504 2.16895 332.444 150.103 c 0
 329.001 250.804 322.388 320.105 313.778 345.713 c 2
 300.444 385.369 l 1
 255.111 342.702 l 2
 205.333 295.853 159.925 230.084 146.131 184.857 c 0
 141.09 168.33 133.732 118.911 129.944 76.1357 c 0
 122.446 -8.52441 112.564 -30.0381 89.7783 -11.3057 c 0
 79.1807 -2.59375 75.5557 17.7646 75.5557 68.5605 c 0
 75.5557 106.366 71.8105 180.401 67.1484 234.763 c 0
 45.3662 488.744 39.3965 622.313 49.0254 640.242 c 0
EndSplineSet
EndChar
StartChar: i
Encoding: 73 105 32767
OldEncoding: 105
Width: 220
Flags: W
Fore
90.126 452.247 m 0
 128.318 483.017 136.419 448.248 147.441 206.266 c 0
 152.612 92.7432 152.062 26.4414 145.88 18.0566 c 0
 132.663 0.131836 103.653 3.11914 97.5293 23.0361 c 0
 94.499 32.8945 87.9727 130.584 83.0283 240.123 c 0
 74.8467 421.361 75.4854 440.452 90.126 452.247 c 0
91.7568 657.369 m 0
 107.131 676.843 111.893 677.103 134.604 659.703 c 0
 157.992 641.788 145.961 601.098 118.517 605.292 c 0
 90.126 609.631 75.9092 637.298 91.7568 657.369 c 0
EndSplineSet
EndChar
StartChar: j
Encoding: 74 106 32767
OldEncoding: 106
Width: 370
Flags: W
Fore
202.824 392.461 m 0
 198.912 444.805 199.627 447.884 215.684 447.884 c 0
 235.448 447.884 234.821 449.424 252.08 358.591 c 0
 282.21 200.02 290.995 100.972 286.354 -27.832 c 0
 280.279 -196.411 269.022 -214.115 167.918 -214.115 c 0
 116.914 -214.115 78.8633 -202.275 78.8633 -186.404 c 0
 78.8633 -181.478 73.1963 -175.191 66.7188 -172.933 c 0
 57.9258 -169.867 54.5752 -156.383 54.5752 -124.053 c 0
 54.5752 -43.9971 97.1416 -24.834 99.0312 -104.039 c 0
 99.5088 -124.053 102.453 -144.868 105.455 -149.455 c 0
 113.427 -161.632 207.588 -170.33 220.541 -160.087 c 0
 226.305 -155.529 233.323 -137.139 236.056 -119.435 c 0
 245.086 -60.9316 242.833 165.552 232.825 205.407 c 0
 218.045 264.267 207.485 330.109 202.824 392.461 c 0
181.092 644.175 m 0
 196.3 658.801 203.675 658.801 216.493 644.175 c 0
 228.456 630.525 221.351 593.836 206.778 594.007 c 0
 179.252 594.33 162.759 626.543 181.092 644.175 c 0
EndSplineSet
EndChar
StartChar: k
Encoding: 75 107 32767
OldEncoding: 107
Width: 412
Flags: W
Fore
43.2305 620.23 m 0
 52.9795 636.008 73.2607 631.069 80.8945 611.059 c 0
 84.9189 600.511 92.8125 539.353 98.4355 475.15 c 0
 104.06 410.949 111.728 337.784 115.477 312.562 c 2
 122.293 266.703 l 1
 213.037 357.169 l 2
 289.145 433.044 305.843 445.989 316.562 437.426 c 0
 332.751 424.493 333.127 407.311 317.414 398.478 c 0
 310.787 394.752 296.443 378.431 285.141 361.755 c 0
 263.323 329.567 216.02 283.023 159.784 238.413 c 0
 123.997 210.025 118.033 190.097 141.891 178.629 c 0
 148.958 175.231 187.05 157.354 227.096 138.64 c 0
 304.633 102.405 363.425 60.1895 363.425 40.7461 c 0
 363.425 18.5117 339.567 18.5342 309.745 40.7979 c 0
 293.557 52.8828 276.453 62.4248 270.977 62.4248 c 0
 265.864 62.4248 261.179 65.6143 261.179 69.0947 c 0
 261.179 75.5312 239.024 85.6787 164.044 113.588 c 2
 122.293 129.128 l 1
 127.966 63.2588 l 2
 133.926 -5.94629 129.428 -17.5254 100.14 -8.38672 c 0
 80.5498 -2.27441 75.0361 35.7432 69.3135 204.169 c 0
 67.0469 270.872 61.6025 345.626 57.168 370.927 c 0
 46.0605 434.295 36.2939 609.004 43.2305 620.23 c 0
EndSplineSet
EndChar
StartChar: l
Encoding: 76 108 32767
OldEncoding: 108
Width: 238
Flags: W
Fore
88.7598 770.219 m 0
 94.4033 779.506 108.117 779.506 113.902 770.219 c 0
 118.544 762.767 136.489 524.111 155.941 211.139 c 0
 161.194 126.627 166.277 47.4893 167.276 34.6846 c 0
 168.726 16.1104 164.56 11.4668 146.45 11.4668 c 0
 119.952 11.4668 118.838 17.9678 101.103 276.147 c 0
 95.6797 355.088 86.8525 466.232 81.5557 522.254 c 0
 72.8623 614.196 76.8252 750.576 88.7598 770.219 c 0
EndSplineSet
EndChar
StartChar: m
Encoding: 77 109 32767
OldEncoding: 109
Width: 670
Flags: W
Fore
115.333 420.611 m 0
 123.089 463.326 137.859 448.843 147.104 389.458 c 0
 151.803 359.279 158.14 325.087 160.997 314.498 c 0
 166.04 295.807 166.614 296.001 175.356 319.365 c 0
 180.455 332.994 186.465 345.845 189.015 348.57 c 0
 191.486 351.213 201.215 369.015 210.296 387.512 c 0
 232.282 432.293 236.771 436.188 266.415 436.188 c 0
 284.865 436.188 299.336 427.176 320.35 402.601 c 0
 345.501 373.186 350.59 359.767 361.325 294.541 c 2
 373.584 220.066 l 1
 387.188 267.769 l 2
 413.288 359.279 471.048 436.188 513.674 436.188 c 0
 539.505 436.188 564.471 403.088 573.885 356.359 c 0
 579.251 329.72 581.554 256.087 580.217 153.867 c 0
 578.153 -3.8418 577.828 -6.81543 562.354 -9.68262 c 0
 546.595 -12.6035 546.595 -12.6035 546.394 136.345 c 0
 546.045 394.326 518.163 449.085 453.699 318.392 c 0
 416.34 242.649 389.598 127.583 383.788 17.5752 c 0
 382.4 -8.70996 378.787 -16.498 367.979 -16.498 c 0
 355.172 -16.498 353.614 -7.73633 349.808 85.7217 c 0
 342.83 257.061 333.441 304.749 295.76 360.253 c 0
 261 411.454 256.687 406.981 197.147 258.034 c 0
 188.976 237.59 182.36 206.886 182.36 189.401 c 0
 182.36 171.878 179.392 153.636 175.706 148.514 c 0
 172.047 143.427 168.106 95.457 166.95 41.9131 c 0
 164.996 -48.624 163.819 -55.6465 150.14 -58.4121 c 0
 130.73 -62.3359 126.324 -27.2061 126.324 131.477 c 0
 126.324 196.702 122.851 283.162 118.619 323.26 c 0
 114.407 363.174 112.918 407.307 115.333 420.611 c 0
EndSplineSet
EndChar
StartChar: n
Encoding: 78 110 32767
OldEncoding: 110
Width: 492
Flags: W
Fore
101.005 440.813 m 0
 106.982 462.172 125.734 461.541 130.334 439.826 c 0
 132.303 430.533 140.531 365.798 148.778 294.731 c 0
 157.025 223.665 164.459 165.536 165.441 164.442 c 0
 166.42 163.353 176.412 192.08 187.757 228.6 c 0
 209.833 299.667 217.319 315.24 255.128 368.76 c 0
 316.49 455.618 350.727 469.568 383.516 421.072 c 0
 415.867 373.222 418.46 356.915 421.8 180.235 c 0
 425.158 2.56836 423.98 -5.35742 394.109 -6.0166 c 0
 381.517 -6.29492 380.89 -0.392578 384.5 84.4932 c 0
 388.656 182.209 380.15 328.994 368.543 359.876 c 0
 364.665 370.19 355.111 383.294 347.312 388.993 c 0
 335.355 397.731 327.459 392.003 296.97 352.474 c 0
 276.991 326.57 243.832 265.614 222.874 216.262 c 0
 190.599 140.26 183.671 114.788 176.432 45.5049 c 0
 171.79 1.08789 165.828 -35.9258 163.313 -35.9258 c 0
 160.822 -35.9258 152.678 -29.8037 145.588 -22.6006 c 0
 135.12 -11.9678 131.468 10.4648 127.507 88.4404 c 0
 124.788 141.962 116.61 239.951 109.426 305.096 c 0
 102.241 370.24 98.4326 431.622 101.005 440.813 c 0
EndSplineSet
EndChar
StartChar: o
Encoding: 79 111 32767
OldEncoding: 111
Width: 517
Flags: W
Fore
278.924 447.72 m 0
 377.832 459.776 435.849 441.895 456.455 393 c 0
 501.623 285.829 438.065 76.54 342.302 17.1064 c 0
 260.678 -33.5508 154.47 -22.9453 99.3086 41.3721 c 0
 54.1279 94.0527 44.6162 119.314 44.6162 186.629 c 0
 44.6162 253.943 67.9238 305.429 121.603 356.687 c 0
 184.675 416.914 226.965 441.386 278.924 447.72 c 0
406.64 373.338 m 0
 384.185 391.979 355.745 400.923 332.698 396.593 c 0
 324.645 395.079 298.609 391.543 273.642 388.571 c 0
 237.151 384.229 221.663 376.296 188.912 345.172 c 0
 126.466 285.829 102.233 240.02 102.233 181.314 c 0
 102.233 92.7432 162.73 30.5654 249.155 30.3105 c 0
 330.892 30.0693 412.229 152.972 422.949 292.915 c 0
 427.291 349.601 425.683 357.529 406.64 373.338 c 0
EndSplineSet
EndChar
StartChar: p
Encoding: 80 112 32767
OldEncoding: 112
Width: 520
Flags: W
Fore
102.291 406.657 m 0
 114.75 429.496 136.783 431.771 148.361 411.416 c 0
 156.3 397.459 161.842 397.41 214.867 410.83 c 0
 281.39 427.666 329.654 429.168 386.476 416.17 c 0
 484.304 393.791 495.335 304.837 420.108 144.968 c 0
 371.301 41.2441 297.185 -11.4248 217.759 1.1748 c 2
 181.124 6.98633 l 1
 185.944 -52.4883 l 2
 188.573 -84.9297 196.856 -154.785 204.168 -206.172 c 0
 222.309 -333.686 222.154 -335.589 193.657 -335.589 c 0
 174.896 -335.589 168.689 -328.928 160.851 -300.38 c 0
 150.527 -262.781 129.007 -72.9473 111.444 135.452 c 0
 99.1738 281.047 96.3887 292.466 73.1455 292.466 c 0
 42.2949 292.466 38.8682 312.904 66.3965 332.725 c 0
 80.8584 343.136 92.4277 359.712 92.4277 370.021 c 0
 92.4277 380.488 96.7266 396.459 102.291 406.657 c 0
385.511 362.706 m 0
 357.074 373.582 260.18 366.412 208.118 349.578 c 2
 155.094 332.434 l 1
 156.539 281.522 l 2
 157.328 253.753 161.272 194.927 165.216 152.105 c 0
 171.001 89.2998 175.532 73.5029 187.872 73.123 c 0
 196.442 72.8584 211.011 66.8994 220.651 59.7158 c 0
 287.128 10.1787 443.069 228.709 410.507 325.771 c 0
 404.761 342.9 393.399 359.688 385.511 362.706 c 0
EndSplineSet
EndChar
StartChar: q
Encoding: 81 113 32767
OldEncoding: 113
Width: 526
Flags: W
Fore
228.423 415.072 m 0
 270.047 423.68 288.685 423.644 311.671 414.907 c 0
 349.133 400.67 352.372 378.421 333.404 265.649 c 0
 313.743 148.763 311.395 93.6113 326.079 93.6113 c 0
 331.887 93.6113 351.693 108.575 370.904 127.476 c 0
 420.532 176.305 484.568 207.773 484.568 183.334 c 0
 484.568 173.008 380.51 69.0361 370.104 68.9658 c 0
 366.129 68.9385 373.204 58.2158 385.888 45.0459 c 0
 438.445 -9.53223 444.546 -26.5684 444.546 -118.761 c 0
 444.546 -169.796 439.954 -203.384 428.566 -235.647 c 0
 411.425 -284.214 395.448 -301.5 367.702 -301.5 c 0
 325.856 -301.5 305.541 -235.647 279.836 -16.6904 c 2
 265.244 107.604 l 1
 214.015 64.3428 l 2
 161.985 20.4053 133.04 8.59668 99.5498 17.6445 c 0
 65.5352 26.834 45.9014 54.1006 37.1436 104.312 c 0
 13.0244 242.601 103.25 389.186 228.423 415.072 c 0
303.666 368.954 m 0
 300.965 376.131 293.26 381.319 286.056 380.813 c 0
 168.389 372.543 76.3369 276.831 76.3369 162.756 c 0
 76.3369 85.3799 100.104 46.1514 137.972 61.0273 c 0
 170.173 73.6777 243.88 151.231 260.472 189.92 c 0
 268.729 209.175 280.03 248.774 285.256 276.762 c 0
 290.48 304.749 297.964 334.59 301.665 342.202 c 0
 305.267 349.61 306.209 362.2 303.666 368.954 c 0
374.708 -1.05078 m 0
 344.306 36.8145 324.478 37.1387 324.478 -0.227539 c 0
 324.478 -78.4268 357.595 -252.111 372.505 -252.111 c 0
 376.091 -252.111 383.312 -238.529 388.914 -221.243 c 0
 394.518 -203.957 401.562 -186.753 404.924 -182.144 c 0
 408.247 -177.586 407.712 -141.397 403.723 -101.063 c 0
 397.699 -40.1504 392.945 -23.7637 374.708 -1.05078 c 0
EndSplineSet
EndChar
StartChar: r
Encoding: 82 114 32767
OldEncoding: 114
Width: 418
Flags: W
Fore
82.3506 404.089 m 0
 93.0166 435.492 117.682 438.233 117.682 408.015 c 0
 117.682 359.928 138.231 213.704 144.99 213.704 c 0
 148.834 213.704 162.415 233.331 174.868 256.885 c 0
 217.418 337.356 308.275 403.238 345.837 380.855 c 0
 371.732 365.425 368.741 356.674 332.623 342.205 c 0
 266.897 315.874 185.164 194.077 169.998 99.8662 c 0
 151.515 -14.9531 145.067 -33.0625 123.848 -29.7529 c 0
 106.854 -27.1016 103.74 -18.8789 98.5547 37.0586 c 0
 81.1787 224.499 74.2959 380.377 82.3506 404.089 c 0
EndSplineSet
EndChar
StartChar: s
Encoding: 83 115 32767
OldEncoding: 115
Width: 391
Flags: W
Fore
192.011 418.293 m 0
 206.38 421.84 234.312 425.184 252.953 425.59 c 0
 283.783 426.262 289.944 423.49 312.104 398.981 c 0
 325.657 383.99 336.839 366.88 336.839 361.13 c 0
 336.839 344.174 310.307 349.887 295.065 370.124 c 0
 267.026 407.354 185.638 388.113 133.358 331.897 c 0
 92.2324 287.675 90.3154 280.617 112.598 255.444 c 0
 125.522 240.843 151.86 226.238 187.709 213.793 c 0
 292.387 177.455 319.847 153.053 317.967 98.041 c 0
 317.302 78.5527 311.849 50.7559 305.763 35.8291 c 0
 292.928 4.34766 251.235 -36.167 224.274 -43.3594 c 0
 204.576 -48.6143 133.219 -36.1934 104.54 -22.5166 c 0
 83.0312 -12.2598 61.5264 30.5195 67.6758 50.8193 c 0
 74.5918 73.6514 90.9502 70.3076 104.341 43.3242 c 0
 116.987 17.8398 163.332 -7.86719 197.029 -8.09082 c 0
 225.342 -8.27734 254.346 18.5889 272.762 62.0625 c 0
 286.098 93.543 286.401 98.4316 276.255 118.278 c 0
 268.846 132.77 256.18 143.014 238.255 149.01 c 0
 223.705 153.877 197.388 164.538 180.897 172.245 c 0
 164.407 179.952 147.137 186.486 143.257 186.486 c 0
 132.741 186.486 84.4258 219.467 70.7842 235.956 c 0
 49.9834 261.1 48.7402 280.179 65.9023 310.91 c 0
 98.9697 370.124 140.649 405.615 192.011 418.293 c 0
EndSplineSet
EndChar
StartChar: t
Encoding: 84 116 32767
OldEncoding: 116
Width: 412
Flags: W
Fore
175.599 721.033 m 0
 180.197 747.63 201.254 758.893 211.761 740.376 c 0
 214.281 735.934 219.67 686.377 223.766 629.959 c 0
 227.862 573.542 232.198 526.517 233.428 525.185 c 0
 234.651 523.856 252.75 526.723 273.56 531.538 c 0
 321.866 542.719 359.635 538.992 362.472 522.767 c 0
 364.884 508.979 342.675 498.519 275.789 481.938 c 2
 235.657 471.99 l 1
 240.487 338.201 l 2
 243.136 264.858 250.318 160.714 256.385 107.695 c 0
 270.125 -12.3936 270.104 -16.624 255.723 -22.6055 c 0
 232.746 -32.1631 216.132 5.33789 215.849 67.3975 c 0
 215.706 98.5928 212.103 154.441 207.788 192.321 c 0
 203.489 230.059 197.313 303.544 194.039 355.932 c 0
 190.764 408.319 186.425 452.664 184.378 454.662 c 0
 182.318 456.673 153.164 452.727 118.978 445.812 c 0
 52.0908 432.281 37.2275 434.257 37.2275 456.678 c 0
 37.2275 472.085 63.9824 482.908 138.3 497.562 c 0
 154.65 500.785 172.041 506.159 176.945 509.502 c 0
 187.834 516.925 188.359 563.87 178.394 638.825 c 0
 174.322 669.451 173.066 706.386 175.599 721.033 c 0
EndSplineSet
EndChar
StartChar: u
Encoding: 85 117 32767
OldEncoding: 117
Width: 481
Flags: W
Fore
383.659 431.146 m 0
 402.409 443.239 420.023 433.956 418.887 412.578 c 0
 418.258 400.744 411.761 348.446 404.333 295.431 c 0
 389.986 193.023 392.558 162.036 424.773 49.1641 c 0
 437.953 2.98926 439.391 -11.2656 431.387 -16.4043 c 0
 402.479 -34.9658 395.792 -26.084 369.136 66.2656 c 0
 343.221 156.051 346.194 154.554 309.67 96.1943 c 0
 263.647 22.6562 199.943 -32.0703 160.364 -32.0703 c 0
 96.5791 -32.0703 81.499 -2.1416 65.5723 156.051 c 0
 55.2412 258.662 60.1523 409.516 74.2842 423.694 c 0
 79.9658 429.396 87.4941 428.397 96.8691 420.702 c 0
 108.119 411.467 109.985 398.897 106.197 357.853 c 0
 100.595 297.141 114.124 88.291 126.637 42.3232 c 0
 138.059 0.369141 161.216 0.706055 209.796 43.5312 c 0
 270.994 97.4805 335.118 227.023 357.344 341.605 c 0
 366.135 386.926 378.071 427.542 383.659 431.146 c 0
EndSplineSet
EndChar
StartChar: v
Encoding: 86 118 32767
OldEncoding: 118
Width: 469
Flags: W
Fore
384.45 425.201 m 0
 391.49 435.2 404.195 442.694 411.675 441.262 c 0
 442.329 435.391 434.574 404.789 328.963 114.842 c 0
 302.56 42.3555 252.604 -31.7979 230.175 -31.7979 c 0
 206.998 -31.7979 183.907 9.86133 160.44 94.0127 c 0
 148.485 136.882 127.685 208.158 114.484 251.483 c 0
 76.915 374.794 75.7393 378.938 69.7949 408.955 c 0
 64.8447 433.95 65.9248 436.188 81.6748 433.577 c 0
 105.87 429.565 145.08 333.969 189.854 169.832 c 0
 208.945 99.8447 227.353 41.3057 231 38.9785 c 0
 240.154 33.1396 291.993 138.171 313.266 205.658 c 0
 323.509 238.152 340.419 286.674 351.45 315.222 c 0
 362.396 343.55 371.25 375.404 371.25 386.459 c 0
 371.25 397.29 377.3 415.047 384.45 425.201 c 0
EndSplineSet
EndChar
StartChar: w
Encoding: 87 119 32767
OldEncoding: 119
Width: 553
Flags: W
Fore
41.4141 423.921 m 0
 51.8428 444.829 60.0566 444.674 77.9209 423.229 c 0
 87.5742 411.642 92.9756 391.063 95.8076 355.093 c 0
 98.04 326.731 103.845 296.715 108.716 288.34 c 0
 113.594 279.953 128.494 222.97 141.908 161.404 c 0
 155.322 99.8398 168.16 54.3467 170.505 60.0645 c 0
 183.823 92.5381 204.722 151.375 214.731 184.578 c 0
 228.287 229.541 245.138 253.753 262.877 253.753 c 0
 281.508 253.753 341.807 192.879 358.808 156.908 c 0
 366.98 139.615 379.584 118.709 387.166 109.87 c 2
 400.812 93.96 l 1
 408.925 116.787 l 2
 413.388 129.343 422.741 170.743 429.711 208.789 c 0
 452.646 333.994 473.841 417.715 486.099 431.53 c 0
 498.816 445.864 524.674 429.455 518.802 410.778 c 0
 501.576 355.996 492.578 318.085 482.188 256.52 c 0
 468.996 178.353 429.845 33.3359 419.252 23.4023 c 0
 415.758 20.125 405.975 18.2656 398.599 19.4766 c 0
 386.671 21.4336 366.144 53.8389 309.348 160.367 c 0
 305.352 167.861 294.325 181.812 285.29 190.804 c 0
 265.828 210.173 265.828 210.173 238.29 132.697 c 0
 227.472 102.261 215.799 71.1318 212.351 63.5234 c 0
 208.883 55.8701 200.666 35.1621 193.961 17.1768 c 0
 181.584 -16.0273 165.396 -28.4316 150.022 -16.4922 c 0
 137.446 -6.72461 112.323 82.2002 94.1943 181.119 c 0
 89.9561 204.243 80.0547 244.068 71.835 271.046 c 0
 63.6162 298.024 57.083 329.577 57.083 342.296 c 0
 57.083 354.747 51.7188 374.87 45.2812 386.567 c 0
 36.1445 403.169 35.2705 411.604 41.4141 423.921 c 0
EndSplineSet
EndChar
StartChar: x
Encoding: 88 120 32767
OldEncoding: 120
Width: 463
Flags: W
Fore
55.9893 398.655 m 0
 67.8975 425.118 88.0029 423.95 98.1455 396.207 c 0
 105.604 375.808 230.444 239.539 241.675 239.539 c 0
 244.326 239.539 262.168 265.242 281.606 297.065 c 0
 301.046 328.889 325.686 369.176 336.753 387.231 c 0
 357.259 420.687 372.79 424.919 387.659 401.104 c 0
 393.97 390.995 391.032 382.335 374.647 362.752 c 0
 363.041 348.88 350.959 329.165 347.893 319.097 c 0
 344.853 309.111 328.277 279.521 311.556 254.227 c 0
 294.833 228.931 280.809 204.552 280.808 200.779 c 0
 280.808 197.004 311.556 166.704 348.292 134.277 c 0
 385.029 101.85 417.973 67.6465 420.596 59.207 c 0
 432.008 22.4873 397.764 15.5801 368.005 48.5986 c 0
 340.795 78.79 257.764 149.78 249.661 149.78 c 0
 245.686 149.78 219.9 115.51 191.952 73.0781 c 0
 141.968 -2.80762 124.271 -16.5332 105.68 6.16797 c 0
 98.2129 15.2852 107.933 35.1348 153.826 104.493 c 2
 211.327 191.396 l 1
 176.188 228.931 l 2
 157.09 249.33 129.745 276.896 116.29 289.313 c 0
 102.842 301.725 81.3184 327.257 69.1709 345.208 c 0
 49.8467 373.768 48.0566 381.025 55.9893 398.655 c 0
EndSplineSet
EndChar
StartChar: y
Encoding: 89 121 32767
OldEncoding: 121
Width: 418
Flags: W
Fore
282.37 388.802 m 0
 292.996 409.007 318.89 405.563 324.374 383.215 c 0
 326.838 373.176 321.46 341.711 312.505 313.776 c 0
 293.447 254.325 284.585 159.733 292.164 96.6797 c 2
 297.537 51.9834 l 1
 323.395 64.543 l 2
 378.244 91.1846 395.747 49.6514 341.417 21.7773 c 2
 308.507 4.89258 l 1
 304.59 -133.586 l 2
 302.444 -209.41 297.912 -276.398 294.572 -281.643 c 0
 285.695 -295.583 264.628 -294.179 224.666 -276.984 c 0
 198.631 -265.781 187.141 -254.505 174.112 -227.368 c 0
 151.887 -181.076 145.748 -140.524 157.802 -119.618 c 0
 163.171 -110.307 177.392 -83.7021 189.798 -59.7568 c 0
 202.204 -35.8125 222.751 -5.30566 236.027 8.88379 c 0
 257.849 32.2031 259.486 37.6172 254.862 71.1387 c 0
 247.486 124.615 243.332 126.914 215.912 92.6895 c 0
 202.483 75.9277 177.23 54.7549 161.197 46.8135 c 0
 122.803 27.7979 95.6914 36.5713 73.7002 75.1299 c 0
 59.5732 99.8994 57.8057 116.634 58.1025 222.787 c 0
 58.4531 348.097 65.7549 381.847 91.4609 376.965 c 0
 103.36 374.705 104.534 361.665 102.47 254.713 c 0
 100.021 127.808 105.554 89.0332 126.721 84.7656 c 0
 145.255 81.0293 206.767 146.963 227.19 192.458 c 0
 243.604 229.021 248.293 245.934 266.578 334.528 c 0
 271.19 356.876 278.139 380.757 282.37 388.802 c 0
264.628 -185.864 m 0
 264.198 -158.728 261.544 -114.752 258.751 -88.4902 c 2
 253.658 -40.6016 l 1
 231.718 -74.9219 l 2
 219.473 -94.0771 206.374 -118.412 202.074 -129.994 c 0
 193.778 -152.343 200.258 -204.222 211.346 -204.222 c 0
 215.106 -204.222 218.397 -209.809 218.397 -216.194 c 0
 218.397 -229.763 246.657 -247.13 257.576 -240.271 c 0
 261.873 -237.572 265.058 -213.002 264.628 -185.864 c 0
EndSplineSet
EndChar
StartChar: z
Encoding: 90 122 32767
OldEncoding: 122
Width: 439
Flags: W
Fore
243.329 419.744 m 0
 274.053 427.231 323.638 417.623 337.226 401.549 c 0
 354.711 380.861 349.048 323.489 324.335 270.977 c 2
 306.97 234.075 l 1
 336.23 230.527 l 2
 352.323 228.575 367.723 224.743 370.451 222.012 c 0
 378.871 213.58 349.397 198.68 314.285 193.616 c 0
 285.757 189.503 274.635 183.103 248.947 156.016 c 0
 220.682 126.211 175.945 51.0723 182.614 44.6035 c 0
 184.239 43.0264 200.17 44.9863 218.458 49.0127 c 0
 332.573 74.1396 407.918 76.6191 407.918 55.248 c 0
 407.918 44.0225 391.094 37.791 327.452 25.4434 c 0
 97.7588 -19.1221 100.155 -19.6533 141.708 66.6016 c 0
 156.408 97.1162 178.216 133.981 189.563 147.5 c 0
 200.881 160.983 210.411 174.771 210.411 177.659 c 0
 210.411 180.53 195.415 182.981 177.859 182.981 c 0
 160.303 182.981 142.8 186.904 139.864 191.497 c 0
 130.704 205.831 160.669 218.463 203.827 218.463 c 0
 241.866 218.463 247.674 220.519 259.966 238.333 c 0
 285.92 275.943 305.507 329.052 305.507 361.81 c 0
 305.507 379.816 303.312 381.66 282.099 381.474 c 0
 230.162 381.018 111.691 344.815 92.3457 323.489 c 0
 82.9375 313.117 74.3506 310.525 60.4521 313.861 c 0
 26.543 322 39.2383 341.158 97.0273 369.053 c 0
 129.034 384.503 200.901 409.403 243.329 419.744 c 0
EndSplineSet
EndChar
StartChar: braceleft
Encoding: 91 123 32767
OldEncoding: 123
Width: 250
Flags: W
Fore
99.0957 472.498 m 2
 108.12 498.035 l 1
 125.208 495.505 l 2
 134.424 494.14 143.654 490.43 145.245 487.452 c 0
 150.651 477.329 148.764 469.967 140.76 469.967 c 0
 136.536 469.967 133.08 472.038 133.08 474.568 c 0
 133.08 485.751 125.736 477.789 119.922 460.305 c 0
 114.229 443.183 114.013 434.997 118.028 388.524 c 0
 123.715 322.726 121.247 256.707 112.354 236.681 c 0
 107.021 224.669 106.559 218.735 109.848 204.472 c 0
 112.073 194.821 113.88 149.256 113.88 102.783 c 0
 113.88 55.8496 115.607 14.709 117.782 9.83594 c 0
 123.598 -3.19043 147.288 -10.9795 158.808 -3.65234 c 0
 171.166 4.20703 176.956 -3.04785 171.547 -19.6123 c 0
 168.009 -30.4473 165.72 -31.5752 147.288 -31.5752 c 0
 126.168 -31.5752 106.146 -19.1973 96.6768 -0.286133 c 0
 94.5176 4.02539 91.8984 49.8672 90.8398 101.862 c 2
 88.9199 196.189 l 1
 76.6318 197.648 l 2
 60.1201 199.609 59.5947 212.59 75.4805 226.133 c 0
 98.1787 245.486 102.616 295.577 92.4736 417.973 c 0
 90.4531 442.359 91.5039 451.015 99.0957 472.498 c 2
EndSplineSet
EndChar
StartChar: bar
Encoding: 92 124 32767
OldEncoding: 124
Width: 289
Flags: W
Fore
143.302 577.248 m 0
 156.605 580.919 162.268 581.72 162.808 580.008 c 0
 165.909 570.168 168.15 -36.4062 165.158 -56.3105 c 0
 161.26 -82.2461 148.618 -95.5449 138.211 -84.6582 c 0
 135.357 -81.6729 131.254 40.1924 129.092 186.153 c 0
 126.93 332.115 125.025 455.608 124.859 460.585 c 0
 124.692 465.576 126.59 493.154 129.092 522.105 c 0
 132.584 562.517 135.851 575.192 143.302 577.248 c 0
EndSplineSet
EndChar
StartChar: braceright
Encoding: 93 125 32767
OldEncoding: 125
Width: 268
Flags: W
Fore
93.0039 529.073 m 0
 98.5098 538.023 115.119 534.386 128.299 521.345 c 0
 140.812 508.963 140.949 508.061 138.062 457.343 c 0
 136.438 428.844 133.718 394.697 131.96 380.782 c 0
 127.444 345.038 133.543 303.139 144.896 291.905 c 0
 150.841 286.022 161.004 282.728 173.207 282.728 c 0
 197.614 282.728 202.319 272.15 186.315 253.263 c 0
 165.76 229.004 159.575 179.842 163.589 72.6094 c 0
 164.945 36.3818 163.295 17.4229 156.989 -3.22656 c 0
 147.55 -34.1406 138.037 -42.1982 113.654 -39.9365 c 0
 101.451 -38.8047 97.668 -35.9512 96.3604 -26.8945 c 0
 94.2686 -12.4043 103.101 -2.92578 111.214 -10.9551 c 0
 114.631 -14.3359 118.495 -16.751 120.488 -16.751 c 0
 130.848 -16.751 136.152 25.7559 137.306 118.015 c 0
 138.241 192.884 140.362 222.242 145.871 236.599 c 2
 153.193 255.678 l 1
 139.037 262.44 l 2
 131.386 266.096 119.805 277.414 113.832 287.075 c 0
 101.654 306.773 100.737 329.581 107.737 438.746 c 0
 111.609 499.125 111.444 500.846 100.719 512.167 c 0
 94.7695 518.446 91.2334 526.194 93.0039 529.073 c 0
EndSplineSet
EndChar
StartChar: asciitilde
Encoding: 94 126 32767
OldEncoding: 126
Width: 487
Flags: W
Fore
372.542 580.111 m 0
 380.71 596.414 384.731 599.881 394.155 598.743 c 0
 403.418 597.626 405.502 594.551 404.576 583.372 c 0
 403.115 565.74 369.197 521.67 346.041 507.314 c 0
 322.631 492.803 304.873 495.944 263.705 521.881 c 0
 200.924 561.434 182.572 565.691 159.241 546.118 c 0
 151.522 539.643 143.174 534.462 140.458 534.462 c 0
 137.77 534.462 129.42 526.077 121.904 515.829 c 0
 107.215 495.799 92.7559 492.827 90.1758 509.308 c 0
 88.2031 521.902 124.248 558.6 154.095 574.386 c 0
 171.592 583.639 181.529 586.005 194.748 584.064 c 0
 218.935 580.514 247.605 568.066 268.336 552.116 c 0
 278.113 544.593 293.552 535.263 303.329 530.968 c 2
 320.825 523.282 l 1
 341.666 541.682 l 2
 353.299 551.951 366.941 568.932 372.542 580.111 c 0
EndSplineSet
EndChar
StartChar: uni0E01
Encoding: 96 3585 32767
OldEncoding: 3585
Width: 526
Flags: W
Fore
223.406 408.96 m 0
 270.966 429.929 283.597 432.511 326.034 429.936 c 0
 387.778 426.189 412.331 412.208 437.105 366.684 c 0
 455.288 333.272 457.506 317.043 462.455 181.146 c 0
 466.686 64.9648 465.603 29.9014 457.528 21.6611 c 0
 443.729 7.5791 432 7.5791 432 21.6611 c 0
 432 27.2939 427.717 30.0869 422.822 27.6465 c 0
 416.319 24.4043 414.13 60.7402 415.312 152.277 c 0
 416.231 223.394 416.419 283.067 415.729 285.005 c 0
 415.052 286.912 412.73 296.271 410.664 305.425 c 0
 402.559 341.335 374.011 383.802 353.568 390.356 c 0
 317.353 401.971 215.274 368.797 174.562 332.182 c 0
 158.119 317.395 156.49 312.213 164.383 299.792 c 0
 185.409 266.698 197.48 21.2529 178.857 5.4668 c 0
 152.257 -17.083 131.946 16.7324 146.715 58.9805 c 0
 151.638 73.0625 154.163 96.3555 152.211 109.678 c 0
 126.834 282.893 128.052 279.302 103.517 253.319 c 0
 88.8896 237.828 80.9668 234.693 66.5439 238.69 c 0
 44.8496 244.702 42.3838 258.261 60.7031 270.803 c 0
 67.3779 275.373 73.2188 284.301 73.2188 289.934 c 0
 73.2188 309.298 168.338 384.681 223.406 408.96 c 0
EndSplineSet
EndChar
StartChar: uni0E02
Encoding: 97 3586 32767
OldEncoding: 3586
Width: 520
Flags: W
Fore
420.627 440.593 m 0
 430.623 443.955 441.912 443.619 446.525 439.82 c 0
 456.992 431.203 453.728 235.903 442.026 170.722 c 0
 433.037 120.643 385.066 6.99414 369.284 -1.61426 c 0
 354.719 -9.55859 324.898 10.9453 312.866 37.1768 c 0
 289.897 87.2559 246.506 282.761 255.527 295.521 c 0
 258.524 299.762 254.786 305.511 247.517 307.843 c 0
 239.943 310.271 233.886 318.574 233.886 326.523 c 0
 233.886 336.578 225.67 332.088 206.251 311.42 c 0
 152.475 254.187 60.4697 253.706 54.0244 310.625 c 0
 51.6553 331.548 58.5039 341.461 99.3955 376.3 c 0
 191.585 454.844 242.397 438.605 287.49 316.189 c 0
 296.859 290.752 307.617 256.558 310.997 241.468 c 0
 328.444 163.567 354.685 74.5381 360.197 74.5381 c 0
 368.427 74.5381 390.698 120.643 394.373 145.284 c 0
 396.068 156.657 398.681 226.365 400.181 300.291 c 0
 402.713 425.092 404.165 435.054 420.627 440.593 c 0
194.11 363.884 m 0
 188.157 385.495 184.815 386.793 158.462 377.728 c 0
 140.602 371.584 106.665 329.703 106.665 313.805 c 0
 106.665 306.377 114.844 304.98 135.744 308.838 c 0
 178.454 316.722 201.194 338.168 194.11 363.884 c 0
EndSplineSet
EndChar
StartChar: uni0E03
Encoding: 98 3587 32767
OldEncoding: 3587
Width: 532
Flags: W
Fore
128.314 424.455 m 0
 137.057 432.744 151.628 439.651 160.371 439.651 c 0
 179.969 439.651 215.882 404.812 228.377 373.678 c 0
 233.435 361.076 239.738 350.865 242.335 351.068 c 0
 244.94 351.272 261.333 371.454 278.764 395.916 c 0
 302.533 429.273 314.282 439.853 325.757 438.231 c 0
 356.242 433.923 366.275 389.985 381.633 193.546 c 0
 385.343 146.104 391.746 100.771 395.771 93.4727 c 0
 404.735 77.2119 405.111 80.1289 403.874 156.481 c 0
 403.285 192.805 405.447 209.709 410.271 206.518 c 0
 415.202 203.257 417.086 233.204 416.1 299.179 c 0
 414.803 385.909 416.089 397.579 427.757 405.02 c 0
 448.122 418.004 463.922 392.21 458.762 354.404 c 0
 456.529 338.051 451.446 269.897 447.428 202.441 c 0
 443.41 134.984 438.126 71.1523 435.646 60.1143 c 0
 430.983 39.3584 402.107 2.29395 390.6 2.29395 c 0
 372.986 2.29395 366.303 20.8262 341.677 137.949 c 0
 340.142 145.248 336.798 190.58 334.294 238.022 c 0
 328.544 346.991 326.119 373.224 321.386 377.669 c 0
 319.365 379.566 305.732 364.411 290.785 343.655 c 0
 269.967 314.745 259.349 306.221 244.157 306.221 c 0
 233.229 306.221 220.6 310.174 215.742 315.116 c 0
 208.84 322.139 204.086 321.202 193.157 310.668 c 0
 182.083 299.994 173.121 298.586 148.35 303.626 c 0
 122.85 308.815 114.942 314.768 103.543 337.354 c 0
 90.8223 362.559 90.6152 366.585 100.992 387.021 c 0
 107.392 399.622 119.231 415.844 128.314 424.455 c 0
176.803 375.901 m 0
 161.867 409.443 132.213 398.14 128.184 357.369 c 0
 126.379 339.111 139.242 328.919 164.742 328.4 c 0
 177.633 328.138 185.054 357.369 176.803 375.901 c 0
EndSplineSet
EndChar
StartChar: uni0E04
Encoding: 99 3588 32767
OldEncoding: 3588
Width: 486
Flags: W
Fore
208.92 396.273 m 0
 266.113 434.597 331.199 418.753 361.137 359.22 c 0
 378.7 324.293 383.818 288.21 390.435 152.646 c 0
 392.85 103.153 396.396 55.916 398.352 47.2061 c 0
 403.662 23.5361 394.811 10.0137 376.222 13.4004 c 0
 366.927 15.0938 357.964 19.4375 355.309 23.5361 c 0
 352.74 27.501 349.449 74.8213 347.95 129.334 c 0
 346.452 183.847 344.81 242.396 344.278 260.236 c 0
 343.188 296.817 319.37 350.708 295.669 370.218 c 0
 280.36 382.819 277.854 382.932 253.068 372.131 c 0
 238.353 365.718 215.116 350.845 200.399 338.419 c 2
 174.065 316.184 l 1
 200.787 305.424 l 2
 215.503 299.499 231.858 294.504 237.19 294.307 c 0
 242.211 294.12 246.872 289.285 246.872 284.265 c 0
 246.872 279.101 252.294 274.581 258.49 274.581 c 0
 264.997 274.581 274.017 266.691 278.99 256.649 c 0
 298.728 216.798 252.294 171.468 183.359 163.291 c 0
 170.192 161.729 157.941 158.515 155.089 155.873 c 0
 152.338 153.325 149.605 119.65 149.065 81.6348 c 0
 147.73 -12.3281 147.73 -12.3281 130.69 -12.3281 c 0
 110.731 -12.3281 106.887 -4.4375 103.427 43.6191 c 0
 101.826 65.8555 98.3633 89.9023 95.8359 96.3389 c 0
 93.3008 102.795 94.709 110.192 98.9346 112.614 c 0
 107.221 117.365 101.258 145.473 91.9629 145.473 c 0
 81.1885 145.473 79.0859 212.179 88.8887 243.021 c 0
 109.635 308.293 144.992 353.438 208.92 396.273 c 0
225.186 262.029 m 0
 203.498 279.289 197.495 280.531 177.163 271.974 c 0
 160.306 264.877 158.101 259.877 160.123 233.338 c 0
 162.256 205.364 164.169 202.854 183.359 202.854 c 0
 228.283 202.854 253.937 239.148 225.186 262.029 c 0
EndSplineSet
EndChar
StartChar: uni0E05
Encoding: 100 3589 32767
OldEncoding: 3589
Width: 532
Flags: W
Fore
159.518 408.9 m 0
 189.248 425.825 206.26 427.179 248.829 416.007 c 0
 278.785 408.145 303.193 380.324 314.73 340.892 c 0
 320.438 321.387 321.418 321.949 347.739 359.835 c 0
 362.78 381.484 380.445 400.887 387.387 403.383 c 0
 428.971 418.338 451.493 399.654 465.511 338.572 c 0
 476.866 289.089 477.824 21.8369 466.682 11.5166 c 0
 462.55 7.68945 451.657 6.81934 442.477 9.58398 c 0
 426.607 14.3604 425.762 21.5684 425.365 155.328 c 0
 425.136 232.646 423.256 306.498 421.191 319.243 c 0
 419.063 332.387 417.142 347.129 416.757 353.263 c 0
 414.55 388.491 340.645 273.625 340.645 234.966 c 0
 340.645 206.358 332.148 191.668 315.604 191.668 c 0
 297.856 191.668 292.272 204.812 289.328 253.522 c 0
 288.159 272.852 284.999 291.752 282.217 296.048 c 0
 279.462 300.3 272.155 317.696 265.979 334.707 c 0
 252.221 372.593 234.556 386.356 207.095 380.587 c 0
 179.044 374.694 158.332 356.355 143.923 324.655 c 0
 137.245 309.965 131.974 297.685 131.974 296.82 c 0
 131.974 295.971 146.998 296.666 165.36 298.367 c 0
 237.144 305.017 273.87 280.155 273.87 224.915 c 0
 273.87 193.214 271.764 190.078 242.986 178.91 c 0
 225.439 172.102 196.244 168.095 175.377 169.632 c 2
 138.65 172.338 l 1
 141.572 79.5566 l 2
 144.372 -9.35938 143.763 -13.3271 126.965 -15.6611 c 0
 103.848 -18.873 92.1865 -4.7207 86.7334 33.166 c 0
 80.501 76.4639 78.0264 86.1875 70.4014 97.3398 c 0
 66.6533 102.822 62.2012 134.452 60.6074 166.926 c 0
 58.1436 217.137 61.4092 236.513 81.458 290.635 c 0
 109.813 367.181 124.006 388.683 159.518 408.9 c 0
224.623 259.627 m 0
 210.434 269.312 194.519 276.718 187.897 276.718 c 0
 171.379 276.718 148.667 251.203 148.667 232.646 c 0
 148.667 219.431 155.345 215.772 184.559 212.982 c 0
 247.994 206.925 267.895 230.092 224.623 259.627 c 0
EndSplineSet
EndChar
StartChar: uni0E06
Encoding: 101 3590 32767
OldEncoding: 3590
Width: 658
Flags: W
Fore
265.04 408.673 m 2
 297.953 447.513 318.204 452.927 340.981 428.976 c 0
 356.224 412.948 385.473 319.52 385.473 286.859 c 0
 385.473 274.17 393.867 267.459 415.319 262.997 c 0
 448.897 256.013 484.801 236.41 507.419 212.712 c 0
 515.844 203.885 524.863 196.823 527.713 196.823 c 0
 530.53 196.823 530.529 247.579 527.713 309.368 c 0
 523.448 402.936 524.942 423.774 536.574 432.948 c 0
 544.698 439.354 556.628 441.945 565.022 439.127 c 0
 576.911 435.135 580.723 403.377 586.476 260.378 c 0
 590.311 165.045 593.892 74.7197 594.403 60.4443 c 0
 595.035 42.79 590.38 33.4092 579.946 31.3145 c 0
 568.856 29.0889 555.821 44.9971 533.294 88.25 c 0
 497.435 157.101 443.811 214.477 415.319 214.477 c 0
 397.909 214.477 395.439 210.063 399.021 185.348 c 0
 414.115 81.1875 414.08 55.5273 398.813 33.5215 c 0
 381.666 8.80566 343.914 3.56055 335.279 24.6943 c 0
 332.033 32.6387 325.428 36.4844 320.182 33.4844 c 0
 303.716 24.0703 280.281 73.2432 276.414 125.323 c 0
 272.81 173.872 274.35 178.483 306.19 214.477 c 0
 331.179 242.724 338.576 258.305 335.105 275.384 c 0
 332.552 287.952 327.741 315.106 324.472 335.408 c 0
 317.792 376.896 309.007 382.276 289.881 356.594 c 0
 271.476 331.878 228.774 315.106 215.716 327.464 c 0
 203.14 339.366 180.272 325.698 180.272 306.279 c 0
 180.272 294.779 126.175 275.296 113.116 282.093 c 0
 108.999 284.235 105.654 291.714 105.654 298.775 c 0
 105.654 305.838 99.8008 311.575 92.5967 311.575 c 0
 77.0322 311.575 66.1465 347.767 74.8076 370.717 c 0
 83.1357 392.784 131.63 435.154 148.56 435.154 c 0
 155.591 435.154 178.407 420.691 197.994 403.818 c 2
 234.371 372.482 l 1
 265.04 408.673 l 2
164.002 370.717 m 0
 171.975 382.7 141.098 401.67 128.04 392.812 c 0
 114.981 383.952 112.03 323.313 124.309 316.154 c 0
 138.591 307.827 162.83 328.347 159.566 346.001 c 0
 158.097 353.945 160.037 364.759 164.002 370.717 c 0
357.024 105.021 m 0
 356.768 128.854 353.627 155.209 350.029 163.722 c 0
 344.37 177.109 341.271 175.638 326.783 152.688 c 0
 308.396 123.558 311.985 101.304 338.836 77.9756 c 0
 357.11 62.0986 357.481 62.6514 357.024 105.021 c 0
EndSplineSet
EndChar
StartChar: uni0E07
Encoding: 102 3591 32767
OldEncoding: 3591
Width: 334
Flags: W
Fore
117.979 409.618 m 0
 151.749 436.663 187.997 441.552 223.427 423.838 c 0
 266.59 402.259 285.04 308.128 281.487 127.629 c 0
 279.179 10.3809 278.525 6.45117 260.966 4.20996 c 0
 250.844 2.91895 235.934 8.37207 227.223 16.5518 c 0
 218.553 24.6943 194.745 41.7168 173.656 54.8525 c 0
 114.605 91.6318 96.2432 108.676 99.4092 123.771 c 0
 104.621 148.62 130.634 143.356 182.092 107.04 c 0
 211.617 86.2031 233.061 75.4971 233.558 81.3467 c 0
 237.092 123 232.91 303.742 228.008 321.241 c 2
 221.74 343.61 l 1
 201.4 319.698 l 2
 177.199 291.246 155.098 279.502 117.137 274.922 c 0
 82.5498 270.749 47.1191 289.504 47.1191 311.984 c 0
 47.1191 332.912 81.7061 380.566 117.979 409.618 c 0
198.787 376.779 m 0
 185.569 391.628 166.907 391.215 139.069 375.457 c 0
 117.979 363.52 92.7588 320.554 101.952 312.226 c 0
 108.057 306.694 165.22 334.354 165.22 342.839 c 0
 165.22 346.577 175.343 353.342 187.153 357.495 c 0
 205.712 364.021 207.502 366.989 198.787 376.779 c 0
EndSplineSet
EndChar
StartChar: uni0E08
Encoding: 103 3592 32767
OldEncoding: 3592
Width: 358
Flags: W
Fore
181.715 416.952 m 0
 214.886 440.7 232.886 444.601 255 432.833 c 0
 268.28 425.766 272.096 416.438 282.4 365.844 c 0
 289.459 331.182 286.938 132.216 278.686 72.6934 c 0
 271.259 19.1221 263.097 1.88574 244.972 1.49707 c 0
 235.806 1.30078 233.39 14.6582 229 89.8057 c 0
 226.74 128.496 221.296 163.236 216.814 167.558 c 0
 211.415 172.767 208.715 172.395 208.715 166.441 c 0
 208.715 161.68 203.314 157.514 197.144 157.514 c 0
 190.715 157.514 179.4 153.802 171.687 149.163 c 0
 139.286 129.678 54.4287 160.489 54.4287 191.739 c 0
 54.4287 209.596 69.9033 233.006 78.3428 227.918 c 0
 82.2002 225.593 85.3838 229.685 85.5068 237.125 c 0
 85.8047 255.245 116.144 275.287 151.629 280.808 c 0
 176.314 284.647 187.046 281.949 211.415 265.771 c 0
 227.614 255.016 242.518 247.406 244.2 249.03 c 0
 247.932 252.628 233.249 365.1 227.98 373.284 c 0
 215.999 391.896 192.515 385.025 155.486 352.077 c 0
 117.687 318.441 83.4297 305.887 73.2705 321.945 c 0
 67.2402 331.477 88.3721 354.684 123.857 377.5 c 0
 138.708 387.049 164.743 404.802 181.715 416.952 c 0
196.372 234.661 m 0
 159.343 255.533 147.91 254.16 123.964 225.965 c 0
 96.1602 193.228 95.7559 188.849 120 183.055 c 0
 153.172 175.127 189.572 185.701 201.121 206.62 c 0
 210.568 223.732 210.021 226.969 196.372 234.661 c 0
EndSplineSet
EndChar
StartChar: uni0E09
Encoding: 104 3593 32767
OldEncoding: 3593
Width: 505
Flags: W
Fore
285.743 429.739 m 0
 315.102 444.496 316.627 444.496 348.303 429.752 c 0
 390.262 410.221 400.567 383.77 400.567 295.605 c 0
 400.567 220.59 401.32 217.207 419.573 210.213 c 0
 449.552 198.724 461.535 174.961 458.02 133.973 c 0
 453.442 80.6104 432.952 43.9551 406.111 41.1133 c 0
 391.065 39.5195 384.729 42.1719 384.729 50.0625 c 0
 384.729 56.5742 379.582 63.2227 372.455 65.917 c 0
 365.637 68.4941 361.174 76.7441 362.414 84.4775 c 0
 368.277 121.036 350.038 113.865 295.537 58.1826 c 0
 239.522 0.954102 209.276 -16.3984 193.092 -0.592773 c 0
 180.254 11.9453 171.55 69.0098 169.973 150.986 c 0
 169.184 191.975 168.188 225.229 167.751 225.229 c 0
 167.315 225.229 149.538 216.578 128.157 205.961 c 0
 50.5518 167.424 -9.49707 219.37 45.9854 277.045 c 0
 96.5752 329.634 142.604 336.203 181.439 296.379 c 0
 198.002 279.396 202.793 264.671 207.105 217.496 c 0
 218.56 92.2109 222.929 58.9561 227.936 58.9561 c 0
 230.527 58.9561 260.043 87.957 292.87 122.759 c 2
 353.054 186.562 l 1
 352.263 269.698 l 2
 351.791 319.193 347.305 363.788 341.176 379.902 c 0
 335.587 394.597 330.52 402.728 330.089 397.689 c 0
 329.652 392.569 324.15 390.316 317.815 392.663 c 0
 311.479 395.01 285.743 384.436 260.402 369.075 c 0
 235.062 353.715 210.036 341.234 204.574 341.234 c 0
 199.031 341.234 194.676 337.831 194.676 333.501 c 0
 194.676 320.93 165.132 324.22 159.954 337.367 c 0
 156.988 344.899 162.208 356.241 173.295 366.353 c 0
 192.3 383.687 258.267 424.284 260.656 420.117 c 0
 261.41 418.803 272.281 422.972 285.743 429.739 c 0
144.786 274.867 m 0
 127.139 291.98 119.446 290.317 90.9375 263.229 c 0
 71.9326 245.17 68.2695 237.507 76.2881 232.576 c 0
 82.665 228.655 96.085 230.684 109.548 237.604 c 0
 122.218 244.116 135.59 247.106 140.035 244.422 c 0
 153.497 236.293 157.581 262.461 144.786 274.867 c 0
412.451 126.239 m 0
 417.066 157.174 415.878 163.36 405.319 163.36 c 0
 393.124 163.36 387.3 135.52 392.376 101.491 c 0
 397.068 70.0391 405.645 80.6104 412.451 126.239 c 0
EndSplineSet
EndChar
StartChar: uni0E0A
Encoding: 105 3594 32767
OldEncoding: 3594
Width: 457
Flags: W
Fore
381.206 517.799 m 0
 425.441 543.052 429.414 544.098 436.819 532.435 c 0
 443.542 521.847 404.174 469.545 383.758 461.94 c 0
 375.471 458.854 353.809 439.91 336.545 420.651 c 2
 304.644 385.065 l 1
 322.934 362.457 l 2
 339.526 341.947 340.781 332.313 336.459 258.629 c 0
 328.943 130.518 288.763 12.4688 249.35 2.70605 c 0
 200.226 -9.46191 194.055 10.7803 194.055 184.106 c 0
 194.055 257.791 190.86 298.82 185.123 298.82 c 0
 180.338 298.82 165.132 290.786 152.371 281.516 c 0
 123.448 260.503 43.3096 261.414 29.6602 282.911 c 0
 18.0039 301.269 28.1709 332.679 53.6914 357.154 c 0
 65.6016 368.576 82.4424 385.323 90.1797 393.438 c 0
 109.723 413.936 147.268 432.793 168.534 432.793 c 0
 178.538 432.793 195.756 423.582 207.666 411.859 c 0
 232.08 387.828 229.783 386.778 299.54 453.878 c 0
 324.21 477.608 360.331 505.881 381.206 517.799 c 0
177.221 369.156 m 0
 167.225 394.939 165.132 395.035 121.747 371.707 c 0
 82.6152 350.665 74.9248 342.574 74.748 322.266 c 0
 74.5879 303.845 119.12 301.961 134.124 319.754 c 0
 140.008 326.731 151.521 332.313 160.027 332.313 c 0
 181.488 332.313 186.958 344.036 177.221 369.156 c 0
280.258 343.199 m 0
 273.483 355.759 265.796 365.505 262.96 365.128 c 0
 238.549 361.881 236.653 352.409 237.457 237.695 c 0
 237.915 172.384 240.975 107.474 244.245 93.6758 c 0
 250.002 69.3926 250.53 69.1416 260.104 86.1396 c 0
 285.101 130.518 299.044 308.367 280.258 343.199 c 0
EndSplineSet
EndChar
StartChar: uni0E0B
Encoding: 106 3595 32767
OldEncoding: 3595
Width: 529
Flags: W
Fore
421.59 439.147 m 0
 471 477.701 497.185 487.712 506.932 471.775 c 0
 515.139 458.356 503.4 442.159 461.28 408.786 c 0
 374.61 340.116 376.599 342.538 392.349 324.798 c 0
 399.639 316.587 406.2 306.475 406.2 303.449 c 0
 406.2 300.217 411.692 291.954 418.755 284.564 c 0
 428.646 274.213 430.279 259.931 426.45 217.233 c 0
 423.799 187.674 418.276 149.979 414.3 134.303 c 0
 410.268 118.404 402.787 88.3213 397.559 66.9727 c 0
 386.497 21.8115 358.303 -13.4951 333.3 -13.4951 c 0
 297.597 -13.4951 277.507 77.6465 263.801 301.808 c 2
 258.78 383.917 l 1
 220.804 340.399 l 2
 181.394 295.238 161.584 291.016 151.47 325.619 c 2
 146.19 343.684 l 1
 132.199 323.156 l 2
 96.9424 271.427 73.7285 262.445 42.5098 288.456 c 0
 31.4092 297.705 23.6709 316.177 20.2354 341.631 c 0
 15.3584 377.759 16.999 382.721 42.5098 408.961 c 0
 57.6768 424.562 78.7842 439.481 89.4902 442.169 c 0
 112.98 448.064 155.1 432.281 155.1 417.582 c 0
 155.1 411.625 161.363 399.107 169.275 389.255 c 2
 183.45 371.601 l 1
 214.582 409.371 l 2
 263.745 469.02 292.16 459.459 304.879 378.991 c 0
 307.604 361.748 311.078 347.789 312.646 347.789 c 0
 314.168 347.789 328.035 359.566 342.615 373.243 c 0
 357.454 387.163 393.24 417.026 421.59 439.147 c 0
114.6 397.055 m 0
 114.6 411.702 75.3457 402.803 63.8975 385.56 c 0
 60.583 380.568 57.9004 362.568 57.9004 345.325 c 0
 57.9004 303.78 73.5596 308.376 88.6797 354.357 c 0
 94.8896 373.243 103.318 388.844 107.31 388.844 c 0
 111.684 388.844 114.6 392.128 114.6 397.055 c 0
374.61 272.658 m 0
 361.494 298.934 352.965 306.733 337.35 306.733 c 0
 318.787 306.733 317.124 303.449 317.385 267.321 c 0
 317.812 208.202 331.988 60.7979 338.231 50.5508 c 0
 347.202 35.8271 360.015 67.7939 371.799 134.303 c 0
 377.764 167.968 384.729 205.563 387.165 217.233 c 0
 389.956 230.609 385.267 251.31 374.61 272.658 c 0
EndSplineSet
EndChar
StartChar: uni0E0C
Encoding: 107 3596 32767
OldEncoding: 3596
Width: 649
Flags: W
Fore
206.02 422.343 m 0
 223.441 428.623 263.176 434.05 293.436 434.281 c 0
 341.347 434.646 353.496 431.333 382.533 409.979 c 0
 420.128 382.332 433.182 349.084 447.381 244.813 c 0
 454.538 192.255 460.118 175.928 473.312 168.942 c 0
 482.48 164.087 500.629 152.913 513.237 144.358 c 2
 536.352 128.676 l 1
 537.192 207.514 l 2
 537.653 250.748 540.5 313.151 543.496 345.693 c 0
 548.18 396.557 551.361 405.342 565.771 407.184 c 0
 601.779 411.787 606.685 399.101 596.43 327.892 c 0
 591.108 290.942 585.466 205.818 583.843 138 c 0
 582.22 70.1826 578.174 8.62012 574.817 0.668945 c 0
 565.237 -22.0244 544.757 -17.9814 544.757 6.60254 c 0
 544.757 37.9688 511.836 94.9268 485.919 108.399 c 2
 463.225 120.198 l 1
 453.839 63.4004 l 2
 440.811 -15.4385 406.429 -42.4014 362.359 -8.33984 c 0
 348.367 2.47559 341.519 18.8945 337.563 51.1084 c 0
 333.817 81.627 335.139 95.6143 341.767 95.6143 c 0
 347.405 95.6143 351.433 99.8525 351.433 105.787 c 0
 351.433 111.438 364.882 128.393 381.692 143.935 c 2
 411.952 171.909 l 1
 402.075 229.555 l 2
 377.094 375.364 355.306 399.766 263.176 385.114 c 0
 218.627 378.03 145.28 346.931 122.806 325.598 c 0
 116.555 319.664 128.71 247.357 154.771 135.457 c 0
 165.826 87.9844 170.643 78.8594 182.063 83.7461 c 0
 189.769 87.043 209.382 91.375 226.192 93.4951 c 0
 252.249 96.7793 257.152 94.6602 261.495 78.2354 c 0
 264.68 66.1895 260.345 50.2607 249.728 35.002 c 0
 235.719 14.8682 227.033 10.8408 197.614 10.8408 c 0
 177.44 10.8408 150.783 3.75684 135.414 -5.68945 c 0
 111.879 -20.1533 107.256 -20.6309 98.4297 -9.50391 c 0
 90.3604 0.668945 92.7979 7.87402 110.618 26.5244 c 0
 122.768 39.2402 131.364 51.5703 129.53 53.6514 c 0
 127.681 55.75 120.23 87.9844 112.973 125.284 c 0
 85.5938 266.007 80.1289 283.618 59.7646 296.763 c 0
 48.8379 303.815 40.4326 313.664 40.4326 319.414 c 0
 40.4326 331.265 160.63 405.979 206.02 422.343 c 0
406.094 66.791 m 0
 409.277 87.9844 410.033 107.688 407.749 109.952 c 0
 399.582 118.047 375.445 71.0303 378.193 52.3799 c 0
 383.334 17.502 399.98 26.1006 406.094 66.791 c 0
EndSplineSet
EndChar
StartChar: uni0E0D
Encoding: 108 3597 32767
OldEncoding: 3597
Width: 652
Flags: W
Fore
450.736 -88.667 m 0
 464.403 -79.3018 469.008 -80.1191 489.106 -95.4814 c 0
 505.551 -108.051 505.599 -109.398 490.02 -121.088 c 0
 467.247 -138.175 472.662 -178.451 498.242 -182.248 c 0
 510.882 -184.124 530.362 -171.595 555.341 -145.525 c 0
 582.103 -117.594 596.21 -108.968 603.303 -116.197 c 0
 610.355 -123.385 608.993 -134.353 598.735 -152.974 c 0
 590.529 -167.871 581.751 -186.042 578.721 -194.405 c 0
 572.162 -212.51 527.477 -240.027 504.637 -240.027 c 0
 480.301 -240.027 432.262 -193.475 424.892 -162.75 c 0
 418.862 -137.611 431.287 -101.995 450.736 -88.667 c 0
511.221 425.674 m 0
 528.285 446.743 554.402 443.363 561.591 419.156 c 0
 564.975 407.762 568.89 367.483 570.414 328.379 c 0
 571.939 289.275 576.157 230.406 579.92 195.704 c 0
 591.229 91.4268 584.742 76.3086 507.378 26.6533 c 0
 383.188 -53.0566 376.49 -43.5752 350.478 248.774 c 0
 345.59 303.706 340.922 316.872 318.268 339.62 c 0
 286.597 371.422 271.676 369.811 183.972 325.12 c 0
 144.688 305.103 128.45 291.835 130.984 281.826 c 0
 132.979 273.955 139.833 230.153 146.065 185.463 c 0
 158.661 95.1514 165.65 86.2188 209.552 104.328 c 0
 225.083 110.735 246.856 113.214 259.799 110.048 c 0
 278.07 105.579 282.639 98.875 282.639 76.5303 c 0
 282.639 44.874 239.437 -7.26465 213.207 -7.26465 c 0
 204.099 -7.26465 183.516 -12.249 167.071 -18.4375 c 0
 144.231 -27.0312 132.109 -27.1201 114.54 -18.8232 c 0
 86.2197 -5.44824 84.1357 11.5186 109.973 18.3711 c 0
 126.063 22.6396 128.2 28.1152 123.22 52.3223 c 0
 119.996 67.9912 115.193 96.082 112.713 113.772 c 0
 103.839 177.083 79.29 262.729 67.0342 273.137 c 0
 46.5117 290.566 53.3311 313.73 84.3926 332.101 c 0
 183.972 390.993 223.93 406.267 279.897 406.831 c 0
 375.285 407.794 396.947 368.88 411.417 170.566 c 0
 416.444 101.668 422.445 42.9814 424.699 40.6846 c 0
 426.987 38.3525 452.106 53.2178 481.341 74.2021 c 0
 530.674 109.614 533.814 114.12 532.934 148.221 c 0
 531.801 192.113 523.099 266.464 509.505 348.396 c 0
 501.318 397.742 501.677 413.89 511.221 425.674 c 0
233.696 50.4609 m 0
 236.751 55.4883 237.325 60.1582 235.133 62.1348 c 0
 229.974 66.7852 191.28 45.8057 191.28 38.3574 c 0
 191.28 29.1211 226.91 39.2881 233.696 50.4609 c 0
EndSplineSet
EndChar
StartChar: uni0E0E
Encoding: 109 3598 32767
OldEncoding: 3598
Width: 475
Flags: W
Fore
243.795 383.785 m 0
 313.124 430.374 342.635 437.423 365.12 412.765 c 0
 394.052 381.036 404.332 322.343 411.635 147.201 c 0
 415.574 52.7061 421.168 -68.5361 424.132 -123.658 c 0
 428.949 -213.265 428.064 -223.997 415.466 -228.833 c 0
 395.271 -236.584 376.709 -223.447 360.661 -190.049 c 0
 353.225 -174.571 340.737 -156.51 333.345 -150.54 c 0
 321.744 -141.172 316.425 -142.602 297.442 -160.19 c 0
 258.376 -196.389 215.733 -209.042 169.515 -198.15 c 0
 98.5352 -181.426 88.5791 -136.934 143.093 -80.0762 c 0
 170.561 -51.4277 174.054 -50.1367 213.67 -54.0088 c 0
 240.906 -56.6699 261.928 -64.1982 274.333 -75.7314 c 0
 295.792 -95.6836 312.299 -98.2812 312.299 -81.7051 c 0
 312.299 -75.2803 325.091 -60.6973 341.598 -48.3066 c 2
 370.897 -26.3115 l 1
 366.021 112.987 l 2
 361.517 241.695 341.553 391.327 329.631 385.754 c 0
 326.904 384.479 291.665 361.471 251.224 334.562 c 0
 180.244 287.332 178.658 285.598 204.179 283.104 c 0
 243.084 279.302 258.1 251.471 251.57 195.263 c 0
 248.637 170.01 241.297 140.008 235.129 128.058 c 0
 229.052 116.282 221.549 94.251 218.622 79.5879 c 0
 215.696 64.9248 204.629 44.2422 194.275 34.0869 c 0
 159.61 0.0869141 81.2031 -25.9785 81.2031 -3.50293 c 0
 81.2031 0.841797 75.4258 4.64355 68.8232 4.64355 c 0
 53.9668 4.64355 41.7129 63.8496 55.6182 68.4424 c 0
 60.5352 70.0674 64.6963 80.4023 64.6963 90.9922 c 0
 64.6963 105.211 70.8867 112.765 87.3936 118.689 c 0
 99.7734 123.133 116.28 130.354 123.708 134.574 c 0
 131.025 138.732 150.119 140.24 164.976 137.833 c 2
 192.624 133.353 l 1
 204.179 183.451 l 2
 210.567 211.147 212.966 236.1 209.544 239.252 c 0
 206.156 242.372 183.546 244.954 159.61 244.954 c 0
 111.741 244.954 93.9668 253.979 116.693 266.748 c 0
 124.763 271.282 142.671 290.165 155.896 308.087 c 0
 169.177 326.082 209.131 360.49 243.795 383.785 c 0
164.331 89.3633 m 0
 155.079 113.519 153.008 113.915 116.693 98.4893 c 0
 92.8613 88.3652 89.457 82.8467 89.457 54.335 c 0
 89.457 16.0479 99.8281 10.2979 137.326 27.793 c 0
 168.689 42.4268 175.96 59.0029 164.331 89.3633 c 0
378.325 -107.365 m 0
 378.325 -86.1855 377.205 -68.6719 375.85 -68.6719 c 0
 360.632 -68.6719 356.779 -113.476 370.246 -133.841 c 0
 376.029 -142.587 378.325 -135.062 378.325 -107.365 c 0
256.176 -105.778 m 0
 217.385 -86.0977 184.854 -88.668 169.042 -112.66 c 0
 145.81 -147.911 151.357 -158.278 193.449 -158.278 c 0
 214.083 -158.278 234.991 -154.478 240.494 -149.726 c 0
 246.081 -144.9 257.413 -136.378 266.492 -130.175 c 0
 282.083 -119.521 281.761 -118.759 256.176 -105.778 c 0
EndSplineSet
EndChar
StartChar: uni0E0F
Encoding: 110 3599 32767
OldEncoding: 3599
Width: 481
Flags: W
Fore
257.192 432.811 m 0
 286.412 448.105 320.08 460.974 331.493 461.209 c 0
 366.107 461.924 404.699 430.902 415.109 393.997 c 0
 438.657 310.521 446.975 -255.078 424.996 -278.212 c 0
 410.68 -293.28 375.749 -278.212 369.999 -254.486 c 0
 367.23 -243.063 359.913 -228.162 354.034 -221.975 c 0
 347.957 -215.577 334.732 -196.053 323.98 -177.6 c 0
 313.228 -159.147 302.207 -144.648 298.935 -144.648 c 0
 295.77 -144.648 288.168 -163.98 282.35 -186.826 c 0
 257.287 -285.241 241.635 -292.403 215.135 -217.581 c 0
 205.176 -189.463 193.629 -162.283 189.377 -156.95 c 0
 177.207 -141.688 144.531 -148.163 136.162 -167.495 c 0
 116.76 -212.309 -4.11328 -250.093 -32.4971 -220.217 c 0
 -44.4189 -207.669 -45.1719 -201.765 -37.2031 -183.312 c 0
 -20.127 -143.77 39.6816 -75.9248 66.0137 -66.2246 c 0
 97.7383 -54.5371 150.362 -54.1729 161.186 -65.5654 c 0
 166.675 -71.3428 179.97 -66.3779 200.006 -51.0664 c 0
 217.538 -37.6689 236.15 -30.2061 243.835 -33.4922 c 0
 255.138 -38.3252 253.854 -44.4766 235.486 -73.4736 c 0
 216.563 -103.35 215.152 -110.108 224.479 -126.196 c 0
 239.206 -151.602 247.05 -149.921 257.276 -119.166 c 0
 274.162 -68.3848 323.948 -81.3818 358.25 -145.527 c 0
 368.117 -163.98 380.043 -179.797 384.089 -179.797 c 0
 388.662 -179.797 389.441 -92.8047 386.08 42.5156 c 0
 378.288 356.213 378.172 358.122 365.085 385.21 c 0
 354.558 407.002 349.86 409.161 323.98 404.102 c 0
 308.118 401.002 283.693 392.365 270.55 385.21 c 0
 246.34 372.029 246.34 372.029 263.036 355.767 c 0
 289.065 330.415 292.517 287.674 273.289 228.801 c 0
 264.106 200.682 250.627 167.909 243.835 157.187 c 0
 237.156 146.642 231.312 131.675 231.312 125.113 c 0
 231.312 113.328 187.9 75.0273 174.543 75.0273 c 0
 170.87 75.0273 161.537 67.1191 153.804 57.4531 c 0
 134.771 33.6641 118.608 34.6074 93.5635 60.9678 c 0
 52.6406 104.041 76.0322 176.168 137.811 197.4 c 0
 163.69 206.295 174.308 206.4 189.57 197.913 c 0
 212.504 185.161 216.056 190.138 231.688 256.919 c 0
 242.178 301.733 241.847 306.134 227.139 317.431 c 0
 207.103 332.82 181.222 332.887 181.222 317.55 c 0
 181.222 310.66 172.039 302.831 160.351 299.756 c 0
 77.2549 277.891 148.663 376.002 257.192 432.811 c 0
193.318 162.897 m 0
 183.799 179.265 122.783 160.262 122.783 140.93 c 0
 122.783 135.007 120.773 123.796 118.608 117.645 c 0
 116.444 111.493 117.517 100.705 120.835 95.2373 c 0
 131.149 78.2451 190.716 109.297 184.89 128.628 c 0
 182.506 136.537 184.513 146.254 189.153 149.278 c 0
 194.162 152.542 195.947 158.379 193.318 162.897 c 0
131.132 -118.727 m 0
 131.132 -113.646 118.191 -109.5 102.329 -109.5 c 0
 79.2881 -109.5 68.3516 -116.091 47.6475 -142.452 c 0
 22.8027 -174.085 22.4688 -175.521 39.2988 -178.326 c 0
 62.6748 -182.224 106.086 -163.189 106.086 -149.042 c 0
 106.086 -142.95 111.931 -135.363 118.608 -132.786 c 0
 125.288 -130.209 131.132 -123.647 131.132 -118.727 c 0
EndSplineSet
EndChar
StartChar: uni0E10
Encoding: 111 3600 32767
OldEncoding: 3600
Width: 481
Flags: W
Fore
164.367 -79.8271 m 0
 195.042 -68.3975 197.628 -79.6562 171.479 -110.79 c 0
 159.026 -125.616 149.064 -144.065 149.064 -152.302 c 0
 149.064 -165.48 151.194 -164.904 168.232 -147.113 c 0
 187.4 -127.099 217.927 -118.902 217.927 -133.77 c 0
 217.927 -144.147 271.451 -195.33 276.843 -190.107 c 0
 279.393 -187.637 275.822 -179.729 268.809 -172.316 c 0
 258.879 -161.822 257.409 -151.932 261.923 -125.986 c 0
 266.823 -97.8174 270.679 -92.6748 288.319 -90.7754 c 0
 306.576 -88.8105 309.999 -92.2578 317.752 -120.427 c 0
 326.525 -152.302 318.466 -196.817 299.498 -221.241 c 0
 285.154 -239.712 251.242 -230.878 225.508 -201.968 c 0
 203.073 -176.765 200.376 -175.683 192.233 -188.625 c 0
 160.986 -238.291 144.984 -241.075 119.802 -201.227 c 2
 106.217 -179.729 l 1
 91.7969 -200.485 l 2
 73.2568 -227.172 36.5703 -236.146 22.0918 -217.535 c 0
 3.06055 -193.072 12.1045 -133.512 37.3545 -117.026 c 0
 41.998 -113.995 60.6914 -111.531 79.0547 -111.531 c 0
 98.9482 -111.531 120.495 -106.015 132.614 -97.8174 c 0
 144.091 -90.0547 157.871 -82.248 164.367 -79.8271 c 0
87.8535 -158.974 m 0
 87.8535 -145.183 65.5615 -146.372 60.0605 -160.456 c 0
 57.7441 -166.387 57.5029 -173.305 59.543 -175.282 c 0
 66.2607 -181.79 87.8535 -169.352 87.8535 -158.974 c 0
390.083 444.432 m 0
 399.52 471.859 406.661 481.614 416.098 479.969 c 0
 434.391 476.778 435.694 455.551 420.829 402.92 c 0
 404.499 345.1 388.679 336.823 355.651 368.82 c 0
 343.171 380.913 322.751 392.465 308.979 395.226 c 0
 279.903 401.054 264.4 394.016 280.668 382.374 c 0
 303.134 366.298 316.758 327.309 328.662 245.026 c 0
 340.994 159.778 344.385 48.8604 335.911 7.81543 c 0
 332.238 -9.97559 327.021 -15.1641 312.804 -15.1641 c 0
 291.415 -15.1641 289.399 -8.49316 283.239 82.6846 c 0
 277.18 172.381 271.134 183.898 243.941 157.555 c 0
 234.407 148.317 217.927 144.212 190.382 144.212 c 0
 116.164 144.212 98.208 189.673 151.442 242.803 c 0
 184.865 276.16 223.856 286.528 255.419 270.451 c 0
 268.426 263.826 279.138 260.043 279.138 262.076 c 0
 279.138 264.11 275.388 282.832 270.822 303.588 c 0
 261.201 347.323 251.227 350.312 211.806 321.271 c 0
 188.087 303.796 184.778 303.086 174.314 313.225 c 0
 155.876 331.088 168.193 362.035 207.98 397.814 c 0
 261.54 445.979 321.228 453.219 364.834 416.84 c 0
 375.876 407.628 378.351 410.332 390.083 444.432 c 0
247.002 232.756 m 0
 228.639 245.247 227.14 245.462 209.511 238.117 c 0
 181.966 226.643 156.474 201.018 161.076 189.43 c 0
 171.38 163.491 263.835 183.5 263.835 211.668 c 0
 263.835 216.925 256.184 226.51 247.002 232.756 c 0
EndSplineSet
EndChar
StartChar: uni0E11
Encoding: 112 3601 32767
OldEncoding: 3601
Width: 613
Flags: W
Fore
454.43 422.833 m 0
 482.212 441.77 486.632 442.454 507.469 431.053 c 0
 538.031 414.33 551.442 356.111 556.421 218.555 c 0
 564.248 2.27051 562.621 -10.0117 527.675 1.57227 c 0
 513.852 6.1543 512.463 17.8428 511.871 134.637 c 0
 511.183 270.463 504.234 349.234 491.112 369.954 c 0
 480.069 387.391 461.1 362.168 416.288 270.463 c 0
 384.229 204.856 372.551 167.512 346.214 46.3926 c 0
 335.115 -4.65137 314.492 -31.5605 299.139 -15.0322 c 0
 294.724 -10.2793 287.688 74.5088 283.525 173.135 c 0
 279.363 271.761 272.914 355.77 269.214 359.572 c 0
 261.355 367.646 236.473 334.483 214.038 286.035 c 0
 204.423 265.272 195.323 248.834 193.443 248.834 c 0
 176.605 248.834 163.135 262.677 163.135 279.979 c 0
 163.135 308.666 137.036 308.053 99.1514 278.478 c 0
 64.04 251.067 51.1826 254.891 38.8184 296.417 c 0
 26.7109 337.078 37.7051 370.361 69.6855 389.866 c 0
 107.57 412.972 135.769 408.602 164.668 375.145 c 2
 190.076 345.729 l 1
 215.902 376.01 l 2
 286.123 458.34 319.834 430.514 330.147 281.71 c 2
 335.723 201.252 l 1
 355.212 255.756 l 2
 381.506 329.292 425.24 402.938 454.43 422.833 c 0
121.041 347.46 m 0
 121.041 358.707 115.445 370.404 108.833 372.981 c 0
 99.9824 376.432 94.0791 368.224 87.3652 343.135 c 0
 82.2715 324.102 79.3584 304.636 80.8926 299.878 c 0
 85.7344 284.853 121.041 326.697 121.041 347.46 c 0
EndSplineSet
EndChar
StartChar: uni0E12
Encoding: 113 3602 32767
OldEncoding: 3602
Width: 580
Flags: W
Fore
298.853 408.967 m 0
 311.481 424.021 325.029 435.977 329.46 435.977 c 0
 356.617 435.977 387.066 367.787 398.662 281 c 0
 401.265 261.518 405.184 232.626 407.37 216.796 c 0
 409.571 200.855 416.134 188.015 422.077 188.015 c 0
 427.907 188.015 445.883 171.631 461.43 152.148 c 2
 490.05 116.282 l 1
 484.883 248.234 l 1
 479.715 380.186 l 1
 498.795 385.883 l 2
 523.967 393.398 548.526 361.588 542.167 329.707 c 0
 539.744 317.562 535.74 237.606 533.298 152.591 c 0
 528.388 -18.3262 527.598 -24.5254 510.72 -24.5254 c 0
 490.64 -24.5254 476.06 -0.614258 458.339 61.376 c 0
 443.149 114.511 432.461 134.184 418.5 134.702 c 0
 415.905 134.799 413.005 109.641 412.14 79.5303 c 0
 411.275 49.4209 406.593 13.2783 401.873 0.271484 c 0
 391.267 -28.9531 370.411 -39.2891 360.774 -20.0967 c 0
 357.218 -13.0127 348.911 -6.81348 342.975 -6.81348 c 0
 336.904 -6.81348 329.315 2.04199 326.28 12.6689 c 0
 323.244 23.2959 315.656 37.7881 309.585 44.5498 c 0
 291.14 65.0977 298.259 102.113 330.707 154.362 c 0
 360.955 203.069 361.804 206.332 354.9 247.349 c 0
 338.354 345.647 334.764 360.703 327.87 360.703 c 0
 323.914 360.703 303.655 327.051 282.555 285.429 c 0
 261.455 243.806 240.663 205.403 236.048 199.527 c 0
 231.48 193.712 223.862 167.646 219.225 141.964 c 0
 203.233 53.4062 195.562 29.1221 175.029 2.04199 c 0
 145.289 -37.1797 116.069 -34.2666 86.2031 10.8984 c 0
 32.6816 91.834 38.1602 239.378 98.3037 336.792 c 0
 114.159 362.474 133.768 385.335 142.635 388.478 c 0
 163.097 395.73 194.521 368.673 213.975 327.051 c 0
 222.253 309.339 231.847 296.115 234.855 298.27 c 0
 237.946 300.483 248.37 319.966 258.308 342.105 c 0
 268.245 364.245 286.265 393.961 298.853 408.967 c 0
179.674 304.025 m 0
 170.643 318.195 158.672 329.707 152.97 329.707 c 0
 142.635 329.707 104.212 251.301 110.874 243.806 c 0
 113.021 241.391 122.76 244.209 132.3 250.005 c 0
 142.186 256.012 157.74 258.418 168.075 255.54 c 0
 194.276 248.243 199.994 272.145 179.674 304.025 c 0
171.606 182.701 m 0
 179.594 193.328 179.284 198.642 170.062 209.269 c 0
 159.711 221.196 156.791 220.338 141.442 200.855 c 0
 132.373 189.343 124.35 177.08 124.35 174.73 c 0
 124.35 164.678 162.954 171.188 171.606 182.701 c 0
179.897 127.795 m 0
 179.954 136.65 177.174 143.2 173.64 142.531 c 0
 158.535 139.671 90.4072 117.438 87.7803 114.511 c 0
 77.4688 103.025 117.99 19.7539 133.89 19.7539 c 0
 142.805 19.7539 179.762 106.541 179.897 127.795 c 0
365.683 78.2021 m 0
 371.458 133.108 370.182 139.504 356.49 124.253 c 0
 345.36 111.854 342.876 41.1045 353.31 33.6924 c 0
 357.271 30.8789 362.794 50.749 365.683 78.2021 c 0
EndSplineSet
EndChar
StartChar: uni0E13
Encoding: 114 3603 32767
OldEncoding: 3603
Width: 619
Flags: W
Fore
205.765 410.599 m 0
 233.277 421.247 263.283 430.102 273.019 430.445 c 0
 338.219 432.746 380.559 342.02 392.727 173.936 c 0
 395.813 131.288 400.082 96.166 402.178 96.166 c 0
 405.822 96.166 458.732 140.766 482.424 163.809 c 0
 493.344 174.429 495.782 193.588 497.709 283.901 c 0
 499.583 371.706 502.238 392.888 512.229 399.721 c 0
 519.023 404.366 530.572 405.481 538.215 402.229 c 0
 550.607 396.955 551.517 387.177 547.386 303.553 c 0
 543.172 218.257 544.105 208.832 558.904 187.315 c 0
 583.062 152.193 589.624 99.5107 575.677 52.6816 c 0
 555.813 -14.0088 529.347 -10.0361 508.813 62.7168 c 2
 494.652 112.891 l 1
 444.211 67.0537 l 2
 362.547 -7.15723 358.784 -2.50977 343.45 191.497 c 0
 336.973 273.448 330.883 307.611 318.109 333.657 c 0
 308.678 352.891 297.94 370.653 293.653 374.115 c 0
 277.35 387.283 242.448 378.903 188.951 348.978 c 2
 133.16 317.769 l 1
 129.339 200.695 l 2
 127.237 136.306 126.55 80.7998 127.811 77.3506 c 0
 129.075 73.8906 140.039 76.7207 152.267 83.665 c 0
 200.415 111.007 241.643 90.0205 232.848 42.6465 c 0
 226.018 5.85254 199.489 -20.9072 169.845 -20.9072 c 0
 101.219 -20.9072 83.4844 17.5596 83.4844 166.41 c 0
 83.4844 265.922 82.8672 269.928 68.1992 265.75 c 0
 49.2969 260.367 40.7744 280.975 52.2207 304.389 c 0
 64.9482 330.425 149.21 388.711 205.765 410.599 c 0
190.479 47.6641 m 0
 190.479 59.8213 177.889 55.1904 163.199 37.6289 c 0
 153.406 25.9219 151.731 18.1445 157.616 11.7061 c 0
 163.465 5.30664 169.745 8.36133 178.251 21.7402 c 0
 185.163 32.6113 190.479 43.8828 190.479 47.6641 c 0
EndSplineSet
EndChar
StartChar: uni0E14
Encoding: 115 3604 32767
OldEncoding: 3604
Width: 406
Flags: W
Fore
208.473 420.812 m 0
 243.475 439.692 278.372 438.796 302.825 418.388 c 0
 343.505 384.438 351.27 343.402 354.109 147.366 c 0
 355.877 25.3525 354.703 9.88477 343.153 3.00391 c 0
 313.285 -14.793 309.317 4.20312 306.377 179.09 c 0
 303.791 332.828 302.387 346.704 287.271 367.805 c 0
 255.029 412.814 210.811 388.141 154.612 293.783 c 0
 104.713 210 104.608 209.232 143.795 213.969 c 0
 216.031 222.698 232.99 139.232 180.138 35.1143 c 0
 162.382 0.136719 152.653 -9.97461 128.577 -18.4756 c 0
 88.457 -32.6406 68.7227 -21.8262 48.6035 25.3525 c 0
 31.666 65.0703 33.0811 93.6807 56.8105 191.292 c 0
 74.2129 262.873 162.018 395.753 208.473 420.812 c 0
156.965 172.583 m 0
 160.929 185.437 115.642 178.94 101.185 164.581 c 0
 83.6836 147.199 81.7432 134.352 96.6191 134.352 c 0
 114.12 134.352 155.209 152.036 155.209 159.568 c 0
 155.209 163.961 155.911 169.166 156.965 172.583 c 0
173.289 105.068 m 0
 167.876 119.981 165.101 119.977 139.991 105.015 c 0
 129.455 98.7373 109.935 93.6807 96.2383 93.6807 c 0
 76.4551 93.6807 71.5088 90.4268 71.5088 77.4121 c 0
 71.5088 53.0088 92.9092 12.3379 105.75 12.3379 c 0
 129.338 12.3379 181.135 83.4541 173.289 105.068 c 0
EndSplineSet
EndChar
StartChar: uni0E15
Encoding: 116 3605 32767
OldEncoding: 3605
Width: 436
Flags: W
Fore
331.718 426.149 m 0
 347.655 439.576 371.849 427.212 381.773 400.569 c 0
 406.747 333.532 415.461 20.1318 392.618 10.5381 c 0
 385.5 7.54883 374.601 11.2393 367.704 18.9746 c 0
 357.593 30.3174 355.03 59.3691 353.072 184.848 c 0
 351.772 268.214 347.304 340.66 343.187 345.135 c 0
 338.733 349.974 329.797 343.846 321.251 330.095 c 0
 294.012 286.263 240.639 229.335 232.063 234.965 c 0
 221.137 242.139 220.92 234.696 231.43 213.21 c 0
 240.244 195.188 221.171 92.8867 204.669 69.6816 c 0
 171.056 22.4121 144.398 -0.792969 123.709 -0.792969 c 0
 100.772 -0.792969 65.1816 28.4746 65.1816 47.3359 c 0
 65.1816 53.1123 60.832 59.3516 55.2949 61.5176 c 0
 48.1055 64.3301 45.8721 88.5898 47.1074 150.47 c 0
 50.1777 304.312 100.532 416.869 163.255 410.094 c 0
 184.104 407.841 192.092 399.28 216.641 352.87 c 0
 243.918 301.303 246.023 299.337 254.842 317.203 c 0
 268.417 344.705 317.338 414.035 331.718 426.149 c 0
188.168 305.601 m 2
 174.872 335.681 159.786 360.188 154.555 360.205 c 0
 133.2 360.272 88.8779 228.832 106.309 217.129 c 0
 110.105 214.58 120.071 221.374 127.664 231.688 c 0
 138.541 246.463 150.204 251.025 177.096 251.025 c 2
 212.291 251.025 l 1
 188.168 305.601 l 2
183.818 201.178 m 0
 183.818 208.053 181.106 214.719 177.491 216.731 c 0
 168 222.014 140.644 213.21 134.503 202.896 c 0
 124.268 185.707 127.438 177.766 141.9 184.366 c 0
 149.809 187.977 162.288 190.482 169.978 190.005 c 0
 177.887 189.514 183.818 194.302 183.818 201.178 c 0
199.637 154.768 m 0
 199.637 165.437 191.728 163.83 153.764 145.449 c 0
 126.082 132.047 116.076 130.81 99.9814 138.799 c 0
 76.2549 150.576 66.5771 141.63 79.1387 119.53 c 0
 84.6611 109.814 88.9092 93.7461 88.9092 82.5742 c 0
 88.9092 59.3691 102.708 42.1797 121.336 42.1797 c 0
 150.026 42.1797 199.637 113.514 199.637 154.768 c 0
EndSplineSet
EndChar
StartChar: uni0E16
Encoding: 117 3606 32767
OldEncoding: 3606
Width: 427
Flags: W
Fore
224.781 419.014 m 0
 266.182 433.135 297.161 432.946 316.614 418.455 c 0
 356.39 388.825 378.589 293.466 383.657 130.47 c 0
 386.994 23.1504 386.073 10.5146 374.574 5.80176 c 0
 352.181 -3.37695 337.51 14.2744 339.363 48.165 c 0
 342.542 106.263 326.597 308.566 317.041 331.391 c 0
 311.974 343.494 301.116 362.039 293.656 371.333 c 0
 280.427 387.814 278.226 388.116 249.622 377.385 c 0
 232.923 371.119 199.565 354.588 174.726 340.267 c 0
 137.842 319.002 130.669 311.526 134.078 297.904 c 0
 136.344 288.85 138.218 229.316 138.218 166.377 c 2
 138.218 51.3926 l 1
 173.597 71.4385 l 2
 223.276 99.5879 243.6 98.6875 243.6 68.3369 c 0
 243.6 15.0811 208.865 -37.3682 173.597 -37.3682 c 0
 161.689 -37.3682 140.477 -31.6826 126.927 -24.8613 c 0
 103.356 -12.9932 101.837 -9.5293 97.1943 42.9199 c 0
 94.4814 73.5664 94.6494 134.504 97.5703 179.691 c 2
 102.84 261.189 l 1
 79.1289 261.189 l 2
 60.3105 261.189 55.418 264.687 55.418 278.135 c 0
 55.418 314.334 151.015 393.854 224.781 419.014 c 0
190.909 23.957 m 0
 190.909 32.043 169.096 25.5713 160.994 15.0811 c 0
 150.85 1.94727 155.53 -21.2295 168.327 -21.2295 c 0
 174.779 -21.2295 190.909 11.0469 190.909 23.957 c 0
EndSplineSet
EndChar
StartChar: uni0E17
Encoding: 118 3607 32767
OldEncoding: 3607
Width: 490
Flags: W
Fore
328.107 393.771 m 0
 356.643 425.24 378.066 431.404 405.235 415.961 c 0
 438.043 397.312 441.718 367.949 433.967 186.395 c 0
 429.971 92.793 425.186 12.2471 423.277 6.45312 c 0
 421.435 0.858398 411.762 -2.90723 402.549 -1.61621 c 0
 385.769 0.735352 385.341 3.22559 387.578 85.5303 c 0
 388.851 132.331 393.07 196.262 397.006 228.354 c 0
 404.229 287.259 395.687 362.59 380.668 372.425 c 0
 373.348 377.219 312.341 316.308 312.341 304.204 c 0
 312.341 300.231 300.864 275.559 287.006 249.737 c 0
 273.147 223.916 255.411 186.084 247.852 166.222 c 0
 240.174 146.049 229.597 124.531 224.052 117.807 c 0
 218.463 111.029 211.796 87.9512 208.899 65.3574 c 0
 202.898 18.5566 188.349 -5.8418 168.775 -1.92383 c 0
 150.87 1.66113 140.498 74.2334 146.703 152.504 c 0
 152.334 223.513 146.768 246.913 124.247 246.913 c 0
 114.268 246.913 104.697 241.65 102.236 234.81 c 0
 95.9365 217.296 49.1719 219.478 33.0635 238.037 c 0
 14.3994 259.539 22.8906 294.521 55.3906 330.024 c 0
 87.1523 364.722 113.135 372.393 143.44 356.02 c 0
 170.03 341.654 183.574 300.169 185.646 226.74 c 0
 188.015 142.821 187.688 144.008 202.319 166.222 c 0
 209.761 177.519 217.634 188.17 220.214 190.429 c 0
 222.736 192.639 229.042 209.795 234.153 228.354 c 0
 246.377 272.734 293.354 355.442 328.107 393.771 c 0
121.177 322.602 m 0
 113.499 329.863 105.993 335.412 104.287 335.086 c 0
 89.7002 332.299 82.0225 323.876 82.0225 310.659 c 0
 82.0225 302.59 78.3857 295.327 74.3457 295.327 c 0
 70.0264 295.327 66.668 289.68 66.668 282.417 c 0
 66.668 272.558 71.6582 270.746 87.7803 274.751 c 0
 99.2969 277.612 115.175 280.579 122.712 281.278 c 0
 140.429 282.921 139.603 305.172 121.177 322.602 c 0
EndSplineSet
EndChar
StartChar: uni0E18
Encoding: 119 3608 32767
OldEncoding: 3608
Width: 391
Flags: W
Fore
311.853 498.017 m 0
 316.308 506.402 343.658 505.221 348.907 496.415 c 0
 351.318 492.371 350.104 479.206 346.137 466.398 c 0
 342.316 454.067 336.726 429.978 333.967 413.969 c 0
 331.208 397.96 322.189 375.894 314.338 365.941 c 2
 299.813 347.531 l 1
 275.867 365.541 l 2
 262.52 375.58 246.013 383.552 238.573 383.552 c 0
 226.967 383.552 227.346 381.15 241.478 365.142 c 0
 279.844 321.681 284.062 248.275 255.786 116.2 c 0
 220.14 -50.2939 174.421 -59.9824 146.244 92.9873 c 0
 137.987 137.812 132.973 195.445 134.542 227.463 c 0
 137.055 278.692 138.805 283.701 154.956 285.896 c 0
 171.78 288.184 172.613 285.896 172.439 237.869 c 0
 172.26 188.241 194.982 71.375 204.812 71.375 c 0
 211.051 71.375 227.063 163.427 230.571 219.459 c 0
 231.966 241.732 227.854 279.893 221.3 305.508 c 0
 210.649 347.131 207.533 351.533 188.717 351.533 c 0
 176.939 351.533 161.097 346.704 152.208 340.405 c 0
 131.795 325.938 84.8379 317.934 71.3389 326.618 c 0
 48.9258 341.038 81.5459 388.508 131.795 414.595 c 0
 167.126 432.938 264.929 438.328 280.185 422.773 c 0
 285.746 417.104 291.014 425.976 298.243 453.191 c 0
 303.771 474.003 310.009 494.548 311.853 498.017 c 0
EndSplineSet
EndChar
StartChar: uni0E19
Encoding: 120 3609 32767
OldEncoding: 3609
Width: 541
Flags: W
Fore
98.9189 426.093 m 0
 135.024 451.46 147.953 452.389 186.183 432.363 c 0
 213.154 418.234 215.542 413.683 219.004 369.771 c 0
 237.469 135.576 245.079 70.3076 253.5 73.9424 c 0
 258.486 76.0947 273.786 97.2617 287.159 120.509 c 0
 300.531 143.756 327.542 180.936 346.581 202.305 c 2
 381.486 241.48 l 1
 387.304 330.164 l 2
 390.523 379.242 395.905 423.655 399.354 429.611 c 0
 402.731 435.44 414.729 438.992 425.534 437.36 c 0
 445.121 434.4 445.428 433.055 442.571 362.452 c 0
 439.68 290.988 439.813 290.421 465.01 267.741 c 0
 487.823 247.206 490.497 239.759 491.751 193.264 c 0
 493.167 140.742 480.336 73.1787 465.426 54.6416 c 0
 460.809 48.9014 447.142 41.6934 434.676 38.4238 c 0
 404.332 30.4658 391.459 51.1973 391.459 108.024 c 0
 391.459 132.993 387.696 155.997 383.148 158.823 c 0
 378.593 161.655 357 137.729 335.361 105.871 c 0
 313.723 74.0146 281.99 31.9971 265.135 12.8828 c 0
 239.32 -16.3916 231.984 -20.4688 219.426 -12.5176 c 0
 207.774 -5.14062 202.353 16.7568 194.909 86.499 c 0
 189.671 135.576 184.903 207.173 184.359 244.925 c 0
 183.106 331.887 176.813 344.195 146.29 319.394 c 0
 120.527 298.459 77.9697 295.197 54.8711 312.387 c 0
 39.7529 323.638 39.7178 325.859 54.04 364.604 c 0
 63.9072 391.296 79.1855 412.229 98.9189 426.093 c 0
161.665 380.533 m 0
 164.745 392.942 160.419 395.601 137.148 395.601 c 0
 118.034 395.601 108.892 391.701 108.892 383.547 c 0
 108.892 376.896 106.843 365.896 104.321 359.008 c 0
 100.533 348.664 104.736 348.147 128.838 355.994 c 0
 144.628 361.136 159.636 372.354 161.665 380.533 c 0
449.459 148.491 m 0
 449.217 223.399 436.721 238.582 429.618 172.6 c 0
 426.467 143.325 421.808 113.579 419.301 106.732 c 0
 416.253 98.4092 420.547 94.248 432.183 94.248 c 0
 447.973 94.248 449.618 99.4141 449.459 148.491 c 0
EndSplineSet
EndChar
StartChar: uni0E1A
Encoding: 121 3610 32767
OldEncoding: 3610
Width: 496
Flags: W
Fore
393.463 428.002 m 0
 429.514 466.091 446.709 430.576 451.639 307.846 c 0
 456.361 190.265 446.091 140.259 403.337 72.6836 c 0
 369.025 18.4502 334.976 -4.46484 278.925 -11.0449 c 0
 251.306 -14.2871 244.731 -11.8975 235.096 4.88086 c 0
 212.785 43.7314 200.46 113.021 195.861 225.453 c 2
 191.193 339.602 l 1
 167.903 309.562 l 2
 142.254 276.479 107.523 265.088 67.7197 276.703 c 0
 48.0664 282.438 42.8623 288.964 40.8311 310.421 c 0
 37.5176 345.429 56.3467 375.534 101.837 407.962 c 0
 137.58 433.44 179.881 441.451 189.535 424.568 c 0
 192.262 419.801 200.941 415.986 209.064 415.986 c 0
 220.847 415.986 225.501 404.399 233.028 356.337 c 0
 238.136 323.724 242.37 278.795 242.37 257.209 c 0
 242.37 204.854 266.128 53.2158 275.986 42.6445 c 0
 286.023 31.8809 331.316 58.0928 363.483 93.2812 c 0
 381.895 113.422 390.988 134.478 397.587 172.241 c 0
 408.385 234.035 403.666 369.159 390.214 383.372 c 0
 376.984 397.35 378.029 411.695 393.463 428.002 c 0
169.062 377.364 m 0
 154.19 396.611 134.114 392.813 110.087 366.207 c 0
 90.71 344.751 80.4541 312.995 92.9014 312.995 c 0
 97.7754 312.995 139.311 340.46 144.82 347.325 c 0
 147.054 350.109 155.857 355.235 163.98 358.482 c 0
 176.165 363.354 177.127 366.926 169.062 377.364 c 0
EndSplineSet
EndChar
StartChar: uni0E1B
Encoding: 122 3611 32767
OldEncoding: 3611
Width: 472
Flags: W
Fore
374.622 710.1 m 0
 386.339 729.755 407.358 724.35 411.564 700.6 c 0
 417.36 667.878 419.318 267.4 413.971 208.5 c 0
 407.242 134.4 399.598 113.127 363.735 68.709 c 0
 284.775 -29.0889 223.005 -34.8516 192.152 52.7002 c 0
 182.75 79.3799 181.41 101.625 185.37 165.275 c 0
 188.089 208.975 188.089 266.572 185.37 293.525 c 0
 181.346 333.425 178.354 341.224 169.155 335.8 c 0
 162.951 332.143 145.185 327.227 129.675 324.875 c 0
 107.115 321.455 97.3857 325.323 81.0303 344.215 c 0
 54.2725 375.119 59.8799 391.489 107.82 422.424 c 0
 141.66 444.261 150.624 446.378 170.565 437.247 c 0
 216.316 416.298 220.167 401.35 223.376 232.25 c 0
 224.962 148.65 229.273 72.7686 232.958 63.625 c 0
 236.708 54.3154 247.41 47 257.28 47 c 0
 273.965 47 340.047 102.1 356.403 129.65 c 0
 375.441 161.718 382.034 295.9 374.56 499.2 c 0
 369.67 632.2 369.69 701.827 374.622 710.1 c 0
153.646 399.623 m 0
 142.06 409.558 140.955 409.517 120.51 398.391 c 0
 99.5283 386.973 107.115 370 133.2 370 c 0
 156.465 370 168.26 387.09 153.646 399.623 c 0
EndSplineSet
EndChar
StartChar: uni0E1C
Encoding: 123 3612 32767
OldEncoding: 3612
Width: 457
Flags: W
DStem: 85.874 234.869 135.323 197.424 104.119 98.7871 147.703 112.943
Fore
375.83 413.876 m 0
 382.021 418.261 393.04 420.922 399.443 419.58 c 0
 416.719 415.96 418.183 319.807 403.453 156.325 c 0
 396.87 83.2607 391.439 20.0928 391.439 16.5898 c 0
 391.439 0.699219 353.409 12.9365 346.025 31.2021 c 0
 301.35 141.712 277.631 174.33 250.561 162.49 c 0
 244.011 159.625 224.728 122.989 208.137 81.8906 c 0
 191.545 40.792 171.17 0.389648 163.312 -6.99512 c 0
 139.349 -29.5107 115.597 12.9365 104.119 98.7871 c 0
 98.8682 138.059 90.5547 200.071 85.874 234.869 c 0
 74.0811 322.546 86.4688 364.799 131.294 389.797 c 0
 173.717 413.456 232.301 414.111 254.562 391.177 c 0
 273.441 371.728 277.177 324.373 261.635 301.54 c 0
 247.745 281.137 188.926 264.735 155.307 271.892 c 0
 123.289 278.707 123.289 278.707 135.323 197.424 c 0
 139.649 168.198 145.314 129.537 147.703 112.943 c 0
 151.908 83.7178 152.804 83.0635 167.714 98.3301 c 0
 176.536 107.364 183.322 123.446 183.322 135.319 c 0
 183.322 148.623 192.128 162.186 207.336 172.308 c 0
 220.943 181.364 231.35 193.436 231.35 200.163 c 0
 231.35 206.812 240.154 214.499 251.36 217.633 c 0
 277.207 224.86 331.726 185.551 345.253 149.932 c 0
 353.124 129.208 355.385 147.648 359.421 265.465 c 0
 363.082 372.321 366.983 407.611 375.83 413.876 c 0
206.535 366.317 m 0
 172.116 379.728 164.061 378.842 148.997 359.991 c 0
 124.418 329.232 132.094 320.687 181.722 323.559 c 0
 216.141 325.551 227.938 329.9 229.749 341.269 c 0
 231.324 351.158 223.345 359.769 206.535 366.317 c 0
EndSplineSet
EndChar
StartChar: uni0E1D
Encoding: 124 3613 32767
OldEncoding: 3613
Width: 436
Flags: W
Fore
340.19 697.965 m 0
 340.637 699.265 349.742 700.286 360.885 700.286 c 0
 388.459 700.286 391.131 686.357 380.837 596.286 c 0
 376.002 553.979 370.944 420.786 369.626 301 c 0
 367.111 72.5723 359.227 11.6465 331.436 5.89453 c 0
 317.349 2.97949 316.18 4.78613 261.894 113.429 c 0
 221.828 193.612 217.191 192.357 186.387 93.001 c 0
 174.583 54.9287 156.741 15.1768 146.378 3.85742 c 0
 129.313 -14.7793 125.684 -15.4717 104.988 -4.03516 c 0
 87.9756 5.36621 80.7119 17.7861 75.9365 45.6436 c 0
 72.4346 66.0723 66.5527 99.501 62.8662 119.929 c 0
 52.9795 174.715 65.752 317.802 83.9189 355.786 c 0
 95.5137 380.028 109.366 391.669 143.592 405.929 c 2
 188.165 424.5 l 1
 212.839 404.072 l 2
 232.846 387.508 237.465 377.144 237.255 349.286 c 0
 236.869 297.896 215.228 273.716 160.307 263.314 c 0
 134.837 258.491 111.822 254.572 108.968 254.572 c 0
 106.172 254.572 102.207 238.786 100.339 220.215 c 0
 96.042 177.501 111.509 73.3506 122.102 73.667 c 0
 131.319 73.9434 160.698 136.644 168.144 171.929 c 0
 170.83 184.659 184.186 204.788 197.716 216.5 c 0
 220.799 236.479 223.675 236.869 242.289 222.536 c 0
 253.344 214.024 273.508 188.644 287.658 165.429 c 2
 313.128 123.644 l 1
 319.894 154.286 l 2
 323.604 171.091 324.862 249.929 322.68 328.857 c 0
 320.138 420.786 322.438 513.044 329.047 584.215 c 0
 334.738 645.5 339.753 696.688 340.19 697.965 c 0
185.777 342.786 m 0
 185.777 368.322 183.39 370.873 157.123 373.396 c 0
 126.952 376.295 118.122 366 118.122 327.929 c 0
 118.122 311.761 122.499 309.718 151.949 312.144 c 0
 183.787 314.766 185.777 316.567 185.777 342.786 c 0
EndSplineSet
EndChar
StartChar: uni0E1E
Encoding: 125 3614 32767
OldEncoding: 3614
Width: 514
Flags: W
Fore
406.372 412.367 m 0
 426.357 425.568 438.41 421.859 444.722 400.568 c 0
 447.877 389.922 455.806 376.816 462.165 371.735 c 0
 471.742 364.083 473.377 330.039 471.325 180.997 c 0
 469.028 14.2109 467.617 -0.665039 453.838 -3.38379 c 0
 433.519 -7.39258 417.994 16.4297 405.658 70.5459 c 0
 399.995 95.3857 393.348 116.855 390.55 119.34 c 0
 387.813 121.769 375.287 140.631 362.859 161.036 c 0
 322.747 226.897 303.661 209.829 247.783 58.126 c 0
 221.314 -13.7344 205.66 -34.1143 189.86 -17.2822 c 0
 185.286 -12.4092 180.783 56.3516 179.868 135.309 c 0
 178.758 231.121 175.149 279.027 169.042 279.027 c 0
 163.988 279.027 150.4 267.494 138.729 253.3 c 0
 100.071 206.28 41.4443 205.377 23.6074 251.525 c 0
 14.2148 275.826 15.6074 281.688 39.6133 318.949 c 0
 95.0566 405.004 124.704 414.223 179.868 362.563 c 2
 213.177 331.37 l 1
 219.006 241.767 l 1
 224.836 152.164 l 1
 247.099 182.327 l 2
 292.935 244.429 305.882 254.808 329.76 248.596 c 0
 351.967 242.819 392.759 203.619 413.492 168.133 c 0
 421.975 153.616 423.103 168.133 419.695 247.977 c 0
 417.387 302.094 410.71 358.605 404.706 374.84 c 0
 395.521 399.681 395.773 405.366 406.372 412.367 c 0
153.845 327.821 m 0
 150.694 336.576 138.231 341.128 117.413 341.128 c 0
 83.917 341.128 67.2568 325.159 55.3984 281.688 c 0
 49.5508 260.249 69.1143 247.782 93.2637 257.559 c 0
 119.078 268.009 158.793 314.07 153.845 327.821 c 0
EndSplineSet
EndChar
StartChar: uni0E1F
Encoding: 126 3615 32767
OldEncoding: 3615
Width: 532
Flags: W
Fore
448.659 620.28 m 0
 453.422 623.796 463.271 625.752 469.765 624.471 c 0
 484.495 621.566 484.849 524.436 471.052 270.174 c 0
 457.603 22.3135 453.41 -8.28027 432.424 -11.6582 c 0
 413.937 -14.6338 405.109 1.27734 376.024 89.9951 c 0
 357.435 146.701 323.799 187.858 296.047 187.858 c 0
 277.997 187.858 271.479 180.999 259.112 148.987 c 0
 250.978 127.933 241.368 89.9951 238.146 66.2148 c 0
 231.701 18.6553 215.429 -6.99512 194.577 -2.46094 c 0
 183.577 -0.0693359 180.532 21.8564 174.688 140.756 c 2
 167.788 281.148 l 1
 146.683 275.632 l 2
 79.3057 258.02 63.252 258.32 47.3477 277.49 c 0
 38.3408 288.347 31.4121 305.843 31.4121 317.733 c 0
 31.4121 343.334 95.541 422.842 122.33 430.453 c 0
 181.52 447.271 218.118 383.585 218.118 263.771 c 0
 218.118 186.943 218.118 186.943 236.383 197.919 c 0
 246.124 203.772 259.762 217.004 265.606 226.272 c 0
 274.491 240.362 282.247 242.485 306.601 237.497 c 0
 348.812 228.85 362.105 219.073 389.02 176.883 c 0
 404.189 153.104 414.278 144.068 416.595 152.188 c 0
 418.604 159.23 422.292 230.845 424.791 311.331 c 0
 431.492 527.18 438.081 612.473 448.659 620.28 c 0
161.402 365.293 m 0
 144.33 401.359 88.2354 393.646 88.2354 355.232 c 0
 88.2354 348.83 84.4893 343.343 80.1182 343.343 c 0
 68.2354 343.343 70.377 319.839 83.3652 307.709 c 0
 97.2373 294.752 125.577 301.563 152.365 324.294 c 0
 171.098 340.188 171.793 343.343 161.402 365.293 c 0
EndSplineSet
EndChar
StartChar: uni0E20
Encoding: 127 3616 32767
OldEncoding: 3616
Width: 493
Flags: W
Fore
291.38 433.543 m 0
 320.731 451.278 381.158 429.711 399.05 395.114 c 0
 427.344 340.402 456.796 6.91895 435.361 -16.0303 c 0
 419.136 -33.4014 392.555 -20.0527 392.102 5.69336 c 0
 391.892 17.6387 388.919 94.6006 385.497 176.669 c 0
 379.593 318.275 378.219 327.65 358.662 359.712 c 0
 347.374 378.218 334.179 393.505 329.493 393.505 c 0
 316.271 393.505 237.135 354.087 237.423 347.644 c 0
 237.574 344.256 242.96 333.965 248.794 325.92 c 0
 264.768 303.888 269.888 250.288 260.399 204.427 c 0
 238.092 96.6123 224.904 60.2871 196.721 29.0273 c 0
 170.607 0.0615234 164.827 -2.67383 138.926 1.6709 c 0
 106.257 7.15039 81.3662 27.3311 81.3662 48.3369 c 0
 81.3662 56.3828 77.5635 65.2334 72.8105 68.251 c 0
 62.8857 74.5508 69.4688 121.555 83.5439 144.888 c 0
 97.7275 168.398 132.703 178.015 167.705 168.026 c 0
 184.04 163.365 201.271 161.451 205.041 163.879 c 0
 214.667 170.078 223.498 259.943 217.328 288.908 c 0
 211.779 314.957 194.151 320.086 165.372 304.026 c 0
 153.704 297.516 146.996 298.161 138.537 306.609 c 0
 128.739 316.395 132.314 322.681 165.761 354.482 c 0
 186.762 374.45 221.411 399.137 241.988 408.792 c 0
 262.989 418.646 284.885 429.618 291.38 433.543 c 0
187.929 118.437 m 0
 173.928 130.462 141.481 137.082 131.147 130.021 c 0
 121.036 123.112 101.003 56.3828 107.108 49.9463 c 0
 109.223 47.7168 125.313 43.9502 143.204 41.498 c 0
 171.206 37.6592 176.051 39.3652 179.762 54.3711 c 0
 182.149 64.0264 187.133 71.6699 191.04 71.6699 c 0
 201.308 71.6699 198.818 109.083 187.929 118.437 c 0
EndSplineSet
EndChar
StartChar: uni0E21
Encoding: 128 3617 32767
OldEncoding: 3617
Width: 523
Flags: W
Fore
429.712 419.35 m 0
 441.514 442.583 459.914 442.199 471.77 418.472 c 0
 479.099 403.805 478.924 386.834 471.046 348.167 c 0
 463.822 312.709 462.431 260.287 466.477 175.922 c 0
 471.322 74.8594 470.243 51.7178 459.997 37.0713 c 0
 444.733 15.2529 435.367 23.8896 405.675 87.1631 c 0
 393.716 112.648 371.002 143.938 354.323 157.906 c 0
 328.569 179.474 320.492 181.915 296.169 175.482 c 0
 280.385 171.309 267.366 162.585 266.662 155.709 c 0
 260.266 93.3145 241.901 10.6729 232.2 0.628906 c 0
 216.393 -15.7363 209.769 -14.5176 183.185 9.64941 c 0
 164.085 27.0127 160.754 36.6318 160.754 74.4199 c 0
 160.754 104.3 165.368 123.537 174.877 133.3 c 0
 182.354 140.977 189 153.177 189 159.225 c 0
 189 165.622 198.139 179.543 209.769 190.861 c 0
 226.119 206.773 230.538 219.862 230.538 252.378 c 0
 230.538 300.712 224.598 310.444 206.446 291.85 c 0
 129.185 212.702 60.5449 205.681 43.9326 275.227 c 0
 37.165 303.557 55.2461 338.793 96.7842 378.227 c 0
 124.2 404.253 137.33 410.562 164.077 410.562 c 0
 225.522 410.562 256.514 369.259 268.92 270.832 c 0
 274.458 226.893 275.106 226.014 301.984 226.014 c 0
 336.046 226.014 370.661 212.269 393.369 189.726 c 2
 410.815 172.406 l 1
 415.8 287.091 l 2
 418.55 350.364 424.786 409.653 429.712 419.35 c 0
197.488 353.439 m 0
 171.547 386.477 104.478 354.318 93.0146 303.349 c 0
 85.2744 268.929 105.923 264.099 144.969 291.196 c 0
 204.784 332.707 209.438 338.222 197.488 353.439 c 0
216.821 104.739 m 0
 219.719 117.921 220.302 129.346 218.077 129.346 c 0
 211.401 129.346 197.308 95.9512 197.308 80.1328 c 0
 197.308 58.5361 210.252 74.8594 216.821 104.739 c 0
EndSplineSet
EndChar
StartChar: uni0E22
Encoding: 129 3618 32767
OldEncoding: 3618
Width: 421
Flags: W
Fore
151.808 414.896 m 0
 187.018 436.096 211.493 434.738 220.342 411.096 c 0
 226.477 394.702 222.227 385.65 194.842 356.784 c 0
 176.438 337.386 144.766 314.931 122.857 305.751 c 0
 77.4766 286.734 70.2285 278.401 80.5781 257.142 c 0
 93.6787 230.229 169.021 244.48 205.796 280.828 c 0
 221.509 296.359 244.135 287.933 244.135 266.55 c 0
 244.135 257.997 240.799 250.299 237.093 250.299 c 0
 233.166 250.299 222.354 230.627 212.647 205.823 c 0
 190.894 150.229 193.516 79.2695 218.314 52.5 c 0
 234.372 35.166 235.528 35.084 269.173 48.876 c 0
 325.779 72.0801 334.581 96.3447 332.618 223.784 c 0
 331.723 281.945 327.628 332.159 323.552 334.974 c 0
 319.479 337.785 313.643 354.218 310.642 371.324 c 0
 305.989 397.838 307.758 404.062 322.378 412.633 c 0
 352.609 430.354 361.116 409.385 370.191 294.774 c 0
 384.618 112.596 364.773 46.7861 283.256 6.46484 c 0
 234.745 -17.5303 204.195 -6.76855 173.786 45.0273 c 0
 150.609 84.502 148.919 92.0684 151.808 143.387 c 2
 154.938 198.98 l 1
 117.771 193.85 l 2
 83.3447 189.096 78.8193 190.644 56.3506 214.858 c 0
 30.8887 242.3 28.0332 257.997 41.0332 299.051 c 0
 49.7441 326.56 110.339 389.928 151.808 414.896 c 0
EndSplineSet
EndChar
StartChar: uni0E23
Encoding: 130 3619 32767
OldEncoding: 3619
Width: 361
Flags: W
Fore
288.954 502.497 m 0
 293.681 513.145 321.208 512.419 326.574 501.505 c 0
 328.997 496.578 327.502 479.678 323.24 463.803 c 0
 318.941 447.79 309.927 409.729 302.912 377.98 c 0
 293.268 334.325 286.682 320.931 274.859 320.931 c 0
 248.84 320.931 233.13 332.33 225.635 356.648 c 0
 215.85 388.398 166.925 400.066 144.76 375.938 c 0
 123.145 352.407 129.311 344.841 176.472 337.025 c 0
 230.951 327.998 251.4 305.883 256.492 250.487 c 0
 263.058 179.051 246.754 76.708 222.667 38.1631 c 0
 198.487 -0.53125 144.004 -26.5078 121.992 -9.83691 c 0
 106.976 1.53613 96.5664 39.1553 91.4141 100.67 c 0
 88.3398 137.38 90.791 146.655 108.982 167.145 c 0
 126.224 186.564 137.849 190.591 172 188.973 c 2
 213.875 186.988 l 1
 216.314 229.155 l 2
 218.267 262.889 215.827 272.712 204.118 278.268 c 0
 195.986 282.126 186.952 289.622 183.79 295.135 c 0
 180.659 300.592 156.144 305.503 129.311 306.048 c 0
 102.478 306.594 77.9619 310.166 74.832 313.985 c 0
 68.5234 321.683 88.6543 380.461 97.5986 380.461 c 0
 101.147 380.461 104.104 385.422 104.104 391.374 c 0
 104.104 413.179 140.694 439.494 171.593 439.913 c 0
 202.491 440.332 250.466 415.033 250.466 398.319 c 0
 250.466 375.044 265.639 405.265 274.875 446.936 c 0
 280.593 472.732 287.045 498.198 288.954 502.497 c 0
200.215 105.631 m 0
 197.824 134.806 195.174 137.614 167.527 140.268 c 0
 132.513 143.628 126.075 133.411 130.073 80.8262 c 0
 132.186 53.0459 136.013 47.6172 155.331 44.998 c 0
 185.727 40.877 203.549 64.9521 200.215 105.631 c 0
EndSplineSet
EndChar
StartChar: uni0E24
Encoding: 131 3620 32767
OldEncoding: 3620
Width: 481
Flags: W
Fore
204.818 413.447 m 0
 270.272 436.586 295.964 437.772 333.272 419.382 c 0
 390.284 391.278 405.659 309.211 414.296 -13.085 c 0
 419.978 -225.122 419.93 -225.992 402.409 -231.483 c 0
 392.591 -234.56 381.745 -235.122 377.864 -232.755 c 0
 374.036 -230.421 368.15 -130.129 364.772 -9.69238 c 0
 361.396 110.745 355.361 236.968 351.353 271.045 c 0
 342.771 343.985 321.359 383 289.909 383 c 0
 255.546 383 193.759 364.121 170.455 346.5 c 2
 149.182 330.415 l 1
 153.682 223.124 l 2
 156.172 163.754 158.913 114.887 159.818 113.713 c 0
 160.718 112.548 178.228 118.089 198.682 126.012 c 0
 233.864 139.638 237.078 139.634 257.182 125.948 c 0
 293.486 101.233 283.364 28.0977 240 1.80957 c 0
 205.637 -19.0215 205.637 -19.0215 155.728 3.74219 c 0
 110.24 24.4902 103.955 38.6523 107.864 111.593 c 0
 108.991 132.634 109.175 179.444 108.272 215.915 c 2
 106.637 282.07 l 1
 78.8184 276.589 l 2
 42 269.334 32.4053 291.225 58.9434 321.934 c 0
 69.2051 333.808 82.0996 348.683 86.8828 354.163 c 0
 100.359 369.604 146.728 392.912 204.818 413.447 c 0
229.364 70.8818 m 0
 229.364 92.7881 202.336 89.541 179.942 64.9443 c 0
 161.409 44.5889 161.274 43.249 176.591 31.4424 c 0
 185.591 24.5059 195.042 19.0293 198.272 18.8809 c 0
 207.649 18.4492 229.364 54.7666 229.364 70.8818 c 0
EndSplineSet
EndChar
StartChar: uni0E25
Encoding: 132 3621 32767
OldEncoding: 3621
Width: 343
Flags: W
Fore
219.177 419.488 m 0
 227.718 423.298 238.899 426.619 244.024 426.867 c 0
 262.659 427.772 292.884 407.591 297.649 391.062 c 0
 300.185 382.266 299.639 291.736 296.436 189.886 c 0
 291.618 36.6885 288.601 3.90234 278.965 0.0722656 c 0
 272.202 -2.61523 262.271 -1.02734 255.283 3.86035 c 0
 245.441 10.7432 243.672 26.166 245.577 88.4551 c 0
 247.713 158.32 246.426 166.109 230.048 182.444 c 0
 196.952 215.452 176.913 204.195 118.924 120.021 c 0
 101.322 94.4717 104.259 91.457 137.647 100.804 c 0
 192.776 116.237 230.523 90.7266 220.061 45.1055 c 0
 213.783 17.7334 140.753 -13.7979 98.0479 -7.5752 c 0
 60 -2.03223 60 -2.03223 54.8701 39.2139 c 0
 51.5986 65.5176 55.7529 84.668 73.8604 126.755 c 0
 114.421 221.03 177.104 268.52 227.718 243.32 c 0
 238.589 237.908 248.838 233.656 251.012 233.656 c 0
 256.218 233.656 253.306 336.349 247.455 359.076 c 2
 242.471 378.436 l 1
 214.518 354.446 l 2
 199.211 341.309 171.812 315.232 153.953 296.803 c 0
 119.012 260.746 104.325 255.433 100.389 277.427 c 0
 97.5557 293.254 193.554 408.06 219.177 419.488 c 0
160.941 40.0283 m 2
 178.801 56.8896 l 1
 160.165 55.8037 l 2
 122.895 53.6318 106.589 47.3018 106.589 35.0049 c 0
 106.589 17.1475 139.977 20.2334 160.941 40.0283 c 2
EndSplineSet
EndChar
StartChar: uni0E26
Encoding: 133 3622 32767
OldEncoding: 3622
Width: 526
Flags: W
Fore
228.378 407.255 m 0
 296.01 444.045 314.973 444.238 349.737 408.489 c 0
 381.467 375.861 388.928 347.38 407.366 188.496 c 0
 416.939 105.999 425.858 -266.156 420.897 -376.152 c 0
 420.621 -382.272 412.487 -385.713 401.633 -384.301 c 2
 382.846 -381.856 l 1
 377.161 -129.271 l 2
 371.494 122.498 361.84 272.471 348.261 319.678 c 0
 339.823 349.01 309.966 388.119 296.01 388.119 c 0
 290.443 388.119 269.291 378.704 248.417 366.936 c 0
 212.514 346.692 211.586 345.243 227.543 334.329 c 0
 302.521 283.045 231.718 21.5898 137.366 1.33789 c 0
 108.143 -4.93555 67.1875 13.3789 48.6299 41.0195 c 0
 36.1914 59.5449 36.8984 63.0186 62.0488 107.018 c 0
 96.4668 167.226 118.162 175.931 183.289 155.659 c 0
 199.1 150.738 201.892 155.09 211.679 199.903 c 0
 226.092 265.901 216.551 301.361 183.289 305.419 c 0
 170.765 306.946 155.646 304.109 150.726 299.308 c 0
 138.713 287.585 111.761 288.716 111.884 300.938 c 0
 112.083 320.82 174.939 378.187 228.378 407.255 c 0
165.755 124.597 m 0
 134.184 147.241 112.448 137.165 96.2031 92.3516 c 0
 83.7979 58.1299 92.3037 37.7607 118.997 37.7607 c 0
 160.745 37.7607 195.872 102.995 165.755 124.597 c 0
EndSplineSet
EndChar
StartChar: uni0E27
Encoding: 134 3623 32767
OldEncoding: 3623
Width: 343
Flags: W
Fore
210.287 425.999 m 0
 255.266 450.664 266.599 447.997 288.362 407.621 c 0
 315.011 358.185 318.953 288.669 301.408 177.588 c 0
 283.172 62.1328 267.397 31.3223 216.228 11.2109 c 2
 178.887 -3.46582 l 1
 155.106 26.2725 l 2
 127.895 60.3008 124.081 93.6211 143.094 131.23 c 0
 161.359 167.364 181.433 176.355 219.622 165.512 c 0
 236.595 160.692 252.972 158.404 255.266 160.532 c 0
 257.618 162.714 261.63 203.827 264.271 252.808 c 0
 269.268 345.521 260.262 384.881 234.049 384.881 c 0
 227.448 384.881 206.515 367.388 186.949 345.521 c 0
 167.383 323.654 147.393 306.162 141.971 306.162 c 0
 136.673 306.162 124.224 292.167 114.739 275.549 c 0
 96.7676 244.062 74.1074 235.968 65.7637 258.056 c 0
 57.2871 280.495 157.671 397.146 210.287 425.999 c 0
230.994 91.8711 m 0
 228.686 112.863 223.695 118.631 206.044 120.71 c 0
 181.521 123.599 172.416 104.991 179.519 66.5068 c 0
 187.317 24.2471 235.805 48.1387 230.994 91.8711 c 0
EndSplineSet
EndChar
StartChar: uni0E28
Encoding: 135 3624 32767
OldEncoding: 3624
Width: 418
Flags: W
Fore
373.693 430.522 m 0
 417.067 476.737 431.723 483.709 449.062 466.379 c 0
 464.52 450.931 460.225 430.444 440.293 424.552 c 0
 430.646 421.7 404.098 397.854 381.296 371.559 c 2
 339.838 323.751 l 1
 343.824 168.772 l 2
 347.637 20.5664 347.148 13.7939 332.663 13.7939 c 0
 301.189 13.7939 297.407 31.3242 295.868 184.311 c 2
 294.395 330.922 l 1
 272.47 359.607 l 2
 255.417 381.918 244.698 388.292 224.235 388.292 c 0
 181.184 388.292 107.835 324.525 107.835 287.098 c 0
 107.835 265.307 117.402 263.945 144.51 281.879 c 0
 162.068 293.496 168.427 293.745 197.926 283.971 c 0
 260.909 263.103 278.241 220.707 236.991 188.414 c 0
 219.082 174.393 207.095 172.029 165.637 174.35 c 2
 115.808 177.139 l 1
 114.214 149.251 l 2
 113.328 133.757 112.075 105.427 111.396 85.5068 c 0
 107.563 -26.8428 109.539 -19.0605 85.5117 -16.4414 c 2
 63.9863 -14.0938 l 1
 61.5947 137.299 l 2
 60.1465 228.931 62.5293 300.329 67.6309 318.173 c 0
 77.2764 351.913 133.348 402.987 183.575 423.784 c 0
 229.019 442.6 271.896 433.746 305.29 398.65 c 0
 319.695 383.511 331.068 374.547 331.068 378.332 c 0
 331.068 382.016 350.512 405.821 373.693 430.522 c 0
200.317 245.898 m 0
 174.806 266.146 151.77 265.201 136.33 243.273 c 0
 117.54 216.588 120.592 212.995 162.049 212.995 c 0
 210.682 212.995 225.606 225.827 200.317 245.898 c 0
EndSplineSet
EndChar
StartChar: uni0E29
Encoding: 136 3625 32767
OldEncoding: 3625
Width: 565
Flags: W
Fore
428.321 443.837 m 0
 435.74 451.319 438.177 450.984 458.783 439.646 c 0
 473.344 431.636 475.806 419.889 475.806 358.437 c 2
 475.806 286.592 l 1
 498.652 295.629 l 2
 511.195 300.591 523.114 304.666 525.082 304.666 c 0
 536.691 304.666 527.333 276.651 503.649 240.503 c 0
 488.54 217.44 474.885 181.763 471.139 155.555 c 0
 456.153 50.7256 413.373 6.44434 327.082 6.44434 c 0
 223.603 6.44434 208.683 32.6514 207.729 216.104 c 0
 207.051 346.236 205.104 349.956 149.688 326.94 c 0
 113.851 312.056 71.8896 316.214 55.2754 336.296 c 0
 28.3916 368.792 105.787 431.185 172.982 431.185 c 0
 207.104 431.185 235.914 406.785 247.674 367.926 c 0
 251.424 355.536 256.939 282.074 259.887 205.259 c 2
 265.263 65.1846 l 1
 322.154 62.4736 l 2
 373.222 60.04 381.248 62.168 400.562 83.2588 c 0
 424.561 109.466 431.684 178.147 410.403 178.147 c 0
 388.005 178.147 296.62 233.31 296.62 246.829 c 0
 296.62 270.449 314.539 295.026 342.312 309.501 c 0
 371.878 324.909 404.132 319.558 404.132 299.244 c 0
 404.132 292.015 407.972 286.592 413.091 286.592 c 0
 418.349 286.592 422.05 317.771 422.05 362.052 c 0
 422.05 403.622 424.867 440.352 428.321 443.837 c 0
180.149 388.731 m 0
 167.606 400.365 135.354 404.255 135.354 394.133 c 0
 135.354 387.937 128.634 378.254 119.675 371.54 c 0
 105.202 360.696 105.787 359.763 127.29 359.407 c 0
 149.688 359.037 188.782 380.725 180.149 388.731 c 0
390.692 263.096 m 0
 375.104 278.82 352.168 281.32 333.354 269.347 c 0
 318.948 260.179 327.978 241.407 346.792 241.407 c 0
 353.96 241.407 359.335 237.146 359.335 231.467 c 0
 359.335 218.664 397.363 225.141 401.785 238.696 c 0
 403.608 244.287 398.756 254.963 390.692 263.096 c 0
EndSplineSet
EndChar
StartChar: uni0E2A
Encoding: 137 3626 32767
OldEncoding: 3626
Width: 376
Flags: W
Fore
357.784 502.662 m 0
 399.323 518.832 420.923 516.846 420.923 496.857 c 0
 420.923 486.729 414.692 476.963 406.385 474.069 c 0
 398.388 471.284 376.893 458.941 358.615 446.64 c 0
 340.338 434.339 314.917 418.957 302.123 412.459 c 0
 286.338 404.441 280.427 396.574 283.731 387.983 c 0
 298.697 349.08 306.819 269.826 306.307 167.704 c 0
 305.628 32.667 298.759 -4.54492 273.877 -7.97266 c 0
 257.106 -10.2822 256.302 -6.15527 253.116 98.498 c 0
 249.519 216.655 243.087 235.223 205.754 235.223 c 0
 175.863 235.223 96.9229 148.293 96.9229 115.378 c 2
 96.9229 91.7461 l 1
 126.415 103.983 l 2
 150.328 113.906 161.723 114.306 186.646 106.094 c 0
 214.062 97.0605 217.65 92.5898 219.844 64.7383 c 0
 223.129 23.0137 193.292 -9.53125 151.754 -9.53125 c 0
 135.969 -9.53125 120.398 -5.67383 117.692 -1.0918 c 0
 114.88 3.66895 105.646 7.34766 96.5078 7.34766 c 0
 87.0371 7.34766 73.4053 18.7422 63.6924 34.7773 c 0
 50.3994 56.7207 48.1309 70.6465 52.3467 104.406 c 0
 59.3027 160.108 74.1953 188.413 121.846 236.494 c 0
 163.385 278.408 202.153 293.48 238.153 281.71 c 0
 253.107 276.82 255.6 278.573 251.861 291.348 c 0
 249.336 299.977 244.761 321.309 241.634 339.032 c 0
 234.172 381.32 215.938 379.544 172.343 332.28 c 0
 136.532 293.458 116.487 285.521 108.39 306.961 c 0
 97.5752 335.592 186.646 420.898 227.354 420.898 c 0
 249.784 420.898 283.738 441.154 312.238 471.537 c 0
 323.092 483.108 343.661 497.165 357.784 502.662 c 0
170.861 58.8311 m 0
 157.684 66.8633 149.262 67.2324 130.153 60.6143 c 0
 123.508 58.3125 112.265 54.5264 106.062 52.501 c 0
 97.0742 49.5664 98.584 44.7695 112.708 31.3945 c 0
 131.736 13.374 154.446 15.7881 172.322 37.7314 c 0
 181.261 48.7031 180.986 52.6592 170.861 58.8311 c 0
EndSplineSet
EndChar
StartChar: uni0E2B
Encoding: 138 3627 32767
OldEncoding: 3627
Width: 544
Flags: W
Fore
465.829 446.148 m 0
 465.829 458.725 485.766 457.057 504.836 442.885 c 0
 528.219 425.509 517.261 384.942 469.297 311.318 c 0
 430.578 251.887 429.549 248.519 433.757 195.117 c 0
 436.165 164.563 442.504 115.283 448.02 84.2373 c 0
 459.525 19.4834 454.73 -6.24023 431.156 -6.24023 c 0
 410.083 -6.24023 396.694 19.4834 395.609 62.0615 c 0
 395.131 80.835 390.334 111.292 384.781 130.807 c 2
 374.813 165.845 l 1
 355.31 139.677 l 2
 344.731 125.484 332.831 109.45 329.305 104.639 c 0
 325.693 99.7109 316.073 85.124 307.66 71.8184 c 0
 286.907 38.998 229.112 0.791992 210.984 7.91113 c 0
 186.032 17.709 180.418 41.6592 174.376 164.07 c 2
 168.51 282.934 l 1
 137.305 266.527 l 2
 106.099 250.121 55.5742 251.396 37.6201 269.044 c 0
 27.0283 279.455 39.2188 334.382 56.6484 354.783 c 0
 87.7188 391.152 154.105 414.111 166.935 392.926 c 0
 170.204 387.528 181.945 379.602 193.214 375.186 c 0
 209.264 368.896 213.506 360.992 213.214 337.93 c 0
 212.631 291.804 229.815 72.9502 234.389 68.2705 c 0
 239.907 62.623 318.184 164.07 352.111 220.841 c 0
 371.726 253.661 379.147 276.794 379.147 305.109 c 0
 379.147 382.281 387.724 409.673 416.421 424.154 c 0
 431.156 431.591 447.496 437.277 454.127 437.277 c 0
 460.194 437.277 465.829 441.549 465.829 446.148 c 0
443.591 360.105 m 0
 461.764 388.491 458.454 398.352 436.357 381.654 c 0
 427.556 375.003 422.266 362.323 424.222 352.565 c 0
 427.317 337.122 429.393 337.93 443.591 360.105 c 0
144.239 349.615 m 0
 137.305 354.089 124.302 357.513 113.9 357.604 c 0
 89.6289 357.816 78.5771 309.323 98.2979 289.143 c 0
 109.931 277.237 113.033 277.434 127.77 291.006 c 0
 151.174 312.561 158.924 340.142 144.239 349.615 c 0
EndSplineSet
EndChar
StartChar: uni0E2C
Encoding: 139 3628 32767
OldEncoding: 3628
Width: 613
Flags: W
Fore
447.7 709.971 m 0
 487.524 754.73 518.893 744.81 532.981 682.998 c 2
 544.253 633.549 l 1
 596.212 680.094 l 2
 678.638 753.931 708.174 736.942 647.829 650.406 c 0
 629.804 624.558 597.4 593.474 574.021 579.604 c 2
 532.346 554.879 l 1
 535.593 293.021 l 2
 537.433 144.674 534.617 28.4512 529.098 24.9033 c 0
 508.085 11.3984 484.559 33.4131 471.962 78.3662 c 0
 464.719 104.215 455.798 128.11 452.241 131.188 c 0
 448.762 134.198 434.94 151.417 422.473 168.274 c 2
 399.199 199.742 l 1
 357.523 160.407 l 2
 325.736 130.406 311.531 105.339 297.66 54.7656 c 0
 278.856 -13.7891 255.805 -37.0898 229.248 -14.3838 c 0
 217.994 -4.76172 214.093 32.8506 214.093 131.75 c 0
 214.093 205.924 209.537 267.913 203.81 271.669 c 0
 197.982 275.49 179.453 270.958 161.051 261.21 c 0
 122.081 240.568 71.6504 238.614 53.8848 257.059 c 0
 27.9385 283.996 38.7295 329.713 79.8643 367.115 c 0
 153.474 434.047 191.08 436.108 245.334 376.187 c 0
 275.886 342.443 276.69 338.538 270.924 252.001 c 0
 265.232 166.589 265.876 163.175 285.537 174.456 c 0
 297.18 181.136 317.614 199.181 332.626 216.038 c 0
 355.832 242.098 365.642 245.188 411.106 240.763 c 2
 463.065 235.706 l 1
 465.451 343.596 l 2
 469.6 531.278 464.77 583.73 441.416 604.609 c 0
 412.188 630.739 414.702 672.883 447.7 709.971 c 0
192.443 355.958 m 0
 192.443 393.938 142.18 385.178 121.517 343.596 c 2
 104.762 309.88 l 1
 135.071 316.872 l 2
 188.113 329.11 192.443 332.06 192.443 355.958 c 0
EndSplineSet
EndChar
StartChar: uni0E2D
Encoding: 140 3629 32767
OldEncoding: 3629
Width: 515
Flags: W
Fore
268.821 409.451 m 0
 291.855 422.84 317.673 434.316 324.76 434.316 c 0
 345.725 434.316 367.915 409.465 389.852 361.42 c 0
 418.218 299.292 410.378 141.623 376.012 83.0869 c 0
 362.88 60.7207 352.181 37.2891 352.181 30.8994 c 0
 352.181 14.5283 311.599 -13.0049 287.468 -13.0049 c 0
 234.82 -13.0049 161.557 69.833 167.317 122.849 c 0
 168.847 136.931 163.667 157.507 155.848 168.409 c 0
 146.937 180.835 145.497 190.153 152.009 193.26 c 0
 157.87 196.056 170.402 209.827 180.653 224.738 c 0
 203.434 257.873 261.144 273.997 310.501 261.017 c 2
 344.503 252.074 l 1
 338.403 306.747 l 2
 328.79 392.897 319.578 392.897 209.441 306.747 c 0
 179.789 283.553 134.075 278.556 126.081 297.635 c 0
 122.025 307.313 205.205 372.473 268.821 409.451 c 0
303.92 213.837 m 0
 258.95 239.648 258.95 239.648 237.797 217.283 c 0
 221.345 199.887 221.658 198.591 244.691 188.768 c 0
 273.209 176.605 326.272 174.379 335.043 184.977 c 0
 338.491 189.143 324.76 201.875 303.92 213.837 c 0
300.081 130.304 m 0
 283.629 132.563 258.452 137.27 244.691 140.658 c 0
 221.204 146.442 220.006 145.215 227.315 122.849 c 0
 240.312 83.0869 275.326 25.8711 283.081 31.7275 c 0
 291.062 37.7559 330.244 112.08 330.244 121.191 c 0
 330.244 123.902 316.534 128.045 300.081 130.304 c 0
EndSplineSet
EndChar
StartChar: uni0E2E
Encoding: 141 3630 32767
OldEncoding: 3630
Width: 507
Flags: W
Fore
372.139 414.132 m 0
 422.903 449.037 429.51 450.895 446.129 434.94 c 0
 455.467 425.977 449.553 416.228 415.936 385.173 c 0
 392.662 363.674 365.966 341.965 355.714 336.202 c 0
 340.196 327.479 337.3 314.702 337.3 254.981 c 0
 337.3 171.372 320.093 64.0166 304.245 48.7451 c 0
 298.249 42.9678 288.664 30.8291 282.553 21.2734 c 0
 276.657 12.0547 259.659 -0.396484 245.724 -5.70508 c 0
 204.319 -21.4775 174.415 -5.40137 139.991 51.1338 c 0
 86.1738 139.521 88.3701 212.156 146.185 255.942 c 0
 177.041 279.312 241.483 293.727 252.244 279.666 c 0
 263.673 264.732 278.777 270.907 275.619 289.222 c 0
 273.687 300.434 263.641 308.372 247.714 311.274 c 0
 145.188 329.955 123.149 361.07 182.019 404.02 c 0
 201.926 418.544 226.7 430.163 237.761 430.163 c 0
 264.636 430.163 307.438 407.662 307.438 393.534 c 0
 307.438 375.525 323.364 380.596 372.139 414.132 c 0
267.622 361.683 m 0
 267.622 368.421 259.161 377.271 248.212 381.988 c 0
 232.286 388.849 226.926 387.634 218.351 375.22 c 0
 209.799 362.841 211.88 359.241 229.797 355.419 c 0
 262.646 348.411 267.622 349.235 267.622 361.683 c 0
267.622 203.224 m 0
 267.622 213.575 260.049 228.115 250.203 236.667 c 0
 235.825 249.154 227.309 250.406 201.429 243.834 c 0
 184.507 239.536 165.05 227.074 159.159 216.76 c 0
 145.515 192.872 144.821 143.502 158.129 143.502 c 0
 164.102 143.502 168.083 146.21 168.083 150.271 c 0
 168.083 154.031 184.009 159.205 203.917 161.912 c 0
 248.71 168.004 267.622 180.269 267.622 203.224 c 0
277.576 120.41 m 0
 277.576 127.459 230.793 128.317 189.981 122.017 c 0
 163.663 117.954 163.678 118.817 189.072 71.041 c 0
 209.811 32.0234 223.612 25.5713 238.465 47.9492 c 0
 256.435 75.0225 277.576 114.19 277.576 120.41 c 0
EndSplineSet
EndChar
StartChar: uni0E2F
Encoding: 142 3631 32767
OldEncoding: 3631
Width: 469
Flags: W
Fore
121.835 415.441 m 0
 139.354 424.753 175.724 424.612 196.029 415.155 c 0
 205.491 410.748 223.737 396.029 236.641 382.395 c 2
 260.07 357.636 l 1
 283.408 389.93 l 2
 309.34 425.812 335.895 433.23 350.197 408.588 c 0
 367.691 378.447 381.98 -5.85254 366.448 -28.459 c 0
 363.074 -33.3691 353.009 -36.5986 345.198 -35.2764 c 0
 331.271 -32.9189 330.023 -20.9238 324.893 159.924 c 0
 321.879 266.136 318.023 353.9 316.302 355.482 c 0
 314.58 357.064 299.543 342.564 282.81 323.188 c 0
 236.948 270.082 197.782 248.796 153.074 252.676 c 0
 102.281 257.084 76.5371 285.871 76.5371 338.259 c 0
 76.5371 362.659 101.022 404.379 121.835 415.441 c 0
185.876 376.332 m 0
 154.637 391.188 137.987 389.876 121.658 371.271 c 0
 107.172 354.765 103.509 329.647 115.587 329.647 c 0
 119.336 329.647 123.709 322.111 124.959 313.5 c 0
 126.298 304.273 136.674 293.201 149.17 287.665 c 0
 169.1 278.835 173.771 279.63 201.887 296.636 c 0
 219.068 307.027 232.735 316.884 232.735 318.883 c 0
 232.735 333.534 205.401 367.047 185.876 376.332 c 0
EndSplineSet
EndChar
StartChar: uni0E30
Encoding: 143 3632 32767
OldEncoding: 3632
Width: 423
Flags: W
Fore
148.617 134.245 m 0
 155.698 137.569 168.288 140.627 175.369 140.744 c 0
 195.594 141.076 221.005 117.738 221.005 98.832 c 0
 221.005 82.3486 221.005 82.3486 238.708 90.5898 c 0
 248.24 95.0283 266.527 107.558 278.33 117.738 c 0
 301.372 137.615 315.423 138.35 315.423 119.678 c 0
 315.423 104.61 285.523 78.96 256.411 69.0518 c 0
 243.035 64.499 228.886 57.8672 223.759 53.7461 c 0
 216.041 47.5439 210.776 47.3652 187.958 52.5342 c 0
 173.009 55.9209 156.693 58.5938 150.978 58.5938 c 0
 140.749 58.5938 110.78 76.4102 111.02 82.3486 c 0
 111.448 93.0146 137.559 129.053 148.617 134.245 c 0
176.195 100.771 m 0
 171.811 108.49 164.301 108.043 151.791 99.3164 c 0
 140.8 91.6504 146.257 82.834 161.993 82.834 c 0
 173.859 82.834 181.152 92.0449 176.195 100.771 c 0
147.83 319.715 m 0
 168.288 330.812 189.908 339.773 196.22 339.773 c 0
 202.543 339.773 220.957 330.806 237.527 319.655 c 2
 267.427 299.536 l 1
 276.813 312.141 l 2
 288.727 328.139 305.525 332.198 314.935 321.352 c 0
 320.65 314.763 316.622 306.808 298.486 288.871 c 0
 269.078 259.783 255.7 251.688 223.365 243.412 c 0
 182.45 232.94 149.221 237.652 128.422 256.874 c 0
 100.396 282.776 104.556 296.242 147.83 319.715 c 0
204.805 306.323 m 0
 200.493 311.171 193.632 315.534 190.318 315.534 c 0
 180.033 315.534 158.059 292.749 158.059 282.084 c 0
 158.059 269.104 168.288 266.069 192.679 271.811 c 0
 214.973 277.058 219.463 289.84 204.805 306.323 c 0
EndSplineSet
EndChar
StartChar: uni0E31
Encoding: 144 3633 32767
OldEncoding: 3633
Width: 0
Flags: W
Fore
-71.125 600.05 m 0
 -64.8926 612.765 -58.6289 617.271 -49.2002 615.826 c 0
 -28.4307 612.641 -30.5781 593.058 -55.1826 561.271 c 0
 -122.106 474.814 -179.52 443.956 -234.6 464.839 c 0
 -263.483 475.79 -273.965 497.064 -269.27 535.207 c 0
 -266.922 554.278 -260.631 572.665 -254.4 578.667 c 0
 -222.6 609.297 -215.949 610.861 -189 594.052 c 0
 -166.2 579.83 -153.979 550.585 -163.878 533.936 c 0
 -172.194 519.95 -173.143 502.786 -165.6 502.786 c 0
 -152.142 502.786 -84.835 572.079 -71.125 600.05 c 0
-197.922 560 m 0
 -213.18 578 -223.154 575.893 -237.052 551.736 c 0
 -251.314 526.943 -252.134 513.268 -240 502.505 c 0
 -232.703 496.032 -228.9 496.506 -219.9 505.011 c 0
 -213.9 510.681 -205.768 515.5 -202.2 515.5 c 0
 -189.6 515.5 -186.605 546.65 -197.922 560 c 0
EndSplineSet
EndChar
StartChar: uni0E32
Encoding: 145 3634 32767
OldEncoding: 3634
Width: 340
Flags: W
Fore
190.113 422.626 m 0
 236.941 438.936 249.913 438.367 267.018 419.255 c 0
 286.764 397.189 295.438 343.819 295.738 242.521 c 0
 295.875 196.541 298.555 126.977 301.717 87.3389 c 0
 307.734 11.9033 304.429 -2.46484 281.055 -2.46484 c 0
 258.803 -2.46484 254.587 28.4277 254.587 191.512 c 0
 254.587 281.315 251.607 357.175 247.646 368.246 c 0
 238.952 392.542 224.726 390.113 140.571 349.968 c 0
 106.638 333.78 74.665 320.83 68.6318 320.83 c 0
 57.4346 320.83 54.6426 333.762 63.0498 346.693 c 0
 72.2236 360.805 155.502 410.571 190.113 422.626 c 0
EndSplineSet
EndChar
StartChar: uni0E33
Encoding: 146 3635 32767
OldEncoding: 3635
Width: 343
Flags: W
Fore
154.331 427.197 m 0
 180.353 440.119 210.515 450.367 222.524 450.367 c 0
 251.344 450.367 287.172 409.374 287.95 375.51 c 0
 288.787 339.071 297.493 80.5342 299.233 40.4326 c 0
 300.354 14.5889 297.203 8.74707 280.847 6.3584 c 0
 245.854 1.24707 239.304 31.5205 237.809 205.298 c 0
 236.221 389.769 230.022 414.282 190.222 393.504 c 0
 177.177 386.694 149.845 368.023 131.002 353.053 c 0
 91.5225 321.684 71.7822 317.881 71.7822 341.646 c 0
 71.7822 368.768 104.084 402.244 154.331 427.197 c 0
-156.574 715.488 m 0
 -133.245 736.665 -105.753 753.362 -94.2139 753.362 c 0
 -61.0146 753.362 -26.918 720.401 -26.918 688.308 c 0
 -26.918 643.7 -76.2676 581.187 -123.823 565.553 c 0
 -151.639 556.409 -156.706 557.766 -181.249 580.923 c 0
 -204.803 603.146 -207.55 610.776 -203.232 641.967 c 0
 -199.306 670.331 -189.773 685.352 -156.574 715.488 c 0
-80.7539 668.702 m 0
 -80.7539 681.179 -85.4922 690.6 -91.5215 690.114 c 0
 -117.542 688.019 -152.64 668.559 -157.462 653.553 c 0
 -165.193 629.491 -153.449 601.865 -135.488 601.865 c 0
 -113.595 601.865 -80.7539 641.967 -80.7539 668.702 c 0
EndSplineSet
LCarets: 0 255 '    ' 1 0 
Ligature: 8 0 'liga' uni0E4D uni0E32
EndChar
StartChar: uni0E34
Encoding: 147 3636 5
OldEncoding: 3636
Width: 0
Flags: W
Fore
-252.931 600.405 m 0
 -236.582 605.605 -209.756 608.633 -192.965 607.172 c 0
 -152.987 603.695 -104.212 581.813 -100.641 565.754 c 0
 -99.0605 558.65 -91.6729 545.726 -83.8516 536.38 c 0
 -72.5586 522.887 -51.4453 468.953 -51.4453 453.599 c 0
 -51.4453 451.396 -58.6416 449.593 -67.4365 449.593 c 0
 -76.2314 449.593 -83.4277 452.597 -83.4277 456.269 c 0
 -83.4277 460.319 -120.206 463.22 -176.974 463.645 c 0
 -300.903 464.57 -355.392 470.35 -365.521 483.64 c 0
 -371.491 491.473 -368.903 502.332 -355.816 524.363 c 0
 -335.854 557.968 -297.705 586.163 -252.931 600.405 c 0
-172.177 566.605 m 0
 -214.563 584.911 -243.653 578.438 -287.007 541.053 c 2
 -326.489 507.006 l 1
 -298.904 501.999 l 2
 -283.713 499.241 -261.622 498.491 -249.732 500.33 c 0
 -237.958 502.15 -200.161 500.481 -166.58 496.658 c 0
 -132.999 492.834 -103.925 490.54 -102.616 491.609 c 0
 -95.8018 497.181 -152.188 557.973 -172.177 566.605 c 0
EndSplineSet
EndChar
StartChar: uni0E35
Encoding: 148 3637 6
OldEncoding: 3637
Width: 0
Flags: W
Fore
-83.4248 634.24 m 0
 -79.6572 640.894 -68.9082 646.122 -58.9941 646.122 c 2
 -41.292 646.122 l 1
 -46.1895 575.491 l 2
 -52.0938 490.34 -56.7617 471.877 -73.1572 468.82 c 0
 -79.6914 467.603 -96.5244 475.931 -109.979 487.039 c 0
 -123.433 498.147 -135.409 507.954 -136.179 508.492 c 0
 -136.958 509.037 -197.784 511.264 -271.427 513.442 c 0
 -387.557 516.879 -406.243 518.888 -412.694 528.625 c 0
 -418.545 537.455 -415.754 544.137 -399.595 559.979 c 0
 -388.148 571.201 -375.299 580.112 -370.562 580.112 c 0
 -366.156 580.112 -358.314 584.403 -354.275 589.023 c 0
 -350.037 593.872 -324.535 601.742 -298.335 606.286 c 0
 -223.983 619.181 -176.701 607.742 -132.846 566.25 c 0
 -113.311 547.768 -97.291 537.454 -94.4004 541.497 c 0
 -91.6562 545.334 -89.6016 564.93 -89.7969 585.393 c 0
 -89.9932 605.855 -87.1484 627.662 -83.4248 634.24 c 0
-201.324 570.72 m 0
 -229.648 581.862 -267.063 583.118 -282.757 573.452 c 0
 -288.551 569.884 -302.229 566.91 -312.852 566.91 c 0
 -323.473 566.91 -332.324 563.91 -332.324 560.31 c 0
 -332.324 556.289 -301.876 553.709 -254.433 553.709 c 0
 -211.238 553.709 -176.541 555.326 -176.541 557.339 c 0
 -176.541 559.31 -187.87 565.427 -201.324 570.72 c 0
EndSplineSet
EndChar
StartChar: uni0E36
Encoding: 149 3638 7
OldEncoding: 3638
Width: 0
Flags: W
Fore
-374.274 569.618 m 0
 -341.089 590.055 -329.234 594.028 -301.451 594.028 c 0
 -259.662 594.028 -232.603 578.14 -210.942 540.883 c 0
 -202.32 526.051 -192.48 513.691 -189.296 513.691 c 0
 -186.046 513.691 -170.245 524.787 -153.652 538.72 c 0
 -128.456 559.877 -120.236 563.461 -100.494 561.894 c 0
 -80.2148 560.283 -76.4951 557.438 -72.2256 540.265 c 0
 -68.5381 525.434 -70.2725 514.928 -79.1611 498.242 c 0
 -98.585 461.782 -124.303 444.278 -138.597 457.79 c 0
 -141.684 460.708 -149.966 464.793 -157.34 467.035 c 0
 -167.995 470.274 -171.832 467.344 -177.162 451.895 c 0
 -186.156 425.827 -210.042 427.794 -214.698 454.984 c 0
 -217.746 472.782 -219.102 473.475 -248.6 472.288 c 0
 -265.618 471.604 -314.971 470.225 -359.218 469.198 c 2
 -439.109 467.344 l 1
 -440.953 486.501 l 2
 -441.964 497.007 -439.05 509.565 -434.5 514.31 c 0
 -429.891 519.116 -423.473 527.905 -420.059 534.085 c 0
 -416.724 540.121 -395.783 556.373 -374.274 569.618 c 0
-251.059 545.208 m 0
 -265.64 559.871 -273.796 562.978 -295.92 562.293 c 0
 -342.625 560.848 -352.477 556.777 -380.642 527.287 c 0
 -407.792 498.86 -408.055 498.196 -393.019 496.08 c 0
 -384.614 494.896 -345.084 497.57 -305.753 501.981 c 0
 -225.247 511.011 -220.657 514.639 -251.059 545.208 c 0
-108.259 507.512 m 0
 -99.5654 525.434 -99.7773 526.051 -114.629 526.051 c 0
 -130.607 526.051 -138.69 513.626 -132.721 498.242 c 0
 -127.09 483.732 -118.151 487.119 -108.259 507.512 c 0
EndSplineSet
EndChar
StartChar: uni0E37
Encoding: 150 3639 8
OldEncoding: 3639
Width: 0
Flags: HW
Fore
-97.3691 661.023 m 4
 -84.624 679.107 -79.5996 679.604 -62.1982 664.489 c 4
 -52.3076 655.899 -48.6641 636.912 -48.6641 593.963 c 4
 -48.6641 532.177 -60.0352 505.943 -83.3457 513.95 c 4
 -101.422 520.159 -112.77 639.173 -97.3691 661.023 c 4
-183.163 669.441 m 4
 -167.091 678.439 -162.534 677.703 -149.75 664.037 c 4
 -141.235 654.938 -141.071 641.433 -148.904 594.717 c 4
 -154.21 563.07 -158.632 525.909 -158.632 512.963 c 4
 -158.632 500.154 -161.001 483.679 -163.778 477.173 c 4
 -170.413 461.632 -197.92 462.103 -207.788 477.926 c 4
 -213.538 487.146 -222.075 488.781 -244.068 484.878 c 4
 -351.499 465.816 -431.287 475.433 -436.447 508.065 c 4
 -440.762 535.348 -414.097 574.589 -379.414 591.998 c 4
 -327.812 617.899 -262.41 611.793 -221.229 577.227 c 6
 -203.465 562.316 l 5
 -198.812 612.801 l 6
 -196.035 642.939 -189.729 665.766 -183.163 669.441 c 4
-259.295 555.219 m 4
 -298.207 579.817 -327.708 580.879 -364.188 558.995 c 4
 -384.489 546.816 -395.397 534.992 -393.795 526.902 c 4
 -391.654 516.102 -378.991 513.739 -313.01 511.833 c 4
 -240.262 509.731 -234.764 510.632 -234.764 524.643 c 4
 -234.764 532.956 -245.761 546.663 -259.295 555.219 c 4
EndSplineSet
EndChar
StartChar: uni0E38
Encoding: 151 3640 9
OldEncoding: 3640
Width: 0
Flags: W
Fore
-223.407 -39.627 m 0
 -198.353 -21.9053 -171.374 -28.9443 -157.888 -56.7227 c 0
 -151.501 -69.8779 -149.309 -89.8242 -147.481 -151.398 c 2
 -145.167 -229.407 l 1
 -156.277 -225.936 l 2
 -162.296 -224.055 -168.98 -220.129 -170.861 -217.37 c 0
 -172.776 -214.561 -174.333 -188.204 -174.333 -158.574 c 2
 -174.333 -104.87 l 1
 -212.296 -105.333 l 2
 -249.333 -105.785 -250.366 -105.491 -254.657 -93.2959 c 0
 -258.202 -83.2217 -256.989 -77.7871 -248.407 -65.2871 c 0
 -242.686 -56.9541 -231.119 -45.0811 -223.407 -39.627 c 0
-181.277 -68.7598 m 0
 -181.277 -56.7227 -183.13 -54.7178 -195.167 -53.7285 c 0
 -210.907 -52.4355 -217.068 -55.7744 -224.604 -69.6855 c 0
 -232.696 -84.626 -231.74 -85.3516 -205.814 -83.9629 c 0
 -182.204 -82.6982 -181.277 -82.124 -181.277 -68.7598 c 0
EndSplineSet
EndChar
StartChar: uni0E39
Encoding: 152 3641 10
OldEncoding: 3641
Width: 0
Flags: W
Fore
-263.232 -49.1113 m 0
 -255.581 -44.3574 -242.768 -40.4414 -234.86 -40.4414 c 0
 -219.047 -40.4414 -195.791 -55.9453 -195.791 -66.4883 c 0
 -195.791 -70.209 -193.798 -73 -191.14 -73 c 0
 -188.672 -73 -186.488 -78.3486 -186.488 -84.3945 c 0
 -186.488 -90.6299 -184.066 -106.953 -181.14 -120.441 c 2
 -175.791 -145.093 l 1
 -170.21 -131.139 l 2
 -167.1 -123.365 -163.171 -102.767 -161.338 -84.6279 c 0
 -157.671 -48.3486 -149.642 -34.9316 -137.651 -45.0488 c 0
 -128.931 -52.4072 -128.876 -68.3486 -137.434 -108.813 c 0
 -145.794 -148.349 -162.146 -187.966 -171.604 -191.604 c 0
 -182.011 -195.606 -195.791 -178.116 -195.791 -160.906 c 0
 -195.791 -140.441 -209.885 -91.6045 -215.791 -91.6045 c 0
 -218.582 -91.6045 -227.884 -94.1465 -236.256 -97.1963 c 0
 -253.931 -103.636 -287.569 -95.7607 -291.935 -84.1621 c 0
 -294.956 -76.1348 -282.768 -61.25 -263.232 -49.1113 c 0
-230.21 -57.917 m 0
 -236.668 -53.4062 -242.303 -53.8633 -254.86 -59.916 c 0
 -277.953 -71.0459 -257.187 -92.3564 -233 -82.3496 c 0
 -219.977 -76.9609 -218.719 -65.9424 -230.21 -57.917 c 0
EndSplineSet
EndChar
StartChar: uni0E3A
Encoding: 153 3642 11
OldEncoding: 3642
Width: 0
Flags: W
Fore
-306 -45 m 4
 -228 -25 -237 -142 -308 -156 c 4
 -397 -173 -372 -61 -306 -45 c 4
EndSplineSet
EndChar
StartChar: uni0E3F
Encoding: 154 3647 32767
OldEncoding: 3647
Width: 526
Flags: W
DStem: 255.889 585.556 289.222 591.806 255.889 529.306 291.306 536.25
Fore
260.75 646.667 m 0
 263.572 649.489 270.125 650.654 276.375 649.444 c 0
 284.852 647.804 287.581 635.556 289.222 591.806 c 2
 291.306 536.25 l 1
 329.5 538.576 l 2
 394.777 542.553 418.368 511.954 399.29 448.056 c 0
 388.808 412.949 365.91 378.611 322.418 332.778 c 2
 294.083 302.917 l 1
 332.277 307.431 l 2
 364.916 311.288 374.007 309.556 394.777 295.522 c 0
 441.389 264.028 453.853 205 425.477 150.14 c 0
 406.36 113.182 334.36 65.0791 269.777 46.1191 c 0
 252.416 41.0225 236.521 34.0127 234.014 30.3477 c 0
 231.544 26.7383 227.497 -9.58301 225.078 -49.8604 c 0
 218.987 -151.249 215.019 -173.798 202.416 -178.606 c 0
 173.596 -189.604 170.104 -156.11 187.33 -33.8887 c 0
 193.594 10.5557 192.976 15.1855 178.806 30.001 c 0
 170.234 38.9609 151.027 51.915 135.056 59.5088 c 0
 106.931 72.8799 63.4531 114.723 48.0996 143.195 c 0
 42.4834 153.611 43.3018 159.774 51.375 167.848 c 0
 57.625 174.098 63.8857 178.611 66.3057 178.611 c 0
 74.2686 178.611 96.166 155.695 96.166 147.361 c 0
 96.166 136.945 151.188 85.7168 156.583 91.1113 c 0
 158.508 93.0361 156.805 120.278 152.764 152.223 c 0
 148.735 184.065 143.607 254.306 141.306 309.167 c 0
 139.003 364.028 134.963 414.533 132.277 422.014 c 0
 127.416 435.556 127.416 435.556 100.333 421.149 c 0
 73.25 406.744 62.0107 410.328 61.6973 433.473 c 0
 61.5381 445.255 108.666 470.942 188.527 502.602 c 2
 255.889 529.306 l 1
 255.889 585.556 l 2
 255.889 616.806 258.049 643.966 260.75 646.667 c 0
364.916 469.931 m 2
 369.083 505 l 1
 345.472 504.395 l 2
 288.306 502.929 287.758 502.223 278.664 418.194 c 0
 274.154 376.528 271.066 341.876 271.795 341.111 c 0
 274.987 337.759 329.5 391.111 344.877 412.639 c 0
 353.678 424.96 362.606 450.486 364.916 469.931 c 2
234.338 377.917 m 0
 246.242 486.25 246.444 485.679 203.11 466.505 c 2
 167.694 450.834 l 1
 176.722 385.903 l 2
 181.646 350.486 185.907 308.978 186.097 294.584 c 2
 186.444 268.194 l 1
 205.889 282.084 l 2
 224.18 295.148 225.867 300.834 234.338 377.917 c 0
388.398 247.361 m 0
 374.578 267.001 369.777 268.828 333.666 268.194 c 0
 312.139 267.817 285.847 264.48 276.027 260.88 c 0
 254.977 253.161 251.534 239.723 244.279 136.945 c 2
 239.916 75.1396 l 1
 271.166 84.5322 l 2
 314.222 97.4736 372.357 134.883 383.914 157.084 c 0
 403.072 193.89 404.586 224.358 388.398 247.361 c 0
209.753 165.417 m 0
 212.229 197.361 213.448 223.521 212.485 224.098 c 0
 211.514 224.681 206.931 223.765 202.069 222.015 c 0
 196.239 219.915 193.43 203.611 193.515 172.361 c 0
 193.704 102.917 204.547 98.2803 209.753 165.417 c 0
EndSplineSet
EndChar
StartChar: uni0E40
Encoding: 155 3648 32767
OldEncoding: 3648
Width: 289
Flags: W
Fore
90.0488 427.448 m 0
 131.821 452.161 131.821 452.161 128.559 252.373 c 2
 126.373 118.562 l 1
 149.983 124.602 l 2
 162.697 127.854 184.072 133.263 196.297 136.32 c 0
 230.729 144.934 255.324 118.562 255.324 73.0283 c 0
 255.324 53.5146 251.089 28.6396 246.146 19.1328 c 0
 226.073 -19.4844 117.044 -9.67383 101.565 32.1416 c 0
 87.4443 70.2871 73.7031 208.698 73.7031 312.773 c 0
 73.7031 402.911 76.0176 419.147 90.0488 427.448 c 0
209.919 70.2412 m 0
 209.919 85.7607 189.032 87.6006 158.157 74.7988 c 0
 134.546 65.0098 131.498 41.8994 152.708 33.4795 c 0
 170.587 26.3828 209.919 51.6562 209.919 70.2412 c 0
EndSplineSet
EndChar
StartChar: uni0E41
Encoding: 156 3649 32767
OldEncoding: 3649
Width: 493
Flags: W
DStem: 102.46 427.488 163.928 427.488 101.897 344.372 157.585 309.823
Fore
352.648 409.463 m 0
 372.126 431.493 390.867 431.899 398.878 410.464 c 0
 404.844 394.5 399.733 266.263 389.898 185.149 c 2
 385.405 148.098 l 1
 426.872 145.093 l 2
 461.996 142.549 468.86 138.337 471.753 117.555 c 0
 473.641 103.996 469.712 75.9971 462.972 54.9668 c 0
 453.022 23.9238 444.845 15.8076 418.579 10.9053 c 0
 391.26 5.80762 381.65 9.9043 355.16 37.9434 c 2
 323.938 70.9893 l 1
 330.768 231.714 l 2
 336.087 356.89 340.927 396.204 352.648 409.463 c 0
412.684 74.9951 m 0
 414.902 81.7549 409.798 87.0117 401.017 87.0117 c 0
 392.235 87.0117 385.405 80.002 385.405 70.9893 c 0
 385.405 52.8799 406.439 55.9688 412.684 74.9951 c 0
101.897 344.372 m 2
 102.46 427.488 l 1
 133.193 427.488 l 1
 163.928 427.488 l 1
 157.585 309.823 l 2
 154.077 244.732 148.41 176.946 144.901 158.111 c 0
 139.119 127.068 140.195 124.771 157.098 132.075 c 0
 167.118 136.405 192.222 142.156 211.735 144.593 c 0
 242.957 148.49 249.349 145.716 259.031 124.063 c 0
 272.915 93.0205 252.684 7.62305 229.298 -1.44531 c 0
 221.492 -4.47168 208.288 -13.6006 201.003 -21.0068 c 0
 178.137 -44.2549 64.0576 -1.11133 71.6084 27.9297 c 0
 81.7588 66.9697 101.409 272.271 101.897 344.372 c 2
200.027 47.457 m 0
 205.976 70.4893 209.455 90.5771 207.833 92.5195 c 0
 206.236 94.4316 190.271 88.7422 172.708 80.002 c 0
 147.341 67.3789 141.132 58.457 143.438 37.9434 c 0
 145.465 19.918 152.97 10.9824 167.83 8.90234 c 0
 185.416 6.44141 191.234 13.4092 200.027 47.457 c 0
EndSplineSet
EndChar
